SplineFontDB: 3.0
FontName: Umpush-Bold
FullName: Umpush Bold
FamilyName: Umpush
Weight: Bold
Copyright: Copyright (c) 2003 NECTEC. All rights reserved.\nCopyright (c) 2007 Widhaya Trisarnwadhana. All rights reserved.\nModified under GNU General Public License by TLWG.
Version: 0.9.15: 2014-02-20
ItalicAngle: 0
UnderlinePosition: -170
UnderlineWidth: 10
Ascent: 1638
Descent: 410
LayerCount: 2
Layer: 0 0 "Back"  1
Layer: 1 0 "Fore"  0
FSType: 0
OS2Version: 0
OS2_WeightWidthSlopeOnly: 0
OS2_UseTypoMetrics: 0
CreationTime: 1153662462
ModificationTime: 1392825486
PfmFamily: 33
TTFWeight: 700
TTFWidth: 5
LineGap: 0
VLineGap: 0
Panose: 2 11 6 4 2 2 2 2 2 4
OS2TypoAscent: 0
OS2TypoAOffset: 1
OS2TypoDescent: 0
OS2TypoDOffset: 1
OS2TypoLinegap: 0
OS2WinAscent: 0
OS2WinAOffset: 1
OS2WinDescent: 0
OS2WinDOffset: 1
HheadAscent: 0
HheadAOffset: 1
HheadDescent: 0
HheadDOffset: 1
OS2Vendor: 'PfEd'
Lookup: 4 0 1 "'liga' Standard Ligatures lookup 0"  {"'liga' Standard Ligatures lookup 0"  } ['liga' ('latn' <'dflt' > ) ]
Lookup: 6 0 0 "'ccmp' Thai Conditional Descender Removal"  {"'ccmp' Thai Conditional Descender Removal"  } ['ccmp' ('DFLT' <'dflt' > 'thai' <'KUY ' 'THA ' 'dflt' > ) ]
Lookup: 1 0 0 "'ccmp' Pali-Sanskrit Descender Removal"  {"'ccmp' Pali-Sanskrit Descender Removal" ("descless" ) } ['ccmp' ('thai' <'PAL ' 'SAN ' > ) ]
Lookup: 6 0 0 "'ccmp' Thai General Composition"  {"'ccmp' Thai Below Vowel Tone Reordering"  "'ccmp' Thai General Composition"  } ['ccmp' ('DFLT' <'dflt' > 'thai' <'KUY ' 'PAL ' 'SAN ' 'THA ' 'dflt' > ) ]
Lookup: 1 0 0 "Thai Descender Removal Single Substitution"  {"Thai Descender Removal Single Substitution" ("descless" ) } []
Lookup: 2 0 0 "Thai Sara Am Decomposition"  {"Thai Sara Am Decomposition"  } []
Lookup: 2 0 0 "Thai Tone Nikhahit Attachment"  {"Thai Tone Nikhahit Attachment"  } []
Lookup: 1 0 0 "Thai Sara Am Lakkhang"  {"Thai Sara Am Lakkhang"  } []
Lookup: 1 0 0 "Thai Tone Low Variant"  {"Thai Tone Low Variant" ("low" ) } []

StartChar: .notdef
Encoding: 65536 -1 0
Width: 1536
Flags: W
HStem: 0 32<288 1248> 1248 32<288 1248>
VStem: 256 32<32 1248> 1248 32<32 1248>
LayerCount: 2
Fore
SplineSet
256 0 m 1
 256 1280 l 1
 1280 1280 l 1
 1280 0 l 1
 256 0 l 1
288 32 m 1
 1248 32 l 1
 1248 1248 l 1
 288 1248 l 1
 288 32 l 1
EndSplineSet
EndChar

StartChar: uni0E4D.high
Encoding: 63262 63262 2
Width: 0
VWidth: 2558
Flags: W
HStem: 2106 72<-316.618 -185.931> 2334 74<-316.64 -183.467>
VStem: -399 69<2193.76 2319.61> -170 70<2194.38 2319.97>
AnchorPoint: "AboveMark" -249 2625 basemark 0
AnchorPoint: "AboveMark" -249 2120 mark 0
LayerCount: 2
Fore
SplineSet
-399 2255 m 0
 -399 2335 -336 2408 -248 2408 c 0
 -168 2408 -100 2344 -100 2255 c 0
 -100 2168 -173 2106 -248 2106 c 0
 -323 2106 -399 2166 -399 2255 c 0
-330 2255 m 0
 -330 2209 -288 2178 -250 2178 c 0
 -207 2178 -170 2218 -170 2255 c 0
 -170 2308 -214 2334 -249 2334 c 0
 -307 2334 -330 2287 -330 2255 c 0
EndSplineSet
EndChar

StartChar: exclam
Encoding: 33 33 5
Width: 569
Flags: W
HStem: 0 194<176 400> 1430 20G<168 408>
VStem: 168 240<0 194 792.431 1450>
LayerCount: 2
Fore
SplineSet
168 999 m 1
 168 1450 l 1
 408 1450 l 1
 408 999 l 1
 365 365 l 1
 212 365 l 1
 168 999 l 1
176 194 m 1
 400 194 l 1
 400 0 l 1
 176 0 l 1
 176 194 l 1
EndSplineSet
EndChar

StartChar: quotedbl
Encoding: 34 34 6
Width: 727
Flags: W
HStem: 947 503<156 291 437 572>
VStem: 106 230<1139.59 1450> 156 135<947 1024.41> 389 230<1136.36 1450> 437 135<947 1027.64>
LayerCount: 2
Fore
SplineSet
156 947 m 1xa0
 106 1217 l 1
 106 1450 l 1
 336 1450 l 1
 336 1217 l 1xc0
 291 947 l 1
 156 947 l 1xa0
437 947 m 1x88
 389 1217 l 1
 389 1450 l 1
 619 1450 l 1
 619 1217 l 1x90
 572 947 l 1
 437 947 l 1x88
EndSplineSet
EndChar

StartChar: numbersign
Encoding: 35 35 7
Width: 1139
Flags: W
HStem: -10 21G<57 301.16 516 767.053> 365 220<21 135 421 594 884 1113> 875 220<21 241 527 700 988 1113> 1450 20G<360.84 605 819.84 1064>
DStem2: 57 -10 297 -10 0.203743 0.979024<48.8983 383.026 656.682 903.925 1177.58 1511.71> 516 -10 763 -10 0.203743 0.979024<50.3245 383.026 657.497 903.925 1177.99 1511.71>
LayerCount: 2
Back
SplineSet
21 365 m 5
 21 585 l 5
 1113 585 l 5
 1113 365 l 5
 21 365 l 5
21 875 m 5
 21 1095 l 5
 1113 1095 l 5
 1113 875 l 5
 21 875 l 5
763 -10 m 5
 516 -10 l 5
 824 1470 l 5
 1064 1470 l 5
 763 -10 l 5
297 -10 m 5
 57 -10 l 5
 365 1470 l 5
 605 1470 l 5
 297 -10 l 5
EndSplineSet
Fore
SplineSet
297 -10 m 1
 57 -10 l 1
 135 365 l 1
 21 365 l 1
 21 585 l 1
 181 585 l 1
 241 875 l 1
 21 875 l 1
 21 1095 l 1
 287 1095 l 1
 365 1470 l 1
 605 1470 l 1
 527 1095 l 1
 746 1095 l 1
 824 1470 l 1
 1064 1470 l 1
 988 1095 l 1
 1113 1095 l 1
 1113 875 l 1
 943 875 l 1
 884 585 l 1
 1113 585 l 1
 1113 365 l 1
 839 365 l 1
 763 -10 l 1
 516 -10 l 1
 594 365 l 1
 375 365 l 1
 297 -10 l 1
700 875 m 1
 481 875 l 1
 421 585 l 1
 640 585 l 1
 700 875 l 1
EndSplineSet
EndChar

StartChar: dollar
Encoding: 36 36 8
Width: 1139
Flags: W
VStem: 76 240<268.968 417> 106 240<897.214 1162.88> 443 240<-137 -25.9358 198 582 859 1188 1419.25 1507> 768 240<1050 1156.14> 802 240<251.51 533.165>
LayerCount: 2
Back
SplineSet
563 603 m 4xea
 330 628 106 742 106 1031 c 7
 106 1285 267 1434 563 1434 c 7
 845 1434 991 1317 1008 1050 c 5
 768 1050 l 5
 762 1127 713 1214 563 1214 c 7
 397 1214 346 1156 346 999 c 7xdc
 346 887 450 841 563 829 c 4
 728 812 1042 765 1042 397 c 7
 1042 121 865 -42 563 -42 c 7
 251 -42 81 108 76 417 c 5
 316 417 l 5
 316 263 399 178 563 178 c 7
 713 178 802 246 802 386 c 7
 802 562 714 587 563 603 c 4xea
683 -137 m 5
 443 -137 l 5
 443 1507 l 5
 683 1507 l 5
 683 -137 l 5
EndSplineSet
Fore
SplineSet
683 -137 m 1x28
 443 -137 l 1
 443 -34 l 1
 208 2 80 150 76 417 c 1
 316 417 l 1xa8
 316 307 359 232 443 198 c 1
 443 625 l 1
 259 673 106 792 106 1031 c 3
 106 1248 224 1389 443 1425 c 1
 443 1507 l 1
 683 1507 l 1
 683 1426 l 1
 887 1395 994 1276 1008 1050 c 1
 768 1050 l 1x70
 764 1101 741 1156 683 1188 c 1
 683 811 l 1
 847 777 1042 687 1042 397 c 3
 1042 160 911 7 683 -32 c 1
 683 -137 l 1x28
683 582 m 1
 683 197 l 1
 759 226 802 289 802 386 c 3
 802 508 760 558 683 582 c 1
443 859 m 1
 443 1197 l 1
 371 1170 346 1109 346 999 c 3x60
 346 930 386 885 443 859 c 1
EndSplineSet
EndChar

StartChar: percent
Encoding: 37 37 9
Width: 1821
Flags: W
HStem: -55 172<1297.85 1464.15> -10 21G<411 698.113> 548 172<1297.85 1464.15> 716 172<348.854 515.146> 1319 172<348.854 515.146>
VStem: 119 191<926.891 1280.7> 554 191<926.891 1280.7> 1068 191<155.891 509.704> 1503 191<155.891 509.704>
DStem2: 411 -10 688 -10 0.451252 0.892397<124.997 1681.99>
LayerCount: 2
Fore
SplineSet
1381 -55 m 3xaf80
 1173 -55 1068 105 1068 333 c 3
 1068 561 1173 720 1381 720 c 3
 1589 720 1694 561 1694 333 c 3
 1694 105 1589 -55 1381 -55 c 3xaf80
1503 333 m 3
 1503 485 1455 548 1381 548 c 3
 1307 548 1259 485 1259 333 c 3
 1259 181 1307 117 1381 117 c 3
 1455 117 1503 181 1503 333 c 3
432 716 m 3x1f80
 224 716 119 876 119 1104 c 3
 119 1332 224 1491 432 1491 c 3
 640 1491 745 1332 745 1104 c 3
 745 876 640 716 432 716 c 3x1f80
554 1104 m 3
 554 1256 506 1319 432 1319 c 3
 358 1319 310 1256 310 1104 c 3
 310 952 358 888 432 888 c 3
 506 888 554 952 554 1104 c 3
1170 1491 m 1
 1447 1491 l 1
 688 -10 l 1
 411 -10 l 1x4f80
 1170 1491 l 1
EndSplineSet
EndChar

StartChar: ampersand
Encoding: 38 38 10
Width: 1366
Flags: W
HStem: -13 220<408.135 722.582> 1262 220<534.363 714.067>
VStem: 88 240<291.474 529.511> 272 240<1039.52 1238.7> 737 240<1037.15 1237.93>
LayerCount: 2
Fore
SplineSet
977 1169 m 3xd8
 977 1007 873 894 720 812 c 1
 926 522 l 1
 956 579 979 648 995 727 c 1
 1221 649 l 1
 1192 540 1150 442 1095 357 c 1
 1162 270 1238 195 1324 132 c 1
 1173 -67 l 1
 1101 -19 1026 50 948 140 c 1
 925 115 794 -13 576 -13 c 3
 214 -13 88 233 88 403 c 3xe8
 88 593 194 743 407 843 c 1
 325 940 272 1026 272 1154 c 3
 272 1342 429 1482 637 1482 c 3
 820 1482 977 1355 977 1169 c 3xd8
627 1262 m 3
 566 1262 512 1220 512 1151 c 3xd8
 512 1105 544 1043 609 974 c 1
 687 1014 737 1071 737 1155 c 3
 737 1200 700 1262 627 1262 c 3
328 411 m 3xe8
 328 361 370 207 540 207 c 3
 639 207 751 239 800 326 c 1
 530 662 l 1
 400 585 328 500 328 411 c 3xe8
EndSplineSet
EndChar

StartChar: quotesingle
Encoding: 39 39 11
Width: 391
Flags: W
HStem: 947 519<107 276>
VStem: 61 263<1139.17 1466> 107 169<947 1028.83>
LayerCount: 2
Fore
SplineSet
107 947 m 1xa0
 61 1221 l 1
 61 1466 l 1
 324 1466 l 1
 324 1221 l 1xc0
 276 947 l 1
 107 947 l 1xa0
EndSplineSet
EndChar

StartChar: parenleft
Encoding: 40 40 12
Width: 682
Flags: W
VStem: 81 276<200.379 880.853>
LayerCount: 2
Fore
SplineSet
656 1491 m 1
 492 1212 357 980 357 530 c 3
 357 209 457 -111 656 -431 c 1
 436 -431 l 1
 253 -199 81 148 81 531 c 3
 81 918 217 1198 436 1491 c 1
 656 1491 l 1
EndSplineSet
EndChar

StartChar: parenright
Encoding: 41 41 13
Width: 682
Flags: W
VStem: 325 276<200.379 880.853>
LayerCount: 2
Fore
SplineSet
26 1491 m 1
 246 1491 l 1
 465 1198 601 918 601 531 c 3
 601 148 429 -199 246 -431 c 1
 26 -431 l 1
 225 -111 325 209 325 530 c 3
 325 980 190 1212 26 1491 c 1
EndSplineSet
EndChar

StartChar: asterisk
Encoding: 42 42 14
Width: 797
Flags: W
HStem: 862 629
VStem: 310 164<1284 1491>
LayerCount: 2
Fore
SplineSet
478 1491 m 1
 478 1416 478 1361 474 1284 c 1
 533 1316 610 1335 677 1357 c 1
 719 1176 l 1
 653 1161 582 1149 513 1136 c 1
 536 1115 584 1059 658 968 c 1
 507 862 l 1
 461 915 424 981 392 1041 c 1
 360 981 323 915 277 862 c 1
 126 968 l 1
 200 1059 248 1115 271 1136 c 1
 202 1149 131 1161 65 1176 c 1
 107 1357 l 1
 174 1335 251 1316 310 1284 c 1
 306 1361 306 1416 306 1491 c 1
 478 1491 l 1
EndSplineSet
EndChar

StartChar: plus
Encoding: 43 43 15
Width: 1196
Flags: W
HStem: 614 220<114 478 718 1082>
VStem: 478 240<237 614 834 1206>
LayerCount: 2
Fore
SplineSet
478 237 m 1
 478 614 l 1
 114 614 l 1
 114 834 l 1
 478 834 l 1
 478 1206 l 1
 718 1206 l 1
 718 834 l 1
 1082 834 l 1
 1082 614 l 1
 718 614 l 1
 718 237 l 1
 478 237 l 1
EndSplineSet
EndChar

StartChar: comma
Encoding: 44 44 16
Width: 569
Flags: W
HStem: -22 253<122 244>
VStem: 122 297<-22 231> 244 175<-135.047 -22>
LayerCount: 2
Fore
SplineSet
122 -22 m 1xc0
 122 231 l 1
 419 231 l 1
 419 -22 l 2xc0
 419 -201 354 -258 268 -300 c 1
 111 -207 l 1
 219 -159 242 -65 244 -22 c 1xa0
 122 -22 l 1xc0
EndSplineSet
EndChar

StartChar: hyphen
Encoding: 45 45 17
Width: 682
Flags: W
HStem: 411 220<65 618>
VStem: 65 553<411 631>
LayerCount: 2
Fore
SplineSet
65 411 m 1
 65 631 l 1
 618 631 l 1
 618 411 l 1
 65 411 l 1
EndSplineSet
EndChar

StartChar: period
Encoding: 46 46 18
Width: 569
Flags: W
HStem: 0 220<154 430>
VStem: 154 276<0 220>
LayerCount: 2
Fore
SplineSet
154 0 m 1
 154 220 l 1
 430 220 l 1
 430 0 l 1
 154 0 l 1
EndSplineSet
EndChar

StartChar: slash
Encoding: 47 47 19
Width: 595
Flags: W
HStem: -10 21G<-110 137.919> 1450 20G<468.081 716>
DStem2: -110 -10 130 -10 0.368139 0.929771<88.3534 1591.79>
LayerCount: 2
Fore
SplineSet
-110 -10 m 1
 476 1470 l 1
 716 1470 l 1
 130 -10 l 1
 -110 -10 l 1
EndSplineSet
EndChar

StartChar: zero
Encoding: 48 48 20
Width: 1139
Flags: W
HStem: -13 220<440.894 679.872> 1262 220<440.894 679.872>
VStem: 86 240<369.753 1099.94> 800 240<374.393 1095.31>
LayerCount: 2
Fore
SplineSet
560 -13 m 3
 221 -13 86 272 86 735 c 3
 86 1198 221 1482 560 1482 c 3
 899 1482 1040 1198 1040 735 c 3
 1040 272 899 -13 560 -13 c 3
560 1262 m 3
 399 1262 326 1104 326 735 c 3
 326 366 399 207 560 207 c 3
 721 207 800 366 800 735 c 3
 800 1104 721 1262 560 1262 c 3
EndSplineSet
EndChar

StartChar: one
Encoding: 49 49 21
Width: 1139
Flags: W
HStem: 0 21G<523 763> 1452 20G<497 763>
VStem: 523 240<0 1045 1349.19 1472>
LayerCount: 2
Fore
SplineSet
223 1104 m 1
 389 1183 471 1274 523 1472 c 1
 763 1472 l 1
 763 0 l 1
 523 0 l 1
 523 1045 l 1
 403 908 283 858 223 844 c 1
 223 1104 l 1
EndSplineSet
EndChar

StartChar: two
Encoding: 50 50 22
Width: 1139
Flags: W
HStem: 0 220<382 1031> 1262 220<420.459 708.845>
VStem: 96 240<1039 1168.53> 791 240<919.12 1183.74>
LayerCount: 2
Fore
SplineSet
572 1482 m 3
 850 1482 1029 1315 1029 1075 c 3
 1029 689 554 481 382 220 c 1
 1031 220 l 1
 1031 0 l 1
 62 0 l 1
 77 186 185 355 280 450 c 0
 494 666 791 830 791 1079 c 3
 791 1190 675 1262 568 1262 c 3
 423 1262 343 1175 336 1039 c 1
 96 1039 l 1
 96 1307 284 1482 572 1482 c 3
EndSplineSet
EndChar

StartChar: three
Encoding: 51 51 23
Width: 1139
Flags: W
HStem: -13 220<426.555 706.349> 665 220<441 654.684> 1070 21G<104 349.5> 1262 220<419.121 667.937>
VStem: 86 240<312.829 427> 104 240<1070 1185.43> 737 240<957.781 1195.21> 806 240<306.02 567.337>
LayerCount: 2
Fore
SplineSet
1046 449 m 3xf1
 1046 184 835 -13 552 -13 c 3
 299 -13 86 166 86 427 c 1
 326 427 l 1
 343 295 449 207 553 207 c 3
 717 207 806 317 806 445 c 3xf9
 806 576 688 665 537 665 c 3
 504 665 472 660 441 651 c 1
 441 885 l 1
 668 888 737 956 737 1105 c 3
 737 1190 633 1262 549 1262 c 3
 438 1262 355 1191 344 1070 c 1
 104 1070 l 1
 104 1305 296 1482 545 1482 c 3
 788 1482 977 1328 977 1101 c 3xf6
 977 930 928 838 812 794 c 1
 977 768 1046 645 1046 449 c 3xf1
EndSplineSet
EndChar

StartChar: four
Encoding: 52 52 24
Width: 1139
Flags: W
HStem: 0 21G<652 892> 327 220<321 652 892 1070> 1452 20G<639.114 892>
VStem: 652 240<0 327 547 1077>
DStem2: 56 547 321 547 0.54163 0.840617<143.532 768.339>
LayerCount: 2
Fore
SplineSet
652 0 m 1
 652 327 l 1
 56 327 l 1
 56 547 l 1
 652 1472 l 1
 892 1472 l 1
 892 547 l 1
 1070 547 l 1
 1070 327 l 1
 892 327 l 1
 892 0 l 1
 652 0 l 1
652 547 m 1
 652 1077 l 1
 321 547 l 1
 652 547 l 1
EndSplineSet
EndChar

StartChar: five
Encoding: 53 53 25
Width: 1139
Flags: W
HStem: -13 220<407.012 705.638> 774 220<430.138 710.729> 1230 220<460 988>
VStem: 85 240<287.773 412> 817 240<323.312 667.18>
LayerCount: 2
Fore
SplineSet
1057 509 m 3
 1057 208 871 -13 556 -13 c 3
 272 -13 112 155 85 412 c 1
 325 412 l 1
 336 239 472 207 556 207 c 3
 718 207 817 323 817 493 c 3
 817 677 720 774 553 774 c 3
 458 774 409 745 355 683 c 1
 117 705 l 1
 259 1450 l 1
 988 1450 l 1
 988 1230 l 1
 460 1230 l 1
 404 937 l 1
 477 975 523 994 591 994 c 3
 881 994 1057 781 1057 509 c 3
EndSplineSet
EndChar

StartChar: six
Encoding: 54 54 26
Width: 1139
Flags: W
HStem: -13 220<446.366 713.584> 757 220<437.968 708.94> 1262 220<460.168 730.739>
VStem: 77 274<350.153 890.212> 77 240<858 1079.42> 806 240<308.722 651.161>
LayerCount: 2
Fore
SplineSet
77 701 m 3xf4
 77 1265 287 1482 603 1482 c 3
 837 1482 1019 1330 1019 1103 c 1
 806 1104 l 1
 771 1222 679 1262 600 1262 c 3
 422 1262 326 1112 317 858 c 1xec
 382 937 473 977 589 977 c 3
 860 977 1046 752 1046 479 c 3
 1046 208 875 -13 586 -13 c 3
 179 -13 77 352 77 701 c 3xf4
573 757 m 3
 435 757 351 653 351 489 c 3xf4
 351 335 429 207 579 207 c 3
 724 207 806 319 806 481 c 3
 806 637 724 757 573 757 c 3
EndSplineSet
EndChar

StartChar: seven
Encoding: 55 55 27
Width: 1139
Flags: W
HStem: 0 21G<262 502> 1230 220<97 764>
VStem: 262 240<0 315.057>
LayerCount: 2
Fore
SplineSet
97 1230 m 1
 97 1450 l 1
 1046 1450 l 1
 1046 1230 l 1
 954 1136 728 856 666 692 c 0
 530 328 502 138 502 0 c 1
 262 0 l 1
 262 243 328 502 455 776 c 0
 506 885 631 1069 764 1230 c 1
 97 1230 l 1
EndSplineSet
EndChar

StartChar: eight
Encoding: 56 56 28
Width: 1139
Flags: W
HStem: -13 220<414.214 717.786> 666 220<445.337 686.663> 1262 220<443.92 688.08>
VStem: 83 240<295.009 587.077> 143 240<946.257 1202.91> 749 240<946.257 1202.91> 809 240<295.009 587.077>
LayerCount: 2
Fore
SplineSet
566 -13 m 3xe2
 315 -13 83 138 83 434 c 3xf2
 83 642 187 749 359 794 c 1
 197 854 143 959 143 1077 c 3
 143 1318 322 1482 566 1482 c 3
 810 1482 989 1318 989 1077 c 3xec
 989 959 935 854 773 794 c 1
 945 749 1049 642 1049 434 c 3
 1049 138 817 -13 566 -13 c 3xe2
566 886 m 3
 680 886 749 966 749 1074 c 3
 749 1198 663 1262 566 1262 c 3
 469 1262 383 1198 383 1074 c 3xec
 383 966 452 886 566 886 c 3
566 207 m 3
 722 207 809 303 809 434 c 3
 809 587 723 666 566 666 c 3
 409 666 323 587 323 434 c 3xf2
 323 303 410 207 566 207 c 3
EndSplineSet
EndChar

StartChar: nine
Encoding: 57 57 29
Width: 1139
Flags: W
HStem: -13 220<433.292 711.898> 495 220<448.015 716.834> 1262 220<448.689 710.971>
VStem: 113 240<820.274 1162.08> 129 240<267.183 369> 804 277<581.526 1118.4> 825 256<392.053 579>
LayerCount: 2
Fore
SplineSet
1081 771 m 3xf4
 1081 207 871 -13 555 -13 c 3
 310 -13 131 139 129 369 c 1
 369 369 l 1
 380 267 459 207 566 207 c 3
 773 207 815 358 825 579 c 1xea
 759 513 686 495 564 495 c 3
 301 495 113 704 113 981 c 3
 113 1273 298 1482 572 1482 c 3
 979 1482 1081 1119 1081 771 c 3xf4
584 715 m 3
 761 715 804 877 804 982 c 3
 804 1140 728 1262 579 1262 c 3
 431 1262 353 1144 353 991 c 3xf4
 353 822 444 715 584 715 c 3
EndSplineSet
EndChar

StartChar: colon
Encoding: 58 58 30
Width: 569
Flags: W
HStem: 0 230<160 415> 832 230<160 415>
VStem: 160 255<0 230 832 1062>
LayerCount: 2
Fore
SplineSet
160 832 m 1
 160 1062 l 1
 415 1062 l 1
 415 832 l 1
 160 832 l 1
160 0 m 1
 160 230 l 1
 415 230 l 1
 415 0 l 1
 160 0 l 1
EndSplineSet
EndChar

StartChar: semicolon
Encoding: 59 59 31
Width: 569
Flags: W
HStem: 0 205<157 259> 832 230<157 412>
VStem: 157 255<0 205 832 1062> 259 153<-156.375 0>
LayerCount: 2
Fore
SplineSet
157 832 m 1xe0
 157 1062 l 1
 412 1062 l 1
 412 832 l 1
 157 832 l 1xe0
157 0 m 1
 157 205 l 1
 412 205 l 1
 412 0 l 2xe0
 412 -163 365 -262 270 -297 c 1
 145 -213 l 1
 215 -182 255 -120 259 0 c 1xd0
 157 0 l 1
EndSplineSet
EndChar

StartChar: less
Encoding: 60 60 32
Width: 1196
Flags: W
DStem2: 112 809 423 724 0.921242 0.38899<253.442 964.933> 423 724 112 641 0.919536 -0.393005<0 712.612>
LayerCount: 2
Fore
SplineSet
112 641 m 1
 112 809 l 1
 1083 1219 l 1
 1083 990 l 1
 423 724 l 1
 1083 455 l 1
 1083 226 l 1
 112 641 l 1
EndSplineSet
EndChar

StartChar: equal
Encoding: 61 61 33
Width: 1196
Flags: W
HStem: 416 220<114 1082> 811 220<114 1082>
LayerCount: 2
Fore
SplineSet
1082 811 m 1
 114 811 l 1
 114 1031 l 1
 1082 1031 l 1
 1082 811 l 1
1082 416 m 1
 114 416 l 1
 114 636 l 1
 1082 636 l 1
 1082 416 l 1
EndSplineSet
EndChar

StartChar: greater
Encoding: 62 62 34
Width: 1196
Flags: W
DStem2: 112 1219 112 990 0.921242 -0.38899<89.0787 780.302> 112 455 112 226 0.919536 0.393005<0 692.383>
LayerCount: 2
Fore
SplineSet
1083 641 m 1
 112 226 l 1
 112 455 l 1
 750 724 l 1
 112 990 l 1
 112 1219 l 1
 1083 809 l 1
 1083 641 l 1
EndSplineSet
EndChar

StartChar: question
Encoding: 63 63 35
Width: 1139
Flags: W
HStem: 0 235<421 695> 1284 220<450.639 711.463>
VStem: 90 240<1046 1159.54> 421 274<0 235> 433 240<361 558.14> 796 240<945.121 1206.91>
LayerCount: 2
Fore
SplineSet
565 1504 m 3xec
 835 1504 1036 1340 1036 1084 c 3
 1036 1024 1023 924 895 782 c 0
 799 676 673 580 673 361 c 1
 433 361 l 1
 433 615 534 714 630 803 c 0
 784 946 796 1031 796 1088 c 3
 796 1243 642 1284 568 1284 c 3
 441 1284 330 1133 330 1046 c 1
 90 1046 l 1
 90 1300 293 1504 565 1504 c 3xec
421 0 m 1xf4
 421 235 l 1
 695 235 l 1
 695 0 l 1
 421 0 l 1xf4
EndSplineSet
EndChar

StartChar: at
Encoding: 64 64 36
Width: 2079
Flags: W
HStem: -428 200<807.239 1436.19> -13 200<803.246 1037.65 1277 1538.16> 895 200<874.62 1141.24> 1042 20G<1304 1523> 1282 200<837.074 1343.44>
VStem: 111 220<212.779 746.234> 502 220<276.986 701.356> 1208 157<270 643> 1736 220<464.457 923.013>
LayerCount: 2
Fore
SplineSet
1354 -13 m 3xdf80
 1200 -13 1168 59 1161 121 c 1
 1090 28 987 -13 854 -13 c 3
 633 -13 502 199 502 461 c 3
 502 801 737 1095 1011 1095 c 3xef80
 1198 1095 1265 988 1278 938 c 1
 1309 1062 l 1
 1523 1062 l 1
 1380 379 l 2
 1374 350 1365 308 1365 270 c 3
 1365 225 1378 187 1422 187 c 3
 1609 187 1736 475 1736 716 c 3
 1736 1068 1413 1282 1100 1282 c 3
 545 1282 331 800 331 485 c 3
 331 174 490 -228 1120 -228 c 3
 1445 -228 1573 -142 1748 19 c 1
 2005 19 l 1
 1873 -253 1545 -428 1123 -428 c 3
 508 -428 111 -120 111 469 c 3
 111 1039 484 1482 1102 1482 c 3
 1590 1482 1956 1181 1956 713 c 3
 1956 355 1688 -13 1354 -13 c 3xdf80
722 474 m 3
 722 270 820 187 906 187 c 3
 1100 187 1208 422 1208 643 c 3
 1208 855 1103 895 1013 895 c 3
 810 895 722 664 722 474 c 3
EndSplineSet
EndChar

StartChar: A
Encoding: 65 65 37
Width: 1366
Flags: W
HStem: 0 21G<1 262.991 1101.01 1363> 433 220<516 848> 1430 20G<572.014 791.986>
DStem2: 1 0 255 0 0.370838 0.928697<94.193 560.474 797.421 1246.25> 784 1450 682 1070 0.370838 -0.928697<315.079 763.905 1000.85 1467.13>
LayerCount: 2
Back
SplineSet
633 1193 m 1
 784 1450 l 1
 1363 0 l 1
 1109 0 l 1
 633 1193 l 1
969 433 m 1
 396 433 l 1
 464 653 l 1
 901 653 l 1
 969 433 l 1
731 1193 m 1
 255 0 l 1
 1 0 l 1
 580 1450 l 1
 731 1193 l 1
EndSplineSet
Fore
SplineSet
516 653 m 1
 848 653 l 1
 682 1070 l 1
 516 653 l 1
784 1450 m 1
 1363 0 l 1
 1109 0 l 1
 936 433 l 1
 428 433 l 1
 255 0 l 1
 1 0 l 1
 580 1450 l 1
 784 1450 l 1
EndSplineSet
EndChar

StartChar: B
Encoding: 66 66 38
Width: 1366
Flags: W
HStem: 0 220<404 944.099> 626 220<404 872.596> 1230 220<404 898.281>
VStem: 164 240<220 626 846 1230> 946 240<912.523 1181.07> 1017 240<284.715 562.552>
LayerCount: 2
Fore
SplineSet
1186 1079 m 3xf8
 1186 843 1050 791 1021 772 c 1
 1178 726 1257 609 1257 421 c 3xf4
 1257 230 1165 0 709 0 c 2
 164 0 l 1
 164 1450 l 1
 700 1450 l 2
 990 1450 1186 1330 1186 1079 c 3xf8
404 846 m 1
 661 846 l 2
 871 846 946 905 946 1056 c 3xf8
 946 1210 866 1230 637 1230 c 2
 404 1230 l 1
 404 846 l 1
404 220 m 1
 709 220 l 2
 887 220 1017 240 1017 421 c 3xf4
 1017 595 920 626 683 626 c 2
 404 626 l 1
 404 220 l 1
EndSplineSet
EndChar

StartChar: C
Encoding: 67 67 39
Width: 1479
Flags: W
HStem: -13 220<604.627 971.755> 1262 220<591.647 984.166>
VStem: 102 240<504.357 991.349> 1158 240<378.713 480>
LayerCount: 2
Fore
SplineSet
788 207 m 3
 967 207 1139 328 1158 480 c 1
 1398 480 l 1
 1327 201 1144 -13 791 -13 c 3
 356 -13 102 276 102 745 c 3
 102 1182 379 1482 794 1482 c 3
 1100 1482 1303 1304 1373 1050 c 1
 1133 1050 l 1
 1091 1182 965 1262 790 1262 c 3
 507 1262 342 1051 342 746 c 3
 342 438 528 207 788 207 c 3
EndSplineSet
EndChar

StartChar: D
Encoding: 68 68 40
Width: 1479
Flags: W
HStem: 0 220<408 882.346> 1230 220<408 887.357>
VStem: 168 240<220 1230> 1140 240<489.272 979.137>
LayerCount: 2
Fore
SplineSet
1380 733 m 3
 1380 147 1038 0 697 0 c 2
 168 0 l 1
 168 1450 l 1
 673 1450 l 2
 1239 1450 1380 1125 1380 733 c 3
675 220 m 2
 969 220 1140 424 1140 736 c 3
 1140 1053 970 1230 670 1230 c 2
 408 1230 l 1
 408 220 l 1
 675 220 l 2
EndSplineSet
EndChar

StartChar: E
Encoding: 69 69 41
Width: 1320
Flags: W
HStem: 0 220<407 1227> 626 220<407 1026> 1230 220<407 1227>
VStem: 167 240<220 626 846 1230>
LayerCount: 2
Fore
SplineSet
167 0 m 1
 167 1450 l 1
 1227 1450 l 1
 1227 1230 l 1
 407 1230 l 1
 407 846 l 1
 1026 846 l 1
 1026 626 l 1
 407 626 l 1
 407 220 l 1
 1227 220 l 1
 1227 0 l 1
 167 0 l 1
EndSplineSet
EndChar

StartChar: F
Encoding: 70 70 42
Width: 1251
Flags: W
HStem: 0 21G<167 407> 626 220<407 1008> 1230 220<407 1158>
VStem: 167 240<0 626 846 1230>
LayerCount: 2
Fore
SplineSet
167 0 m 1
 167 1450 l 1
 1158 1450 l 1
 1158 1230 l 1
 407 1230 l 1
 407 846 l 1
 1008 846 l 1
 1008 626 l 1
 407 626 l 1
 407 0 l 1
 167 0 l 1
EndSplineSet
EndChar

StartChar: G
Encoding: 71 71 43
Width: 1479
Flags: W
HStem: -13 220<600.796 1016.12> 464 220<905 1164> 1262 220<608.129 960.561>
VStem: 102 240<504.027 969.608> 1164 242<342.641 464>
LayerCount: 2
Fore
SplineSet
342 746 m 3
 342 448 513 207 788 207 c 3
 991 207 1157 287 1164 464 c 1
 905 464 l 1
 905 684 l 1
 1404 684 l 1
 1405 660 1406 636 1406 613 c 3
 1406 204 1203 -13 791 -13 c 3
 352 -13 102 294 102 745 c 3
 102 1175 371 1482 794 1482 c 3
 1113 1482 1301 1300 1373 1050 c 1
 1115 1050 l 1
 1068 1167 948 1262 790 1262 c 3
 550 1262 342 1050 342 746 c 3
EndSplineSet
EndChar

StartChar: H
Encoding: 72 72 44
Width: 1479
Flags: W
HStem: 0 21G<164 404 1074 1314> 631 220<404 1074> 1430 20G<164 404 1074 1314>
VStem: 164 240<0 631 851 1450> 1074 240<0 631 851 1450>
LayerCount: 2
Fore
SplineSet
164 0 m 1
 164 1450 l 1
 404 1450 l 1
 404 851 l 1
 1074 851 l 1
 1074 1450 l 1
 1314 1450 l 1
 1314 0 l 1
 1074 0 l 1
 1074 631 l 1
 404 631 l 1
 404 0 l 1
 164 0 l 1
EndSplineSet
EndChar

StartChar: I
Encoding: 73 73 45
Width: 650
Flags: W
HStem: 0 220<25 205 445 625> 1230 220<25 205 445 625>
VStem: 25 600<0 220 1230 1450>
LayerCount: 2
Fore
SplineSet
625 220 m 1
 625 0 l 1
 25 0 l 1
 25 220 l 1
 205 220 l 1
 205 1230 l 1
 25 1230 l 1
 25 1450 l 1
 625 1450 l 1
 625 1230 l 1
 445 1230 l 1
 445 220 l 1
 625 220 l 1
EndSplineSet
EndChar

StartChar: J
Encoding: 74 74 46
Width: 1024
Flags: W
HStem: -13 220<373.562 562.731> 1230 220<408 625>
VStem: 64 240<284.442 455> 625 240<274.243 1230>
LayerCount: 2
Fore
SplineSet
468 207 m 3
 583 207 625 328 625 471 c 2
 625 1230 l 1
 408 1230 l 1
 408 1450 l 1
 865 1450 l 1
 865 456 l 2
 865 116 706 -13 463 -13 c 3
 224 -13 64 112 64 455 c 1
 304 455 l 1
 312 260 401 207 468 207 c 3
EndSplineSet
EndChar

StartChar: K
Encoding: 75 75 47
Width: 1366
Flags: W
HStem: 0 21G<150 390 1034.21 1346> 1430 20G<150 390 1001.28 1316>
VStem: 150 240<0 514 840 1450>
LayerCount: 2
Fore
SplineSet
150 0 m 1
 150 1450 l 1
 390 1450 l 1
 390 840 l 1
 1022 1450 l 1
 1316 1450 l 1
 659 806 l 1
 1346 0 l 1
 1053 -1 l 1
 479 610 l 1
 390 514 l 1
 390 0 l 1
 150 0 l 1
EndSplineSet
EndChar

StartChar: L
Encoding: 76 76 48
Width: 1139
Flags: W
HStem: 0 220<390 1060> 1430 20G<150 390>
VStem: 150 240<220 1450>
LayerCount: 2
Fore
SplineSet
150 0 m 1
 150 1450 l 1
 390 1450 l 1
 390 220 l 1
 1060 220 l 1
 1060 0 l 1
 150 0 l 1
EndSplineSet
EndChar

StartChar: M
Encoding: 77 77 49
Width: 1706
Flags: W
HStem: 0 21G<152 392 668.546 1033.45 1310 1550> 1430 20G<152 393.452 1308.55 1550>
VStem: 152 240<0 762> 1310 240<0 762>
DStem2: 386 1450 392 762 0.349148 -0.937068<646.797 1331.81> 851 202 1026 0 0.349148 0.937068<0 685.017>
LayerCount: 2
Fore
SplineSet
152 0 m 1
 152 1450 l 1
 386 1450 l 1
 851 202 l 1
 1316 1450 l 1
 1550 1450 l 1
 1550 0 l 1
 1310 0 l 1
 1310 762 l 1
 1026 0 l 1
 676 0 l 1
 392 762 l 1
 392 0 l 1
 152 0 l 1
EndSplineSet
EndChar

StartChar: N
Encoding: 78 78 50
Width: 1479
Flags: W
HStem: 0 21G<156 396 1057.15 1311> 1430 20G<156 409.79 1071 1311>
VStem: 156 240<0 975> 1071 240<471 1450>
DStem2: 396 1450 396 975 0.567635 -0.823281<391.058 1189.15>
LayerCount: 2
Fore
SplineSet
156 0 m 1
 156 1450 l 1
 396 1450 l 1
 1071 471 l 1
 1071 1450 l 1
 1311 1450 l 1
 1311 0 l 1
 1071 0 l 1
 396 975 l 1
 396 0 l 1
 156 0 l 1
EndSplineSet
EndChar

StartChar: O
Encoding: 79 79 51
Width: 1593
Flags: W
HStem: -13 220<589.038 1012.23> 1262 220<588.05 1009.57>
VStem: 104 240<469.273 997.201> 1256 240<474.886 991.751>
LayerCount: 2
Fore
SplineSet
800 -13 m 3
 376 -13 104 286 104 714 c 3
 104 1183 355 1482 801 1482 c 3
 1233 1482 1496 1184 1496 731 c 3
 1496 291 1240 -13 800 -13 c 3
803 1262 m 3
 435 1262 344 993 344 712 c 3
 344 401 503 207 800 207 c 3
 1166 207 1256 487 1256 731 c 3
 1256 1053 1103 1262 803 1262 c 3
EndSplineSet
EndChar

StartChar: P
Encoding: 80 80 52
Width: 1366
Flags: W
HStem: 0 21G<158 398> 580 220<398 931.062> 1230 220<398 940.286>
VStem: 158 240<0 580 800 1230> 1037 240<890.087 1148.14>
LayerCount: 2
Fore
SplineSet
1277 1026 m 3
 1277 669 1006 580 728 580 c 2
 398 580 l 1
 398 0 l 1
 158 0 l 1
 158 1450 l 1
 711 1450 l 2
 1147 1450 1277 1280 1277 1026 c 3
1037 1020 m 3
 1037 1187 899 1230 687 1230 c 2
 398 1230 l 1
 398 800 l 1
 691 800 l 2
 959 800 1037 891 1037 1020 c 3
EndSplineSet
EndChar

StartChar: Q
Encoding: 81 81 53
Width: 1659
Flags: W
HStem: -13 220<740.259 1022.42 1318.07 1522.21> 341 220<790.691 1021.8> 1262 220<588.238 1013.43>
VStem: 104 240<486.176 1000.36> 1256 240<492.518 991.105>
LayerCount: 2
Fore
SplineSet
894 561 m 3
 1058 561 1148 455 1167 435 c 1
 1223 471 1256 589 1256 740 c 3
 1256 1067 1098 1262 802 1262 c 3
 437 1262 344 994 344 721 c 3
 344 467 457 341 560 323 c 1
 598 467 747 561 894 561 c 3
801 1482 m 3
 1233 1482 1496 1181 1496 735 c 3
 1496 478 1436 346 1317 247 c 1
 1334 228 1359 207 1392 207 c 3
 1431 207 1489 224 1533 260 c 1
 1659 90 l 1
 1585 21 1498 -13 1399 -13 c 3
 1291 -13 1208 27 1156 88 c 1
 1039 11 934 -13 800 -13 c 3
 376 -13 104 290 104 718 c 3
 104 1187 355 1482 801 1482 c 3
1050 269 m 1
 1010 316 965 341 914 341 c 3
 856 341 770 315 738 217 c 1
 762 210 790 207 821 207 c 3
 932 207 1015 242 1050 269 c 1
EndSplineSet
EndChar

StartChar: R
Encoding: 82 82 54
Width: 1400
Flags: W
HStem: 0 21G<158 398 1057.9 1387> 580 220<398 663> 1230 220<398 937.577>
VStem: 158 240<0 580 800 1230> 1037 240<894.256 1148.17>
LayerCount: 2
Fore
SplineSet
1277 1026 m 3
 1277 682 1006 611 924 596 c 1
 1387 0 l 1
 1072 0 l 1
 663 580 l 1
 398 580 l 1
 398 0 l 1
 158 0 l 1
 158 1450 l 1
 711 1450 l 2
 1140 1450 1277 1280 1277 1026 c 3
1037 1026 m 3
 1037 1183 896 1230 687 1230 c 2
 398 1230 l 1
 398 800 l 1
 691 800 l 2
 954 800 1037 894 1037 1026 c 3
EndSplineSet
EndChar

StartChar: S
Encoding: 83 83 55
Width: 1366
Flags: W
HStem: -13 220<500.715 907.387> 1262 220<471.905 847.966>
VStem: 92 240<365.238 502> 148 240<978.641 1184.34> 975 240<1019 1133.94> 1019 240<306.212 520.483>
LayerCount: 2
Fore
SplineSet
1259 429 m 3xd4
 1259 157 1015 -13 717 -13 c 3
 200 -13 97 291 92 502 c 1
 332 502 l 1
 359 237 602 207 708 207 c 3
 908 207 1019 302 1019 413 c 3xe4
 1019 540 942 570 598 667 c 0
 405 722 148 776 148 1067 c 3
 148 1325 374 1482 664 1482 c 3
 992 1482 1171 1308 1215 1019 c 1
 975 1019 l 1xd8
 951 1173 849 1262 672 1262 c 3
 528 1262 388 1212 388 1080 c 3
 388 962 460 941 873 816 c 0
 1086 752 1259 688 1259 429 c 3xd4
EndSplineSet
EndChar

StartChar: T
Encoding: 84 84 56
Width: 1251
Flags: W
HStem: 0 21G<508 748> 1230 220<48 508 748 1210>
VStem: 508 240<0 1230>
LayerCount: 2
Fore
SplineSet
508 0 m 1
 508 1230 l 1
 48 1230 l 1
 48 1450 l 1
 1210 1450 l 1
 1210 1230 l 1
 748 1230 l 1
 748 0 l 1
 508 0 l 1
EndSplineSet
EndChar

StartChar: U
Encoding: 85 85 57
Width: 1479
Flags: W
HStem: -13 220<546.817 925.028> 1430 20G<161 401 1074 1314>
VStem: 161 240<358.526 1450> 1074 240<356.168 1450>
LayerCount: 2
Fore
SplineSet
737 207 m 3
 962 207 1074 332 1074 564 c 2
 1074 1450 l 1
 1314 1450 l 1
 1314 564 l 2
 1314 179 1123 -13 741 -13 c 3
 277 -13 161 259 161 564 c 2
 161 1450 l 1
 401 1450 l 1
 401 564 l 2
 401 321 528 207 737 207 c 3
EndSplineSet
EndChar

StartChar: V
Encoding: 86 86 58
Width: 1366
Flags: W
HStem: 0 21G<569.166 783.917> 1430 20G<9 350.803 1015.93 1350>
LayerCount: 2
Fore
SplineSet
577 0 m 1
 9 1450 l 1
 344 1450 l 1
 677 471 l 1
 1023 1450 l 1
 1350 1450 l 1
 776 0 l 1
 577 0 l 1
EndSplineSet
EndChar

StartChar: W
Encoding: 87 87 59
Width: 1933
Flags: W
HStem: 0 21G<361.297 624.867 1292.23 1570.57> 1430 20G<25 284.027 815.362 1098.81 1621.34 1897>
DStem2: 279 1450 25 1450 0.228927 -0.973444<0 959.845> 513 519 618 0 0.324736 0.945805<0 599.468> 1092 1450 961 999 0.320491 -0.947251<385.226 983.487> 1409 519 1566 0 0.222551 0.974921<0 955.945>
LayerCount: 2
Fore
SplineSet
366 0 m 1
 25 1450 l 1
 279 1450 l 1
 513 519 l 1
 822 1450 l 1
 1092 1450 l 1
 1409 519 l 1
 1626 1450 l 1
 1897 1450 l 1
 1566 0 l 1
 1299 0 l 1
 961 999 l 1
 618 0 l 1
 366 0 l 1
EndSplineSet
EndChar

StartChar: X
Encoding: 88 88 60
Width: 1366
Flags: W
HStem: 0 21G<9 332.309 1029.69 1353> 1430 20G<76 398.343 989.527 1313>
DStem2: 9 0 319 0 0.53997 0.841685<167.391 820.736> 386 1450 76 1450 0.515947 -0.85662<0 561.669> 681 972 868 756 0.539776 0.841808<0 576.192> 868 756 681 544 0.53997 -0.841685<77.4628 730.808>
LayerCount: 2
Fore
SplineSet
9 0 m 1
 494 756 l 1
 76 1450 l 1
 386 1450 l 1
 681 972 l 1
 1003 1450 l 1
 1313 1450 l 1
 868 756 l 1
 1353 0 l 1
 1043 0 l 1
 681 544 l 1
 319 0 l 1
 9 0 l 1
EndSplineSet
EndChar

StartChar: Y
Encoding: 89 89 61
Width: 1366
Flags: W
HStem: 0 21G<548 788> 1431 20G<6 316.908 1038.38 1350>
VStem: 548 240<0 621>
DStem2: 304 1451 6 1451 0.54676 -0.837289<0 671.252> 668 887 788 621 0.560672 0.828038<0 682.311>
LayerCount: 2
Fore
SplineSet
548 0 m 1
 548 621 l 1
 6 1451 l 1
 304 1451 l 1
 668 887 l 1
 1052 1451 l 1
 1350 1451 l 1
 788 621 l 1
 788 0 l 1
 548 0 l 1
EndSplineSet
EndChar

StartChar: Z
Encoding: 90 90 62
Width: 1251
Flags: W
HStem: 0 220<375 1200> 1230 220<45 885>
DStem2: 41 227 375 220 0.638534 0.769594<207.883 1310.83>
LayerCount: 2
Fore
SplineSet
41 0 m 1
 41 227 l 1
 885 1230 l 1
 45 1230 l 1
 45 1450 l 1
 1213 1450 l 1
 1213 1230 l 1
 375 220 l 1
 1200 220 l 1
 1200 0 l 1
 41 0 l 1
EndSplineSet
EndChar

StartChar: bracketleft
Encoding: 91 91 63
Width: 569
Flags: W
HStem: -407 200<359 536> 1266 200<359 536>
VStem: 139 397<-407 -207 1266 1466> 139 220<-207 1266>
LayerCount: 2
Fore
SplineSet
139 -407 m 1xe0
 139 1466 l 1
 536 1466 l 1
 536 1266 l 1xe0
 359 1266 l 1
 359 -207 l 1xd0
 536 -207 l 1
 536 -407 l 1
 139 -407 l 1xe0
EndSplineSet
EndChar

StartChar: backslash
Encoding: 92 92 64
Width: 569
Flags: W
VStem: -39 648
DStem2: 185 1491 -39 1491 0.269936 -0.962878<0 1513.98>
LayerCount: 2
Fore
SplineSet
386 -25 m 1
 -39 1491 l 1
 185 1491 l 1
 609 -25 l 1
 386 -25 l 1
EndSplineSet
EndChar

StartChar: bracketright
Encoding: 93 93 65
Width: 569
Flags: W
HStem: -407 200<33 210> 1266 200<33 210>
VStem: 33 397<-407 -207 1266 1466> 210 220<-207 1266>
LayerCount: 2
Fore
SplineSet
430 -407 m 1xe0
 33 -407 l 1
 33 -207 l 1xe0
 210 -207 l 1
 210 1266 l 1xd0
 33 1266 l 1
 33 1466 l 1
 430 1466 l 1
 430 -407 l 1xe0
EndSplineSet
EndChar

StartChar: asciicircum
Encoding: 94 94 66
Width: 961
Flags: W
DStem2: 54 690 288 690 0.383879 0.923384<89.8276 642.384>
LayerCount: 2
Fore
SplineSet
288 690 m 1
 54 690 l 1
 387 1491 l 1
 572 1491 l 1
 907 690 l 1
 676 690 l 1
 479 1209 l 1
 288 690 l 1
EndSplineSet
EndChar

StartChar: underscore
Encoding: 95 95 67
Width: 1139
Flags: W
HStem: -427 200<-31 1162>
LayerCount: 2
Fore
SplineSet
-31 -427 m 1
 -31 -227 l 1
 1162 -227 l 1
 1162 -427 l 1
 -31 -427 l 1
EndSplineSet
EndChar

StartChar: grave
Encoding: 96 96 68
Width: 682
Flags: W
HStem: 1194 280<291 360>
VStem: 60 435
LayerCount: 2
Fore
SplineSet
495 1194 m 1
 291 1194 l 1
 60 1474 l 1
 360 1474 l 1
 495 1194 l 1
EndSplineSet
EndChar

StartChar: a
Encoding: 97 97 69
Width: 1139
Flags: W
HStem: -13 200<335.481 678.779> 495 200<607.963 775> 895 200<405.793 716.271>
VStem: 74 220<226.365 390.79> 775 220<283.906 495 680.834 828.099>
LayerCount: 2
Fore
SplineSet
995 445 m 2
 995 153 1000 93 1052 0 c 1
 814 0 l 1
 803 31 795 63 792 96 c 1
 685 6 579 -13 437 -13 c 3
 149 -13 74 164 74 289 c 3
 74 499 230 600 492 633 c 0
 600 646 695 666 776 695 c 1
 770 836 707 895 558 895 c 3
 422 895 342 818 318 738 c 1
 105 768 l 1
 152 991 304 1095 584 1095 c 3
 864 1095 995 1017 995 694 c 2
 995 445 l 2
294 308 m 3
 294 212 412 187 487 187 c 3
 675 187 775 262 775 444 c 2
 775 495 l 1
 554 414 294 469 294 308 c 3
EndSplineSet
EndChar

StartChar: b
Encoding: 98 98 70
Width: 1139
Flags: W
HStem: -13 200<463.184 715.469> 895 200<468.168 730.54> 1446 20G<134 354>
VStem: 134 220<0 84 316.845 759.416 990 1466> 835 220<321.055 768.951>
LayerCount: 2
Fore
SplineSet
596 -13 m 3
 445 -13 358 67 341 84 c 1
 341 0 l 1
 134 0 l 1
 134 1466 l 1
 354 1466 l 1
 354 990 l 1
 432 1054 518 1095 605 1095 c 3
 892 1095 1055 861 1055 550 c 3
 1055 222 895 -13 596 -13 c 3
591 895 m 3
 449 895 354 748 354 549 c 3
 354 249 496 187 584 187 c 3
 741 187 835 320 835 542 c 3
 835 749 767 895 591 895 c 3
EndSplineSet
EndChar

StartChar: c
Encoding: 99 99 71
Width: 1024
Flags: W
HStem: -13 200<419.61 713.775> 895 200<425.848 702.462>
VStem: 80 220<320.95 750.524> 785 220<261.91 403 696 809.7>
LayerCount: 2
Fore
SplineSet
561 187 m 3
 701 187 782 256 785 403 c 1
 1005 403 l 1
 994 62 740 -13 563 -13 c 3
 271 -13 80 201 80 530 c 3
 80 867 245 1095 564 1095 c 3
 825 1095 1003 929 1003 696 c 1
 785 696 l 1
 783 814 682 895 571 895 c 3
 358 895 300 692 300 535 c 3
 300 334 386 187 561 187 c 3
EndSplineSet
EndChar

StartChar: d
Encoding: 100 100 72
Width: 1139
Flags: W
HStem: -13 200<405.753 659.816> 895 200<401.325 650.577> 1446 20G<769 989>
VStem: 68 220<320.425 769.905> 769 220<0 84 315.715 755.141 990 1466>
LayerCount: 2
Fore
SplineSet
68 550 m 3
 68 871 234 1095 518 1095 c 3
 605 1095 691 1054 769 990 c 1
 769 1466 l 1
 989 1466 l 1
 989 0 l 1
 782 0 l 1
 782 84 l 1
 765 67 678 -13 527 -13 c 3
 228 -13 68 221 68 550 c 3
539 187 m 3
 627 187 769 249 769 545 c 3
 769 740 675 895 532 895 c 3
 435 895 288 839 288 538 c 3
 288 320 374 187 539 187 c 3
EndSplineSet
EndChar

StartChar: e
Encoding: 101 101 73
Width: 1139
Flags: W
HStem: -13 200<431.202 749.74> 475 200<307 829> 895 200<414.898 739.845>
VStem: 75 226<324.048 475 675 783.839> 829 226<265.529 333 675 793.967>
LayerCount: 2
Fore
SplineSet
582 187 m 3
 775 187 812 293 820 333 c 1
 1048 333 l 1
 1006 118 839 -13 581 -13 c 3
 249 -13 75 188 75 525 c 3
 75 870 250 1095 571 1095 c 3
 876 1095 1055 878 1055 539 c 3
 1055 521 1054 493 1053 475 c 1
 301 475 l 1
 312 313 409 187 582 187 c 3
829 675 m 1
 815 818 733 895 572 895 c 3
 415 895 315 795 307 675 c 1
 829 675 l 1
EndSplineSet
EndChar

StartChar: f
Encoding: 102 102 74
Width: 569
Flags: W
HStem: 0 21G<157 377> 862 200<19 157 377 536> 1315 200<415.499 637.409>
VStem: 157 220<0 862 1062 1278.03>
LayerCount: 2
Fore
SplineSet
524 1315 m 3
 438 1315 377 1271 377 1132 c 2
 377 1062 l 1
 536 1062 l 1
 536 862 l 1
 377 862 l 1
 377 0 l 1
 157 0 l 1
 157 862 l 1
 19 862 l 1
 19 1062 l 1
 157 1062 l 1
 157 1175 l 2
 157 1447 330 1515 462 1515 c 3
 529 1515 589 1506 640 1488 c 1
 640 1288 l 1
 580 1307 559 1315 524 1315 c 3
EndSplineSet
EndChar

StartChar: g
Encoding: 103 103 75
Width: 1139
Flags: W
HStem: -428 200<381.072 681.76> -13 200<386.554 687.517> 895 200<392.86 680.594> 1042 20G<782 1002>
VStem: 66 220<303.553 779.139> 95 220<-166.826 -74> 782 220<-115.996 75 294.914 779.28 984 1062>
LayerCount: 2
Fore
SplineSet
522 -428 m 3xda
 153 -428 95 -236 95 -74 c 1
 315 -74 l 1xd6
 315 -127 370 -228 521 -228 c 3
 698 -228 782 -121 782 75 c 1
 719 25 628 -13 525 -13 c 3
 237 -13 66 220 66 535 c 3
 66 874 250 1095 526 1095 c 3xea
 639 1095 743 1049 782 984 c 1
 782 1062 l 1
 1002 1062 l 1
 1002 144 l 2
 1002 -330 834 -428 522 -428 c 3xda
538 895 m 3xea
 331 895 286 722 286 544 c 3
 286 298 361 187 540 187 c 3
 710 187 782 296 782 539 c 3
 782 845 651 895 538 895 c 3xea
EndSplineSet
EndChar

StartChar: h
Encoding: 104 104 76
Width: 1139
Flags: W
HStem: 0 21G<135 355 780 1000> 895 200<466.96 725.978> 1446 20G<135 355>
VStem: 135 220<0 769.351 1008 1466> 780 220<0 843.953>
LayerCount: 2
Fore
SplineSet
596 895 m 3
 435 895 355 735 355 595 c 2
 355 0 l 1
 135 0 l 1
 135 1466 l 1
 355 1466 l 1
 355 1008 l 1
 406 1066 495 1095 600 1095 c 3
 920 1095 1000 858 1000 673 c 2
 1000 0 l 1
 780 0 l 1
 780 687 l 2
 780 849 710 895 596 895 c 3
EndSplineSet
EndChar

StartChar: i
Encoding: 105 105 77
Width: 455
Flags: W
HStem: 0 21G<116 336> 1042 20G<116 336> 1220 246<121 332>
VStem: 116 220<0 1062 1220 1466>
LayerCount: 2
Fore
SplineSet
121 1220 m 1
 121 1466 l 1
 332 1466 l 1
 332 1220 l 1
 121 1220 l 1
116 0 m 1
 116 1062 l 1
 336 1062 l 1
 336 0 l 1
 116 0 l 1
EndSplineSet
EndChar

StartChar: j
Encoding: 106 106 78
Width: 455
Flags: W
HStem: -428 200<-92.0349 80.1743> 1042 20G<116 336> 1220 246<116 336>
VStem: 116 220<-185.337 1062 1220 1466>
LayerCount: 2
Fore
SplineSet
116 1220 m 1
 116 1466 l 1
 336 1466 l 1
 336 1220 l 1
 116 1220 l 1
336 -58 m 2
 336 -336 230 -428 65 -428 c 3
 8 -428 -45 -423 -94 -412 c 1
 -94 -220 l 1
 -59 -225 -38 -228 -29 -228 c 3
 56 -228 116 -191 116 -35 c 2
 116 1062 l 1
 336 1062 l 1
 336 -58 l 2
EndSplineSet
EndChar

StartChar: k
Encoding: 107 107 79
Width: 1024
Flags: W
HStem: 0 21G<136 356 727.727 1016> 1042 20G<678.011 975> 1446 20G<136 356>
VStem: 136 220<0 390 684 1466>
DStem2: 356 684 592 636 0.677507 0.735516<124.587 508.378>
LayerCount: 2
Fore
SplineSet
136 0 m 1
 136 1466 l 1
 356 1466 l 1
 356 684 l 1
 696 1062 l 1
 975 1062 l 1
 592 636 l 1
 1016 0 l 1
 740 0 l 1
 443 484 l 1
 356 390 l 1
 356 0 l 1
 136 0 l 1
EndSplineSet
EndChar

StartChar: l
Encoding: 108 108 80
Width: 455
Flags: W
HStem: 0 21G<112 332> 1446 20G<112 332>
VStem: 112 220<0 1466>
LayerCount: 2
Fore
SplineSet
112 0 m 1
 112 1466 l 1
 332 1466 l 1
 332 0 l 1
 112 0 l 1
EndSplineSet
EndChar

StartChar: m
Encoding: 109 109 81
Width: 1706
Flags: W
HStem: 0 21G<135 355 744 964 1353 1573> 895 200<442.931 702.566 1050.06 1305.93> 1042 20G<135 355>
VStem: 135 220<0 800.125 990 1062> 744 220<0 809.585> 1353 220<0 847.178>
CounterMasks: 1 1c
LayerCount: 2
Fore
SplineSet
578 895 m 3xdc
 398 895 355 742 355 595 c 2
 355 0 l 1
 135 0 l 1
 135 1062 l 1
 355 1062 l 1xbc
 355 990 l 1
 411 1050 503 1095 618 1095 c 3
 814 1095 878 1003 900 957 c 1
 961 1056 1125 1095 1245 1095 c 3
 1507 1095 1573 912 1573 729 c 2
 1573 0 l 1
 1353 0 l 1
 1353 713 l 2
 1353 826 1298 895 1205 895 c 3
 1089 895 964 841 964 661 c 2
 964 0 l 1
 744 0 l 1
 744 734 l 2
 744 856 665 895 578 895 c 3xdc
EndSplineSet
EndChar

StartChar: n
Encoding: 110 110 82
Width: 1139
Flags: W
HStem: 0 21G<135 355 780 1000> 895 200<448.578 725.353> 1044 20G<135 355>
VStem: 135 220<0 793.38 1012 1064> 780 220<0 843.953>
LayerCount: 2
Fore
SplineSet
592 895 m 3xd8
 401 895 355 737 355 599 c 2
 355 0 l 1
 135 0 l 1
 135 1064 l 1
 355 1064 l 1xb8
 355 1012 l 1
 422 1074 488 1095 600 1095 c 3
 920 1095 1000 858 1000 673 c 2
 1000 0 l 1
 780 0 l 1
 780 691 l 2
 780 846 708 895 592 895 c 3xd8
EndSplineSet
EndChar

StartChar: o
Encoding: 111 111 83
Width: 1139
Flags: W
HStem: -13 200<410.297 721.558> 895 200<410.297 721.558>
VStem: 68 220<316.445 765.555> 843 220<316.445 765.555>
LayerCount: 2
Fore
SplineSet
566 -13 m 3
 244 -13 68 187 68 541 c 3
 68 895 244 1095 566 1095 c 3
 888 1095 1063 895 1063 541 c 3
 1063 187 888 -13 566 -13 c 3
566 895 m 3
 340 895 288 723 288 541 c 3
 288 359 340 187 566 187 c 3
 792 187 843 359 843 541 c 3
 843 723 792 895 566 895 c 3
EndSplineSet
EndChar

StartChar: p
Encoding: 112 112 84
Width: 1139
Flags: W
HStem: -13 200<455.966 705.849> 895 200<448.203 701.237> 1042 20G<120 340>
VStem: 120 220<-390 86 326.859 765.841 999 1062> 821 220<322.673 761.149>
LayerCount: 2
Fore
SplineSet
1041 532 m 3xd8
 1041 213 876 -13 591 -13 c 3
 504 -13 418 22 340 86 c 1
 340 -390 l 1
 120 -390 l 1
 120 1062 l 1
 340 1062 l 1xb8
 340 999 l 1
 400 1048 477 1095 582 1095 c 3
 881 1095 1041 860 1041 532 c 3xd8
567 895 m 3xd8
 482 895 340 832 340 537 c 3
 340 342 434 187 574 187 c 3
 666 187 821 244 821 544 c 3
 821 761 728 895 567 895 c 3xd8
EndSplineSet
EndChar

StartChar: q
Encoding: 113 113 85
Width: 1139
Flags: W
HStem: -13 200<422.56 671.975> 895 200<427.137 680.904> 1042 20G<788 1008>
VStem: 87 220<322.039 761.364> 788 220<-390 86 326.859 766.285 999 1062>
LayerCount: 2
Fore
SplineSet
546 1095 m 3xd8
 697 1095 780 1009 788 999 c 1
 788 1062 l 1
 1008 1062 l 1xb8
 1008 -390 l 1
 788 -390 l 1
 788 86 l 1
 710 22 624 -13 537 -13 c 3
 254 -13 87 211 87 532 c 3
 87 860 247 1095 546 1095 c 3xd8
555 187 m 3
 693 187 788 342 788 537 c 3
 788 833 646 895 562 895 c 3xd8
 401 895 307 762 307 544 c 3
 307 243 462 187 555 187 c 3
EndSplineSet
EndChar

StartChar: r
Encoding: 114 114 86
Width: 682
Flags: W
HStem: 0 21G<133 353> 895 200<437.162 660.292> 1042 20G<133 353>
VStem: 133 220<0 815.919 947 1062>
LayerCount: 2
Fore
SplineSet
133 0 m 1xd0
 133 1062 l 1
 353 1062 l 1xb0
 353 947 l 1
 426 1068 486 1095 580 1095 c 3
 636 1095 675 1069 710 1046 c 1
 648 856 l 1
 622 870 607 895 565 895 c 3
 362 895 353 713 353 590 c 2
 353 0 l 1
 133 0 l 1xd0
EndSplineSet
EndChar

StartChar: s
Encoding: 115 115 87
Width: 1024
Flags: W
HStem: -14 200<353.749 678.277> 895 200<344.316 645.174>
VStem: 63 220<253.92 358> 93 220<699.992 861.471> 725 220<231.464 401.532>
LayerCount: 2
Fore
SplineSet
945 325 m 3xd8
 945 114 758 -14 517 -14 c 3
 154 -14 73 210 63 358 c 1
 283 358 l 1xe8
 296 245 381 186 516 186 c 3
 660 186 725 253 725 306 c 3
 725 409 649 426 523 449 c 0
 272 495 93 543 93 783 c 3
 93 978 260 1095 484 1095 c 3
 839 1095 903 898 905 767 c 1
 685 767 l 1
 678 854 612 895 497 895 c 3
 356 895 313 834 313 786 c 3
 313 693 398 670 517 648 c 0
 826 591 945 524 945 325 c 3xd8
EndSplineSet
EndChar

StartChar: t
Encoding: 116 116 88
Width: 569
Flags: W
HStem: -13 200<381.485 530.004> 862 200<18 146 366 497>
VStem: 146 220<205.9 862 1062 1433>
LayerCount: 2
Fore
SplineSet
528 195 m 1
 554 2 l 1
 506 -8 456 -13 406 -13 c 0
 146 -13 146 129 146 311 c 2
 146 862 l 1
 18 862 l 1
 18 1062 l 1
 146 1062 l 1
 146 1433 l 1
 366 1433 l 1
 366 1062 l 1
 497 1062 l 1
 497 862 l 1
 366 862 l 1
 366 297 l 2
 366 234 391 187 474 187 c 0
 475 187 493 190 528 195 c 1
EndSplineSet
EndChar

StartChar: u
Encoding: 117 117 89
Width: 1139
Flags: W
HStem: -13 200<402.92 677.324> 1042 20G<104 324 749 969>
VStem: 104 220<261.609 1062> 749 220<0 34 259.867 1062>
LayerCount: 2
Fore
SplineSet
534 187 m 3
 688 187 749 289 749 403 c 2
 749 1062 l 1
 969 1062 l 1
 969 0 l 1
 749 0 l 1
 749 34 l 1
 688 -2 576 -13 537 -13 c 3
 191 -13 104 210 104 412 c 2
 104 1062 l 1
 324 1062 l 1
 324 408 l 2
 324 234 446 187 534 187 c 3
EndSplineSet
EndChar

StartChar: v
Encoding: 118 118 90
Width: 1024
Flags: W
HStem: 0 21G<421.411 606.552> 1042 20G<26 275.179 753.162 1000>
DStem2: 268 1062 26 1062 0.354787 -0.934947<0 745.739> 520 360 599 0 0.353246 0.93553<0 741.521>
LayerCount: 2
Fore
SplineSet
429 0 m 1
 26 1062 l 1
 268 1062 l 1
 520 360 l 1
 760 1062 l 1
 1000 1062 l 1
 599 0 l 1
 429 0 l 1
EndSplineSet
EndChar

StartChar: w
Encoding: 119 119 91
Width: 1479
Flags: W
HStem: 0 21G<290.539 549.799 935.5 1204.95> 1042 20G<6 260.814 641.582 838.791 1231.21 1463>
DStem2: 256 1062 6 1062 0.263425 -0.96468<0 717.602> 424 364 544 0 0.305568 0.95217<0 393.637> 1069 364 1200 0 0.240384 0.970678<0 717.677>
LayerCount: 2
Fore
SplineSet
296 0 m 1
 6 1062 l 1
 256 1062 l 1
 424 364 l 1
 648 1062 l 1
 832 1062 l 1
 1069 364 l 1
 1236 1062 l 1
 1463 1062 l 1
 1200 0 l 1
 956 0 l 1
 915 149 843 374 740 676 c 1
 544 0 l 1
 296 0 l 1
EndSplineSet
EndChar

StartChar: x
Encoding: 120 120 92
Width: 1024
Flags: W
HStem: 0 21G<15 295.978 719.696 1009> 1042 20G<44 335.006 687.359 981>
DStem2: 15 0 284 0 0.548691 0.836025<147.598 147.598 887.569 1263.71> 324 1062 44 1062 0.509525 -0.860456<0 362.792> 657 562 505 369 0.530812 -0.84749<82.8821 516.1>
LayerCount: 2
Fore
SplineSet
15 0 m 1
 346 552 l 1
 44 1062 l 1
 324 1062 l 1
 499 744 l 1
 700 1062 l 1
 981 1062 l 1
 657 562 l 1
 1009 0 l 1
 732 0 l 1
 505 369 l 1
 284 0 l 1
 15 0 l 1
EndSplineSet
EndChar

StartChar: y
Encoding: 121 121 93
Width: 1024
Flags: W
HStem: -428 200<127 345.04> 1042 20G<33 298.754 737.652 1006>
DStem2: 292 1062 33 1062 0.332959 -0.942941<0 728.209> 525 372 642 0 0.324233 0.945977<0 723.731>
LayerCount: 2
Fore
SplineSet
214 -228 m 3
 330 -228 417 -143 417 -54 c 3
 417 -37 414 -19 408 0 c 2
 33 1062 l 1
 292 1062 l 1
 525 372 l 1
 744 1062 l 1
 1006 1062 l 1
 642 0 l 1
 617 -253 472 -428 239 -428 c 3
 197 -428 157 -427 127 -415 c 1
 107 -214 l 1
 141 -223 177 -228 214 -228 c 3
EndSplineSet
EndChar

StartChar: z
Encoding: 122 122 94
Width: 1024
Flags: W
HStem: 0 200<344 980> 862 200<60 664>
DStem2: 40 200 344 200 0.685913 0.727683<208.518 909.736>
LayerCount: 2
Fore
SplineSet
40 0 m 1
 40 200 l 1
 664 862 l 1
 60 862 l 1
 60 1062 l 1
 948 1062 l 1
 948 862 l 1
 344 200 l 1
 980 200 l 1
 980 0 l 1
 40 0 l 1
EndSplineSet
EndChar

StartChar: braceleft
Encoding: 123 123 95
Width: 684
Flags: W
HStem: -422 200<515.557 636> 448 164<57 186.32> 1282 200<515.557 636>
VStem: 264 220<-191.475 359.354 700.646 1251.47>
CounterMasks: 1 e0
LayerCount: 2
Fore
SplineSet
57 612 m 17
 251 616 264 785 264 971 c 3
 264 1312 284 1482 580 1482 c 2
 636 1482 l 1
 636 1282 l 1
 595 1282 l 2
 508 1282 484 1228 484 981 c 3
 484 729 446 618 308 530 c 1
 446 442 484 331 484 79 c 3
 484 -168 508 -222 595 -222 c 2
 636 -222 l 1
 636 -422 l 1
 580 -422 l 2
 284 -422 264 -252 264 89 c 3
 264 275 251 444 57 448 c 9
 57 612 l 17
EndSplineSet
EndChar

StartChar: bar
Encoding: 124 124 96
Width: 532
Flags: W
VStem: 156 220<-431 1491>
LayerCount: 2
Fore
SplineSet
156 -431 m 1
 156 1491 l 1
 376 1491 l 1
 376 -431 l 1
 156 -431 l 1
EndSplineSet
EndChar

StartChar: braceright
Encoding: 125 125 97
Width: 684
Flags: W
HStem: -422 200<48 168.443> 448 164<497.68 627> 1282 200<48 168.443>
VStem: 200 220<-191.475 359.354 700.646 1251.47>
CounterMasks: 1 e0
LayerCount: 2
Fore
SplineSet
627 612 m 9
 627 448 l 17
 433 444 420 275 420 89 c 3
 420 -252 400 -422 104 -422 c 2
 48 -422 l 1
 48 -222 l 1
 89 -222 l 2
 176 -222 200 -168 200 79 c 3
 200 331 238 442 376 530 c 1
 238 618 200 729 200 981 c 3
 200 1228 176 1282 89 1282 c 2
 48 1282 l 1
 48 1482 l 1
 104 1482 l 2
 400 1482 420 1312 420 971 c 3
 420 785 433 616 627 612 c 9
EndSplineSet
EndChar

StartChar: asciitilde
Encoding: 126 126 98
Width: 1196
Flags: W
HStem: 540 220<688.953 994.271> 674 220<197.32 520.352>
LayerCount: 2
Fore
SplineSet
348 674 m 3x40
 246 674 178 626 87 538 c 1
 87 774 l 1
 158 854 250 894 365 894 c 3x40
 559 894 716 760 852 760 c 3
 955 760 1055 838 1110 897 c 1
 1110 654 l 1
 1025 575 944 540 833 540 c 3x80
 635 540 510 674 348 674 c 3x40
EndSplineSet
EndChar

StartChar: exclamdown
Encoding: 161 161 100
Width: 569
Flags: W
HStem: 0 21G<168 408> 1065 20G<209.644 365.388> 1256 194<176 400>
VStem: 168 240<0 657.569 1256 1450>
LayerCount: 2
Fore
SplineSet
408 451 m 1
 408 0 l 1
 168 0 l 1
 168 451 l 1
 211 1085 l 1
 364 1085 l 1
 408 451 l 1
400 1256 m 1
 176 1256 l 1
 176 1450 l 1
 400 1450 l 1
 400 1256 l 1
EndSplineSet
EndChar

StartChar: cent
Encoding: 162 162 101
Width: 1118
Flags: W
HStem: -14 206<724 853.621> 821 226<891.335 991> 925 202<724 857.889> 1455 20G<504 724>
VStem: 98 220<332.623 786.831> 504 220<-361 -9 201 917 1119.9 1475>
LayerCount: 2
Fore
SplineSet
724 -361 m 1xbc
 504 -361 l 1
 504 -9 l 1
 233 40 98 274 98 557 c 3
 98 853 246 1076 504 1125 c 1
 504 1475 l 1
 724 1475 l 1
 724 1127 l 1xbc
 829 1112 921 1078 991 1047 c 1
 991 821 l 1
 959 821 l 1xdc
 872 884 791 912 724 925 c 1
 724 192 l 1
 790 205 868 234 959 297 c 1
 991 297 l 1
 991 73 l 1
 982 68 l 1
 868 15 798 -6 724 -14 c 1
 724 -361 l 1xbc
504 201 m 1
 504 917 l 1
 407 881 318 785 318 557 c 3
 318 336 408 238 504 201 c 1
EndSplineSet
EndChar

StartChar: sterling
Encoding: 163 163 102
Width: 1118
Flags: W
HStem: 0 200<299 1047> 597 200<114 277 497 863> 1231 235<908.147 1017> 1318 200<582.772 912.744>
VStem: 277 220<369.326 597 797 1222.32>
LayerCount: 2
Fore
SplineSet
986 1231 m 1xe8
 901 1290 805 1318 727 1318 c 3
 564 1318 497 1212 497 1036 c 2
 497 797 l 1
 863 797 l 1
 863 597 l 1
 497 597 l 1
 497 353 390 262 299 200 c 1
 1047 200 l 1
 1047 0 l 1
 73 0 l 1
 73 232 l 1
 231 279 275 384 277 597 c 1
 114 597 l 1
 114 797 l 1
 277 797 l 1
 277 1055 l 2
 277 1331 450 1518 708 1518 c 3xd8
 787 1518 859 1511 1017 1466 c 1
 1017 1231 l 1
 986 1231 l 1xe8
EndSplineSet
EndChar

StartChar: currency
Encoding: 164 164 103
Width: 1118
Flags: W
HStem: 310 200<466.4 653.786> 812 200<466.178 653.237>
VStem: 209 220<547.92 774.264> 691 220<547.948 774.134>
DStem2: 172 1180 42 1051 0.707496 -0.706717<0 319.502 965.62 1284.01> 43 273 170 141 0.706718 0.707495<0 318.388 963.122 1280.57>
LayerCount: 2
Fore
SplineSet
911 661 m 3
 911 608 897 546 863 488 c 1
 1080 272 l 1
 951 143 l 1
 735 358 l 1
 676 324 629 310 560 310 c 3
 492 310 429 334 387 359 c 1
 170 141 l 1
 43 273 l 1
 257 489 l 1
 223 549 209 613 209 661 c 3
 209 729 231 787 258 833 c 1
 42 1051 l 1
 172 1180 l 1
 388 964 l 1
 448 1000 508 1012 560 1012 c 3
 628 1012 689 989 733 965 c 1
 948 1179 l 1
 1080 1052 l 1
 863 834 l 1
 895 780 911 729 911 661 c 3
560 510 m 3
 641 510 691 586 691 661 c 3
 691 736 641 812 560 812 c 3
 479 812 429 736 429 661 c 3
 429 586 479 510 560 510 c 3
EndSplineSet
EndChar

StartChar: yen
Encoding: 165 165 104
Width: 1118
Flags: W
HStem: 0 21G<439 679> 320 220<99 439 679 1019> 1431 20G<14 292.187 831.68 1101>
VStem: 439 240<0 320 540 587>
DStem2: 283 1451 14 1451 0.443058 -0.896493<0 663.312> 560 848 677 608 0.449332 0.893365<0 664.961>
LayerCount: 2
Fore
SplineSet
1101 1451 m 1
 677 608 l 1
 677 540 l 1
 1019 540 l 1
 1019 320 l 1
 679 320 l 1
 679 0 l 1
 439 0 l 1
 439 320 l 1
 99 320 l 1
 99 540 l 1
 441 540 l 1
 441 587 l 1
 14 1451 l 1
 283 1451 l 1
 560 848 l 1
 841 1451 l 1
 1101 1451 l 1
EndSplineSet
EndChar

StartChar: brokenbar
Encoding: 166 166 105
Width: 783
Flags: W
VStem: 281 220<-392 406 758 1556>
LayerCount: 2
Fore
SplineSet
501 758 m 1
 281 758 l 1
 281 1556 l 1
 501 1556 l 1
 501 758 l 1
501 -392 m 1
 281 -392 l 1
 281 406 l 1
 501 406 l 1
 501 -392 l 1
EndSplineSet
EndChar

StartChar: section
Encoding: 167 167 106
Width: 1118
Flags: W
HStem: -404 200<279.834 691.615> -338 221<156 284.552> 1252 221<832.039 962> 1339 200<422.174 834.038>
VStem: 103 220<450.538 706.987> 132 220<1062.59 1276.44> 765 220<-139.153 78.2885> 794 220<423.176 678.244>
DStem2: 527 995 452 802 0.962064 -0.272824<-47.6195 316.226> 497 384 456 177 0.955286 -0.295684<-170.596 203.699>
LayerCount: 2
Back
SplineSet
667 315 m 1x09
 700 335 810 411 810 555 c 0
 810 711 707 745 549 788 c 1
 450 819 l 1
 324 741 308 624 308 579 c 0
 308 444 385 402 492 369 c 2
 667 315 l 1x09
490 -385 m 0x92
 368 -385 263 -360 172 -327 c 1
 172 -133 l 1
 182 -133 l 1x42
 245 -166 370 -220 509 -220 c 0
 618 -220 776 -183 776 -36 c 0
 776 76 711 121 594 154 c 2
 460 192 l 2
 287 242 119 308 119 533 c 0x8a
 119 611 144 752 318 858 c 1
 318 865 l 1
 249 902 148 978 148 1147 c 0
 148 1320 268 1519 628 1519 c 0x94
 755 1519 848 1497 946 1462 c 1
 946 1268 l 1
 936 1268 l 1x24
 765 1354 660 1355 607 1355 c 0
 470 1355 340 1302 340 1176 c 0
 340 1036 430 1000 657 942 c 1
 863 887 998 805 998 601 c 0x15
 998 516 973 381 799 277 c 1
 799 270 l 1
 872 231 969 158 969 -10 c 0
 969 -160 866 -385 490 -385 c 0x92
EndSplineSet
Fore
SplineSet
665 332 m 1x09
 703 356 794 428 794 555 c 3
 794 699 703 724 545 773 c 2
 452 802 l 1
 337 727 323 620 323 579 c 3
 323 453 391 417 497 384 c 2
 665 332 l 1x09
932 1252 m 1x24
 765 1336 659 1339 607 1339 c 3
 471 1339 352 1287 352 1176 c 3
 352 1078 412 1028 527 995 c 2
 661 957 l 2
 869 898 1014 815 1014 601 c 3x15
 1014 515 989 380 825 274 c 1
 899 231 985 151 985 -10 c 3
 985 -168 874 -404 490 -404 c 3x92
 361 -404 252 -373 156 -338 c 1
 156 -117 l 1
 186 -117 l 1x42
 249 -150 372 -204 509 -204 c 3
 618 -204 765 -167 765 -36 c 3
 765 67 705 107 590 139 c 2
 456 177 l 2
 283 227 103 296 103 533 c 3x8a
 103 612 130 754 293 861 c 1
 222 903 132 985 132 1147 c 3
 132 1329 261 1539 628 1539 c 3x94
 762 1539 860 1510 962 1473 c 1
 962 1252 l 1
 932 1252 l 1x24
EndSplineSet
EndChar

StartChar: dieresis
Encoding: 168 168 107
Width: 1118
Flags: W
HStem: 1288 227<237 470 650 883>
VStem: 237 233<1288 1515> 650 233<1288 1515>
LayerCount: 2
Fore
SplineSet
883 1288 m 1
 650 1288 l 1
 650 1515 l 1
 883 1515 l 1
 883 1288 l 1
470 1288 m 1
 237 1288 l 1
 237 1515 l 1
 470 1515 l 1
 470 1288 l 1
EndSplineSet
EndChar

StartChar: copyright
Encoding: 169 169 108
Width: 1902
Flags: W
HStem: -226 142<713.827 1188.17> 164 200<837.592 1157.62> 245 226<1192.55 1290> 852 228<1191.93 1290> 959 200<837.874 1155.16> 1393 142<705.565 1196.44>
VStem: 70 148<408.797 901.126> 515 220<469.957 849.929> 1684 148<408.797 901.126>
LayerCount: 2
Back
SplineSet
1816 655 m 0x8780
 1816 169 1430 -210 951 -210 c 0
 465 -210 86 176 86 655 c 0
 86 1152 483 1519 951 1519 c 0
 1441 1519 1816 1130 1816 655 c 0x8780
1701 655 m 0
 1701 1088 1359 1409 952 1409 c 0
 527 1409 203 1070 203 655 c 0
 203 221 546 -100 952 -100 c 0
 1375 -100 1701 237 1701 655 c 0
986 327 m 0xcf80
 1124 327 1238 416 1258 434 c 1
 1274 434 l 1
 1274 255 l 1xa780
 1136 194 1076 180 982 180 c 0
 781 180 531 276 531 660 c 0
 531 973 718 1143 982 1143 c 0xcf80
 1099 1143 1202 1106 1274 1070 c 1
 1274 889 l 1
 1258 889 l 1x9780
 1203 937 1095 996 986 996 c 0
 878 996 716 948 716 660 c 0
 716 375 878 327 986 327 c 0xcf80
EndSplineSet
Fore
SplineSet
1832 655 m 3x8780
 1832 173 1433 -226 951 -226 c 3
 469 -226 70 173 70 655 c 3
 70 1136 469 1535 951 1535 c 3
 1433 1535 1832 1136 1832 655 c 3x8780
1684 655 m 3
 1684 1061 1354 1393 951 1393 c 3
 548 1393 218 1061 218 655 c 3
 218 250 547 -84 951 -84 c 3
 1355 -84 1684 250 1684 655 c 3
1252 852 m 1x9780
 1198 899 1093 959 986 959 c 3
 887 959 735 918 735 660 c 3
 735 405 887 364 986 364 c 3xcf80
 1122 364 1230 452 1252 471 c 1
 1290 471 l 1
 1290 245 l 1xa780
 1153 185 1079 164 982 164 c 3
 776 164 515 266 515 660 c 3
 515 981 710 1159 982 1159 c 3xcf80
 1108 1159 1213 1118 1290 1080 c 1
 1290 852 l 1
 1252 852 l 1x9780
EndSplineSet
EndChar

StartChar: ordfeminine
Encoding: 170 170 109
Width: 1010
Flags: W
HStem: 525 200<345.578 592.28> 999 200<391.943 670> 1286 200<173 403.205> 1335 200<223.5 642.738>
VStem: 98 220<753.592 937.111> 670 220<550 625 785.535 999 1197.11 1300.85>
LayerCount: 2
Back
SplineSet
483 1519 m 0xdc
 778 1519 874 1389 874 1194 c 2
 874 566 l 1
 708 566 l 1
 708 657 l 1
 657 618 l 1
 559 548 472 541 404 541 c 0
 238 541 114 662 114 839 c 0
 114 1115 340 1166 708 1184 c 1
 708 1203 l 2
 708 1333 631 1365 482 1365 c 0xdc
 425 1365 368 1361 204 1304 c 1
 189 1304 l 1
 189 1474 l 1xec
 221 1484 365 1519 483 1519 c 0xdc
461 696 m 0
 509 696 586 702 708 802 c 1
 708 1045 l 1
 500 1030 286 1031 286 849 c 0
 286 770 323 696 461 696 c 0
EndSplineSet
Fore
SplineSet
173 1486 m 1xec
 216 1499 352 1535 483 1535 c 3
 785 1535 890 1397 890 1194 c 2
 890 550 l 1
 670 550 l 1
 670 625 l 1
 597 549 481 525 404 525 c 3
 229 525 98 654 98 839 c 3
 98 1126 314 1180 670 1199 c 1
 670 1306 610 1335 482 1335 c 3xdc
 427 1335 369 1330 207 1286 c 1
 173 1286 l 1
 173 1486 l 1xec
461 725 m 3
 506 725 577 730 670 823 c 1
 670 999 l 1
 476 985 318 978 318 849 c 3
 318 790 347 725 461 725 c 3
EndSplineSet
EndChar

StartChar: guillemotleft
Encoding: 171 171 110
Width: 1174
Flags: W
DStem2: 87 704 306 652 0.753437 0.65752<130.812 562.88> 306 652 87 601 0.752749 -0.658308<0 432.072> 539 702 751 652 0.75905 0.651032<128.367 535.329> 751 652 539 603 0.758329 -0.651872<0 406.963>
LayerCount: 2
Fore
SplineSet
1059 156 m 1
 539 603 l 1
 539 702 l 1
 1059 1148 l 1
 1059 918 l 1
 751 652 l 1
 1059 386 l 1
 1059 156 l 1
629 127 m 1
 87 601 l 1
 87 704 l 1
 629 1177 l 1
 629 939 l 1
 306 652 l 1
 629 365 l 1
 629 127 l 1
EndSplineSet
EndChar

StartChar: logicalnot
Encoding: 172 172 111
Width: 1490
Flags: W
HStem: 578 200<141 1119>
VStem: 1119 220<41 578>
LayerCount: 2
Fore
SplineSet
1339 41 m 1
 1119 41 l 1
 1119 578 l 1
 141 578 l 1
 141 778 l 1
 1339 778 l 1
 1339 41 l 1
EndSplineSet
EndChar

StartChar: registered
Encoding: 174 174 113
Width: 1902
Flags: W
HStem: -226 142<713.827 1188.17> 554 200<854 930> 946 200<854 1085.3> 1393 142<705.565 1196.44>
VStem: 70 148<408.797 901.126> 634 220<199 554 754 946> 1098 220<784.564 928.707> 1684 148<408.797 901.126>
DStem2: 1149 619 930 554 0.62242 -0.782684<0 368.562>
LayerCount: 2
Back
SplineSet
1816 655 m 0
 1816 169 1430 -210 951 -210 c 0
 465 -210 86 176 86 655 c 0
 86 1152 483 1519 951 1519 c 0
 1441 1519 1816 1130 1816 655 c 0
1701 655 m 0
 1701 1088 1359 1409 952 1409 c 0
 527 1409 203 1070 203 655 c 0
 203 221 546 -100 952 -100 c 0
 1375 -100 1701 237 1701 655 c 0
1302 879 m 0
 1302 773 1253 676 1102 615 c 1
 1448 215 l 1
 1221 215 l 1
 938 570 l 1
 815 570 l 1
 815 215 l 1
 650 215 l 1
 650 1130 l 1
 929 1130 l 2
 1006 1130 1302 1146 1302 879 c 0
913 696 m 2
 1074 696 1120 765 1120 868 c 0
 1120 991 1024 1005 930 1005 c 2
 815 1005 l 1
 815 696 l 1
 913 696 l 2
EndSplineSet
Fore
SplineSet
1832 655 m 3
 1832 173 1433 -226 951 -226 c 3
 469 -226 70 173 70 655 c 3
 70 1136 469 1535 951 1535 c 3
 1433 1535 1832 1136 1832 655 c 3
1684 655 m 3
 1684 1061 1354 1393 951 1393 c 3
 548 1393 218 1061 218 655 c 3
 218 250 547 -84 951 -84 c 3
 1355 -84 1684 250 1684 655 c 3
1318 879 m 3
 1318 772 1270 682 1149 619 c 1
 1483 199 l 1
 1213 199 l 1
 930 554 l 1
 854 554 l 1
 854 199 l 1
 634 199 l 1
 634 1146 l 1
 929 1146 l 2
 1177 1146 1318 1062 1318 879 c 3
913 754 m 2
 1067 754 1098 815 1098 868 c 3
 1098 934 1025 946 930 946 c 2
 854 946 l 1
 854 754 l 1
 913 754 l 2
EndSplineSet
EndChar

StartChar: macron
Encoding: 175 175 114
Width: 1118
Flags: W
HStem: 1643 162<-16 1134>
LayerCount: 2
Fore
SplineSet
1134 1643 m 1
 -16 1643 l 1
 -16 1805 l 1
 1134 1805 l 1
 1134 1643 l 1
EndSplineSet
EndChar

StartChar: degree
Encoding: 176 176 115
Width: 964
Flags: W
HStem: 739 200<379.452 585.911> 1331 200<378.724 585.545>
VStem: 85 220<1012.94 1256.67> 659 220<1012.53 1258.1>
LayerCount: 2
Fore
SplineSet
482 1531 m 3
 703 1531 879 1363 879 1135 c 3
 879 908 704 739 482 739 c 3
 262 739 85 905 85 1135 c 3
 85 1362 260 1531 482 1531 c 3
482 939 m 3
 576 939 659 1037 659 1135 c 3
 659 1244 567 1331 482 1331 c 3
 391 1331 305 1238 305 1135 c 3
 305 1024 401 939 482 939 c 3
EndSplineSet
EndChar

StartChar: plusminus
Encoding: 177 177 116
Width: 1490
Flags: W
HStem: 143 220<146 625 865 1344> 723 220<146 625 865 1344>
VStem: 625 240<363 723 943 1418>
LayerCount: 2
Fore
SplineSet
1344 143 m 1
 146 143 l 1
 146 363 l 1
 625 363 l 1
 625 723 l 1
 146 723 l 1
 146 943 l 1
 625 943 l 1
 625 1418 l 1
 865 1418 l 1
 865 943 l 1
 1344 943 l 1
 1344 723 l 1
 865 723 l 1
 865 363 l 1
 1344 363 l 1
 1344 143 l 1
EndSplineSet
EndChar

StartChar: uni00B2
Encoding: 178 178 117
Width: 1010
Flags: W
HStem: 534 200<450 819> 1318 200<416.292 585.86>
VStem: 175 220<1179 1294.99> 599 220<1120.67 1301.29>
LayerCount: 2
Fore
SplineSet
502 1518 m 3
 689 1518 818 1401 818 1233 c 3
 818 998 568 862 450 734 c 1
 819 734 l 1
 819 534 l 1
 150 534 l 1
 163 681 224 794 298 868 c 0
 439 1010 599 1105 599 1236 c 3
 599 1282 546 1318 501 1318 c 3
 421 1318 398 1266 395 1179 c 1
 175 1179 l 1
 175 1385 288 1518 502 1518 c 3
EndSplineSet
EndChar

StartChar: uni00B3
Encoding: 179 179 118
Width: 1010
Flags: W
HStem: 528 200<419.932 586.045> 946 200<390.268 552.013> 1318 200<421.421 554.274>
VStem: 168 220<756.332 863 1198 1289.59> 564 220<1161.39 1307.7> 608 220<751.392 921.44>
LayerCount: 2
Fore
SplineSet
828 845 m 3xf4
 828 661 681 528 490 528 c 3
 299 528 168 659 168 863 c 1
 388 863 l 1
 400 784 436 728 490 728 c 3
 572 728 608 780 608 842 c 3xf4
 608 900 559 946 480 946 c 3
 446 946 416 936 389 928 c 1
 389 1146 l 1
 531 1146 564 1165 564 1252 c 3
 564 1280 518 1318 490 1318 c 3
 428 1318 408 1273 400 1198 c 1
 180 1198 l 1
 180 1386 294 1518 485 1518 c 3
 649 1518 784 1411 784 1249 c 3xf8
 784 1170 769 1109 726 1068 c 1
 801 1027 828 945 828 845 c 3xf4
EndSplineSet
EndChar

StartChar: acute
Encoding: 180 180 119
Width: 1118
Flags: W
HStem: 1286 406
VStem: 424 478
LayerCount: 2
Back
SplineSet
871 1676 m 1
 598 1302 l 1
 449 1302 l 1
 628 1676 l 1
 871 1676 l 1
EndSplineSet
Fore
SplineSet
902 1692 m 1
 606 1286 l 1
 424 1286 l 1
 618 1692 l 1
 902 1692 l 1
EndSplineSet
EndChar

StartChar: mu
Encoding: 181 181 120
Width: 1163
Flags: W
HStem: -13 200<417.368 740.953>
VStem: 120 220<-412 91 255.474 1117> 823 220<0 99 255.874 1117>
LayerCount: 2
Fore
SplineSet
578 187 m 3
 684 187 757 228 823 297 c 1
 823 1117 l 1
 1043 1117 l 1
 1043 0 l 1
 823 0 l 1
 823 99 l 1
 721 -1 658 -13 578 -13 c 3
 483 -13 420 10 340 91 c 1
 340 -412 l 1
 120 -412 l 1
 120 1117 l 1
 340 1117 l 1
 340 297 l 1
 401 227 480 187 578 187 c 3
EndSplineSet
EndChar

StartChar: paragraph
Encoding: 182 182 121
Width: 1118
Flags: W
HStem: 1289 200<671 778>
VStem: 41 630<813.911 1242.18> 451 220<-363 566.389> 778 220<-363 1289>
LayerCount: 2
Fore
SplineSet
41 1034 m 0xd0
 41 1334 244 1489 512 1489 c 2
 998 1489 l 1
 998 -363 l 1
 778 -363 l 1
 778 1289 l 1
 671 1289 l 1
 671 -363 l 1
 451 -363 l 1
 451 562 l 1xb0
 225 575 41 756 41 1034 c 0xd0
EndSplineSet
EndChar

StartChar: periodcentered
Encoding: 183 183 122
Width: 724
Flags: W
HStem: 816 317<227 498>
VStem: 227 271<816 1133>
LayerCount: 2
Fore
SplineSet
498 816 m 1
 227 816 l 1
 227 1133 l 1
 498 1133 l 1
 498 816 l 1
EndSplineSet
EndChar

StartChar: cedilla
Encoding: 184 184 123
Width: 1118
Flags: W
HStem: -428 200<289.633 546.082> -400 206<273 437.751>
VStem: 569 220<-203.061 47>
LayerCount: 2
Fore
SplineSet
301 -194 m 1x60
 345 -214 392 -228 440 -228 c 3
 526 -228 569 -190 569 -96 c 3
 569 -51 567 -40 564 47 c 1
 782 47 l 1
 785 11 789 -44 789 -78 c 3
 789 -354 597 -428 466 -428 c 3xa0
 428 -428 341 -420 273 -400 c 1
 273 -194 l 1
 301 -194 l 1x60
EndSplineSet
EndChar

StartChar: uni0E01
Encoding: 3585 3585 124
Width: 1417
VWidth: 2045
Flags: W
HStem: 0 21G<260 480 1041 1262> 701 220<480 591> 1062 222<505.973 850.016>
VStem: 260 220<0 701> 1041 221<0 868.25>
LayerCount: 2
Fore
SplineSet
1041 700 m 2
 1041 909 875 1062 680 1062 c 0
 509 1062 417 951 395 921 c 1
 591 921 l 1
 591 701 l 1
 480 701 l 1
 480 0 l 1
 260 0 l 1
 260 701 l 1
 100 701 l 1
 100 1022 355 1284 682 1284 c 0
 990 1284 1262 1043 1262 702 c 2
 1262 0 l 1
 1041 0 l 1
 1041 700 l 2
EndSplineSet
EndChar

StartChar: uni0E02
Encoding: 3586 3586 125
Width: 1410
VWidth: 2045
Flags: W
HStem: 0 220<411 521 741 1035> 618 188<269.808 424.186> 982 287<297.325 580.368> 1234 20G<1035 1255>
VStem: 74 183<817.587 965.709> 437 185<819.297 969.249> 521 220<220 574.369> 686 218<716.39 1006.11> 1035 220<220 1254>
LayerCount: 2
Fore
SplineSet
489 1269 m 0xed80
 746 1269 904 1091 904 878 c 0xed80
 904 780 866 681 789 581 c 1
 757 535 741 483 741 425 c 2
 741 220 l 1
 1035 220 l 1
 1035 1254 l 1
 1255 1254 l 1
 1255 0 l 1
 411 0 l 1
 411 220 l 1
 521 220 l 1
 521 426 l 2xda80
 521 519 559 612 634 706 c 0
 669 750 686 802 686 861 c 0
 686 936 665 1029 552 1074 c 1
 599 1017 622 956 622 892 c 0
 622 737 498 618 348 618 c 0
 193 618 74 742 74 892 c 8
 74 1157 321 1269 489 1269 c 0xed80
348 982 m 0
 298 982 257 941 257 894 c 0
 257 841 297 806 351 806 c 0
 404 806 437 849 437 894 c 0
 437 946 394 982 348 982 c 0
EndSplineSet
EndChar

StartChar: uni0E03
Encoding: 3587 3587 126
Width: 1542
VWidth: 2045
Flags: W
HStem: 0 220<531 641 861 1165> 468 190<306.086 463.995> 834 184<317.277 457.64> 1244 10G<339 415.955 669.409 735.5 1165 1385>
VStem: 52 243<671.66 916.5> 475 187<668.483 821.129> 641 220<220 510.353> 818 214<701.579 1010.23> 1165 220<220 1254>
LayerCount: 2
Fore
SplineSet
641 365 m 2xfa80
 641 572 818 683 818 850 c 0
 818 962 785 1025 696 1076 c 1
 541 1000 l 1
 385 1073 l 1
 340 1064 318 1046 317 1018 c 1
 610 1018 662 848 662 746 c 0
 662 589 525 468 388 468 c 0
 303 468 52 540 52 860 c 8
 52 973 88 1066 157 1136 c 1
 226 1208 300 1250 378 1264 c 1
 545 1176 l 1
 706 1264 l 1
 765 1256 834 1216 912 1144 c 0
 993 1068 1032 972 1032 844 c 0xfd80
 1032 565 861 570 861 345 c 2
 861 220 l 1
 1165 220 l 1
 1165 1254 l 1
 1385 1254 l 1
 1385 0 l 1
 531 0 l 1
 531 220 l 1
 641 220 l 1
 641 365 l 2xfa80
386 834 m 0
 336 834 295 793 295 746 c 0
 295 693 335 658 389 658 c 0
 442 658 475 701 475 746 c 0
 475 798 432 834 386 834 c 0
EndSplineSet
EndChar

StartChar: uni0E04
Encoding: 3588 3588 127
Width: 1460
VWidth: 2045
Flags: W
HStem: 0 21G<141 369.049 1082 1303> 330 186<642.066 795.61> 694 184<640.918 797.068> 1062 222<550.606 891.016>
VStem: 141 220<452 866.835> 809 185<527.75 680.268> 1082 221<0 868.25>
LayerCount: 2
Fore
SplineSet
720 694 m 0
 669 694 629 653 629 606 c 0
 629 560 665 516 720 516 c 0
 776 516 809 561 809 606 c 0
 809 653 772 694 720 694 c 0
994 604 m 0
 994 449 870 330 720 330 c 0
 645 330 580 357 526 410 c 9
 361 0 l 17
 141 0 l 1
 141 702 l 2
 141 1039 414 1284 723 1284 c 0
 1031 1284 1303 1043 1303 702 c 2
 1303 0 l 1
 1082 0 l 1
 1082 700 l 2
 1082 909 916 1062 721 1062 c 0
 516 1062 361 899 361 702 c 2
 361 452 l 1
 474 726 l 2
 488 760 565 878 720 878 c 0
 875 878 994 754 994 604 c 0
EndSplineSet
EndChar

StartChar: uni0E05
Encoding: 3589 3589 128
Width: 1452
VWidth: 2045
Flags: W
HStem: 0 21G<141 369.049 1082 1303> 330 186<642.299 795.776> 694 184<644.013 796.967> 1264 20G<954.133 1102>
VStem: 141 220<452 960.78> 809 185<527.649 680.296> 1082 221<0 967.912>
LayerCount: 2
Fore
SplineSet
720 694 m 0
 670 694 629 653 629 606 c 0
 629 558 667 516 720 516 c 0
 773 516 809 560 809 606 c 0
 809 658 766 694 720 694 c 0
994 604 m 0
 994 449 870 330 720 330 c 0
 645 330 580 357 526 410 c 9
 361 0 l 17
 141 0 l 1
 141 782 l 2
 141 1010 226 1241 471 1286 c 1
 734 1134 l 1
 988 1284 l 1
 1216 1204 1303 1069 1303 782 c 2
 1303 0 l 1
 1082 0 l 1
 1082 780 l 2
 1082 925 1037 1010 946 1036 c 1
 724 917 l 1
 506 1036 l 1
 409 1013 361 929 361 782 c 2
 361 452 l 1
 474 726 l 2
 488 760 565 878 720 878 c 0
 875 878 994 754 994 604 c 0
EndSplineSet
EndChar

StartChar: uni0E06
Encoding: 3590 3590 129
Width: 1623
VWidth: 2045
Flags: W
HStem: -20 186<506.625 657.449> 0 21G<1218.94 1470> 344 188<503.408 659.444> 549 159<268.212 422.624> 884 150<304.835 423.072> 1254 0G<349 425.955 679.409 745.5 1250 1470>
VStem: 55 200<720.812 869.422> 308 183<180.508 328.114> 435 167<719.499 870.103> 671 214<177.81 235 522 576.508> 829 212<764.735 1037.75> 1250 220<226 1254>
DStem2: 885 448 885 235 0.840804 -0.54134<115.305 427.071>
LayerCount: 2
Fore
SplineSet
582 344 m 0xbf50
 531 344 491 303 491 256 c 0
 491 210 527 166 582 166 c 0
 638 166 671 211 671 256 c 0
 671 303 634 344 582 344 c 0xbf50
308 254 m 0
 308 435 456 532 582 532 c 0
 626 532 657 529 675 522 c 1
 675 662 829 764 829 888 c 0
 829 1065 708 1095 706 1096 c 1
 551 1020 l 1
 395 1093 l 1
 344 1078 314 1056 304 1026 c 1
 325 1032 345 1034 365 1034 c 0
 461 1034 602 958 602 810 c 0
 602 708 550 549 343 549 c 0
 160 549 55 685 55 838 c 8
 55 968 92 1070 164 1143 c 0
 235 1216 310 1260 388 1274 c 1
 555 1186 l 1
 716 1274 l 1
 775 1266 844 1226 922 1154 c 0
 1002 1080 1041 986 1041 871 c 0xbeb0
 1041 602 885 618 885 448 c 9
 1250 226 l 1
 1250 1254 l 1
 1470 1254 l 1
 1470 0 l 25
 1250 0 l 25x7e50
 885 235 l 17
 885 112 785 -20 598 -20 c 0
 414 -20 308 112 308 254 c 0
346 884 m 0
 296 884 255 843 255 796 c 0
 255 743 295 708 349 708 c 0
 402 708 435 751 435 796 c 0
 435 848 392 884 346 884 c 0
EndSplineSet
EndChar

StartChar: uni0E07
Encoding: 3591 3591 130
Width: 1081
VWidth: 2045
Flags: W
HStem: 0 21G<684 924> 726 186<572.613 703.199> 1090 184<573.285 726.967>
VStem: 376 183<924.876 1076.6> 704 220<262 731> 739 185<923.609 1074.54>
DStem2: 240 728 108 596 0.707107 -0.707107<0 657.609>
LayerCount: 2
Fore
SplineSet
650 1274 m 0xf8
 805 1274 924 1150 924 1000 c 10
 924 0 l 1xf4
 704 0 l 9
 108 596 l 1
 240 728 l 1
 704 262 l 25
 704 731 l 1
 687 728 669 726 650 726 c 0
 495 726 376 850 376 1000 c 0
 376 1155 500 1274 650 1274 c 0xf8
650 1090 m 0
 600 1090 559 1049 559 1002 c 0
 559 954 597 912 650 912 c 0
 703 912 739 956 739 1002 c 0
 739 1054 696 1090 650 1090 c 0
EndSplineSet
EndChar

StartChar: uni0E08
Encoding: 3592 3592 131
Width: 1368
VWidth: 2045
Flags: W
HStem: 0 21G<844.289 1072.22> 352 186<562.381 716.141> 716 184<563.177 715.077> 1064 220<495.322 819.182>
VStem: 106 220<732 888.824> 366 183<551.093 702.599> 990 220<603.656 891.372>
LayerCount: 2
Fore
SplineSet
658 1064 m 0
 473 1064 326 916 326 732 c 9
 106 732 l 17
 106 1053 366 1284 658 1284 c 0
 979 1284 1210 1024 1210 732 c 0
 1210 691 1206 651 1197 612 c 10
 1068 0 l 1
 848 0 l 1
 776 388 l 17
 735 364 690 352 640 352 c 0
 485 352 366 476 366 626 c 0
 366 781 490 900 640 900 c 0
 789 900 889 790 909 678 c 9
 946 485 l 1
 983 661 l 18
 988 684 990 707 990 732 c 0
 990 917 842 1064 658 1064 c 0
640 716 m 0
 589 716 549 675 549 628 c 0
 549 582 585 538 640 538 c 0
 696 538 729 583 729 628 c 0
 729 675 692 716 640 716 c 0
EndSplineSet
EndChar

StartChar: uni0E09
Encoding: 3593 3593 132
Width: 1466
VWidth: 2045
Flags: W
HStem: -20 186<1021.11 1175.61> 0 21G<405 651.898> 254 186<272.613 404.552> 618 184<273.285 426.967> 1064 220<492.448 823.032>
VStem: 76 183<452.876 604.599> 439 185<451.609 602.542> 992 220<483.359 892.662> 1189 185<177.75 331.543>
LayerCount: 2
Fore
SplineSet
658 1064 m 0x7f
 473 1064 378 925 350 859 c 9
 147 942 l 17
 222 1124 406 1284 658 1284 c 0
 968 1284 1212 1033 1212 732 c 2
 1212 505 l 17x7f
 1266 480 1374 405 1374 254 c 0
 1374 99 1250 -20 1100 -20 c 0xbe80
 946 -20 867 94 843 157 c 9
 624 0 l 9
 405 0 l 25
 405 259 l 1
 388 256 369 254 350 254 c 0
 195 254 76 378 76 528 c 0
 76 683 200 802 350 802 c 0
 505 802 624 678 624 528 c 2
 624 240 l 25
 931 470 l 2
 954 487 974 499 992 507 c 9
 992 729 l 2
 992 923 837 1064 658 1064 c 0x7f
1100 344 m 0
 1049 344 1009 303 1009 256 c 0
 1009 210 1045 166 1100 166 c 0
 1156 166 1189 211 1189 256 c 0xbe80
 1189 303 1152 344 1100 344 c 0
350 618 m 0
 300 618 259 577 259 530 c 0
 259 482 297 440 350 440 c 0
 403 440 439 484 439 530 c 0
 439 582 396 618 350 618 c 0
EndSplineSet
EndChar

StartChar: uni0E0A
Encoding: 3594 3594 133
Width: 1435
VWidth: 2045
Flags: W
HStem: 0 220<411 521 741 1035> 618 188<269.808 424.186> 982 287<297.325 580.368>
VStem: 74 183<817.587 965.709> 437 185<819.297 969.249> 521 220<220 574.369> 686 218<717.505 1006.11> 1035 220<220 751.312> 1143 219<1151.74 1368>
LayerCount: 2
Fore
SplineSet
489 1269 m 0xfa
 746 1269 904 1091 904 878 c 0xfa
 904 783 866 684 789 581 c 0
 757 538 741 486 741 425 c 2
 741 220 l 1
 1035 220 l 1
 1035 704 l 18xf5
 1035 739 1010 756 960 756 c 1
 960 976 l 1
 1054 1025 1143 1189 1143 1368 c 1
 1362 1368 l 1xf080
 1362 1172 1288 1003 1188 879 c 1
 1232 829 1254 770 1254 702 c 2
 1255 0 l 1
 411 0 l 1
 411 220 l 1
 521 220 l 1
 521 426 l 2xf5
 521 519 559 612 634 706 c 0
 669 750 686 802 686 861 c 0
 686 936 665 1029 552 1074 c 1
 599 1017 622 956 622 892 c 0
 622 737 498 618 348 618 c 0
 193 618 74 742 74 892 c 0
 74 1157 321 1269 489 1269 c 0xfa
348 982 m 0
 298 982 257 941 257 894 c 0
 257 841 297 806 351 806 c 0
 404 806 437 849 437 894 c 0
 437 946 394 982 348 982 c 0
EndSplineSet
EndChar

StartChar: uni0E0B
Encoding: 3595 3595 134
Width: 1572
VWidth: 2045
Flags: W
HStem: 0 220<531 641 861 1155> 468 190<307.671 463.046> 834 184<317.277 457.64> 1244 20G<327 415.955 669.409 735.5>
VStem: 52 243<671.811 951> 475 187<669.19 821.129> 641 220<220 510.166> 818 215<698.966 1011.13> 1155 220<220 751.312> 1263 219<1151.74 1368>
LayerCount: 2
Fore
SplineSet
1033 846 m 0xfd
 1033 572 861 566 861 345 c 2
 861 220 l 1
 1155 220 l 1
 1155 704 l 18xfa80
 1155 739 1130 756 1080 756 c 1
 1080 976 l 1
 1174 1025 1263 1189 1263 1368 c 1
 1482 1368 l 1xf840
 1482 1172 1408 1003 1308 879 c 1
 1352 829 1374 770 1374 702 c 2
 1375 0 l 1
 531 0 l 1
 531 220 l 1
 641 220 l 1
 641 365 l 2xfa80
 641 572 818 683 818 850 c 0
 818 962 785 1025 696 1076 c 1
 541 1000 l 1
 385 1073 l 1
 340 1064 318 1046 317 1018 c 1
 610 1018 662 848 662 746 c 0
 662 593 530 468 381 468 c 0
 303 468 52 544 52 857 c 0
 52 1136 276 1246 378 1264 c 1
 545 1176 l 1
 706 1264 l 1
 765 1256 834 1216 912 1144 c 0
 998 1065 1033 954 1033 846 c 0xfd
386 834 m 0
 336 834 295 793 295 746 c 0
 295 693 335 658 389 658 c 0
 442 658 475 701 475 746 c 0xfc
 475 798 432 834 386 834 c 0
1358 1362 m 1
EndSplineSet
EndChar

StartChar: uni0E0C
Encoding: 3596 3596 135
Width: 1940
VWidth: 2045
Flags: W
HStem: -10 186<410.027 563.61 1022.38 1174.77> 354 184<436.296 565.068> 701 220<435 546> 1062 222<501.127 845.238> 1234 20G<1552 1772>
VStem: 214 183<189.812 340.887> 215 220<533 701> 577 185<187.75 340.268> 826 183<189.093 340.615> 1036 221<516.248 868.25> 1552 220<240 1254>
LayerCount: 2
Fore
SplineSet
1100 354 m 0xe1e0
 1049 354 1009 313 1009 266 c 0
 1009 220 1045 176 1100 176 c 0
 1156 176 1189 221 1189 266 c 0
 1189 313 1152 354 1100 354 c 0xe1e0
488 354 m 0
 437 354 397 313 397 266 c 0xe5e0
 397 220 433 176 488 176 c 0
 544 176 577 221 577 266 c 0
 577 313 540 354 488 354 c 0
1036 700 m 2
 1036 908 871 1062 675 1062 c 0
 504 1062 413 952 390 921 c 1
 546 921 l 1
 546 701 l 1
 435 701 l 1
 435 533 l 17xf3e0
 452 536 469 538 488 538 c 0
 643 538 762 414 762 264 c 0
 762 109 638 -10 488 -10 c 0
 331 -10 214 115 214 264 c 2xf5e0
 215 701 l 1
 95 701 l 1
 95 1022 350 1284 677 1284 c 0xf3e0
 985 1284 1257 1043 1257 702 c 2
 1257 484 l 17
 1272 475 1284 466 1294 458 c 2
 1552 240 l 25
 1552 1254 l 1
 1772 1254 l 1xebe0
 1772 0 l 25
 1552 0 l 17
 1357 167 l 1
 1333 104 1254 -10 1100 -10 c 0
 945 -10 826 114 826 264 c 0
 826 409 930 506 1036 531 c 1
 1036 700 l 2
EndSplineSet
EndChar

StartChar: uni0E0D
Encoding: 3597 3597 136
Width: 1940
VWidth: 2045
Flags: W
HStem: -577 163<1301 1464.97> -207 134<1056.75 1210.08> -10 186<410.027 563.61> 0 220<1258 1552> 354 184<436.296 565.068> 701 220<435 546> 1062 222<501.127 847.251> 1234 20G<1552 1772>
VStem: 214 183<189.812 340.887> 215 220<533 701> 577 185<187.75 340.268> 911 133<-372.042 -221.616> 1038 220<220 864.928> 1552 220<220 1254>
LayerCount: 2
Fore
SplineSet
677 1284 m 0xee64
 996 1284 1256 1032 1258 703 c 1
 1258 220 l 17
 1552 220 l 9
 1552 1254 l 1
 1772 1254 l 1xdd6c
 1772 0 l 25
 1038 0 l 25
 1038 700 l 2
 1038 911 870 1062 675 1062 c 0
 504 1062 413 952 390 921 c 1
 546 921 l 1
 546 701 l 1
 435 701 l 1
 435 533 l 17xde6c
 452 536 469 538 488 538 c 0
 643 538 762 414 762 264 c 0
 762 109 638 -10 488 -10 c 0
 331 -10 214 115 214 264 c 2xeea4
 215 701 l 1
 95 701 l 1
 95 1022 350 1284 677 1284 c 0xee64
488 354 m 0
 437 354 397 313 397 266 c 0
 397 220 433 176 488 176 c 0xeca4
 544 176 577 221 577 266 c 0
 577 313 540 354 488 354 c 0
1301 -414 m 1
 1486 -422 1572 -270 1621 -154 c 1
 1764 -249 l 1
 1705 -374 1632 -460 1544 -507 c 0
 1458 -553 1365 -577 1267 -577 c 0
 1100 -577 1029 -525 994 -488 c 0
 939 -430 911 -368 911 -301 c 1xcc34
 914 -165 1008 -73 1135 -73 c 0
 1260 -73 1367 -179 1359 -294 c 0
 1355 -349 1336 -389 1301 -414 c 1
1134 -207 m 0
 1082 -207 1044 -249 1044 -296 c 0
 1044 -343 1082 -385 1134 -385 c 0
 1184 -385 1225 -343 1225 -296 c 0
 1225 -245 1180 -207 1134 -207 c 0
EndSplineSet
Substitution2: "'ccmp' Pali-Sanskrit Descender Removal" uni0E0D.descless
Substitution2: "Thai Descender Removal Single Substitution" uni0E0D.descless
EndChar

StartChar: uni0E0E
Encoding: 3598 3598 137
Width: 1493
VWidth: 2045
Flags: W
HStem: -626 186<444.613 602.755> -262 184<445.285 602.755> -10 186<240.506 394.503> 354 184<240.817 368.704> 701 220<590 701> 1062 222<565.973 910.016>
VStem: 43 185<188.634 341.064> 248 183<-427.124 -275.401> 370 220<533 701> 408 183<189.458 340.887> 1101 221<-277 868.25>
DStem2: 585 -414 716 -546 0.699805 0.714334<-61.8377 87.9018 274.372 410.355>
AnchorPoint: "BelowBase" 1176 -661 basechar 0
LayerCount: 2
Fore
SplineSet
742 1284 m 0xfea0
 1050 1284 1322 1043 1322 702 c 2
 1322 -321 l 25
 969 -668 l 1
 779 -481 l 25
 716 -546 l 1
 662 -599 597 -626 522 -626 c 0
 367 -626 248 -502 248 -352 c 0xff20
 248 -197 372 -78 522 -78 c 0
 597 -78 662 -105 716 -158 c 2
 777 -218 l 25
 873 -120 l 1
 1005 -251 l 1
 909 -349 l 17
 969 -408 l 17
 1101 -277 l 25
 1101 700 l 2
 1101 909 935 1062 740 1062 c 0
 569 1062 477 951 455 921 c 1
 701 921 l 1
 701 701 l 1
 590 701 l 1xfea0
 591 264 l 2xfe60
 591 114 472 -10 317 -10 c 0
 162 -10 43 114 43 264 c 0
 43 419 167 538 317 538 c 0
 336 538 353 536 370 533 c 9
 370 701 l 1
 160 701 l 1
 160 1022 415 1284 742 1284 c 0xfea0
431 -350 m 0
 431 -398 469 -440 522 -440 c 0
 547 -440 568 -431 585 -414 c 2
 647 -350 l 25
 585 -288 l 2
 568 -271 547 -262 522 -262 c 0
 472 -262 431 -303 431 -350 c 0
317 176 m 0
 371 176 408 219 408 266 c 0xfe60
 408 313 368 354 317 354 c 0
 270 354 228 317 228 266 c 0
 228 221 261 176 317 176 c 0
EndSplineSet
EndChar

StartChar: uni0E0F
Encoding: 3599 3599 138
Width: 1493
VWidth: 2045
Flags: W
HStem: -610 188<247.613 405.729> -244 182<248.303 405.729> -10 186<240.506 394.503> 354 184<240.817 368.704> 701 220<590 701> 1062 222<565.973 910.016>
VStem: 51 183<-406.87 -258.401 187.07 342.564> 370 220<533 701> 408 183<189.458 340.887> 1101 221<-277 868.25>
AnchorPoint: "BelowBase" 1065 -661 basechar 0
LayerCount: 2
Fore
SplineSet
51 -336 m 0xff40
 51 -181 175 -62 325 -62 c 0
 400 -62 465 -89 518 -142 c 1
 580 -202 l 25
 646 -134 l 1
 778 -265 l 1
 712 -333 l 17
 750 -371 l 25
 882 -241 l 9
 1009 -368 l 1
 1101 -277 l 25
 1101 700 l 2
 1101 909 935 1062 740 1062 c 0
 569 1062 477 951 455 921 c 1
 701 921 l 1
 701 701 l 1
 590 701 l 1xff40
 591 264 l 2xfec0
 591 114 472 -10 317 -10 c 0
 162 -10 43 114 43 264 c 0
 43 419 167 538 317 538 c 0
 336 538 353 536 370 533 c 9
 370 701 l 1
 160 701 l 1
 160 1022 415 1284 742 1284 c 0
 1050 1284 1322 1043 1322 702 c 2
 1322 -321 l 25
 1009 -628 l 1
 883 -501 l 17
 750 -634 l 25
 582 -465 l 9
 518 -530 l 2
 465 -583 400 -610 325 -610 c 0
 170 -610 51 -486 51 -336 c 0xff40
234 -332 m 0
 234 -380 272 -422 325 -422 c 0
 350 -422 371 -413 388 -396 c 2
 450 -332 l 25
 388 -270 l 2
 371 -253 350 -244 326 -244 c 0
 275 -244 234 -285 234 -332 c 0
317 176 m 0
 371 176 408 219 408 266 c 0xfec0
 408 313 368 354 317 354 c 0
 270 354 228 317 228 266 c 0
 228 221 261 176 317 176 c 0
EndSplineSet
EndChar

StartChar: uni0E10
Encoding: 3600 3600 139
Width: 1245
VWidth: 2045
Flags: W
HStem: -807 134<51.0592 203.021> -521 133<715.818 838.433> -494 134<50.5561 202.828> -210 134<716.701 869.465> 0 21G<691.958 920.888> 132 186<404.116 555.706> 496 184<403.177 555.554> 732 186<384 772.629> 1064 220<494.601 820.816>
VStem: -98 134<-659.602 -506.925> 206 183<330.739 482.599> 569 134<-373.115 -222.999> 795 216<544.727 717.719> 883 136<-375.988 -223.591>
LayerCount: 2
Fore
SplineSet
106 732 m 1x9ff8
 106 1053 366 1284 658 1284 c 0
 925 1284 1118 1104 1184 902 c 9
 980 818 l 17
 955 913 851 1064 658 1064 c 0
 494 1064 407 954 384 918 c 1
 737 918 l 2
 892 918 1011 794 1011 644 c 1
 918 0 l 1
 698 0 l 1
 640 192 l 17
 600 145 531 132 472 132 c 0
 330 132 206 254 206 406 c 0
 206 561 330 680 480 680 c 0
 649 680 736 540 759 458 c 10
 776 400 l 1
 793 601 l 18
 794 619 795 631 795 637 c 0
 795 641 784 732 704 732 c 2
 106 732 l 1x9ff8
480 496 m 0
 429 496 389 455 389 408 c 0
 389 362 425 318 480 318 c 0
 536 318 569 363 569 408 c 0
 569 455 532 496 480 496 c 0
793 -76 m 0
 922 -76 1019 -179 1019 -299 c 2
 1019 -603 l 25
 744 -875 l 1
 628 -760 l 1
 515 -873 l 1
 332 -695 l 1
 287 -740 l 2
 241 -785 188 -807 127 -807 c 0
 -1 -807 -98 -704 -98 -583 c 0
 -98 -463 -3 -360 127 -360 c 0xbff4
 188 -360 241 -382 285 -426 c 2
 332 -474 l 1
 439 -369 l 1
 550 -477 l 1
 444 -583 l 1
 515 -654 l 1
 628 -541 l 1
 744 -656 l 1
 839 -562 l 1
 839 -518 l 1
 824 -520 808 -521 793 -521 c 0xdff4
 669 -521 569 -423 569 -299 c 0
 569 -180 663 -76 793 -76 c 0
794 -210 m 0
 742 -210 703 -251 703 -298 c 0
 703 -345 742 -388 794 -388 c 0xdff4
 848 -388 883 -342 883 -298 c 0
 883 -251 846 -210 794 -210 c 0
126 -494 m 0xbff0
 74 -494 36 -536 36 -583 c 0
 36 -634 80 -673 126 -673 c 0
 173 -673 216 -635 216 -583 c 0
 216 -535 177 -494 126 -494 c 0xbff0
EndSplineSet
Substitution2: "'ccmp' Pali-Sanskrit Descender Removal" uni0E10.descless
Substitution2: "Thai Descender Removal Single Substitution" uni0E10.descless
EndChar

StartChar: uni0E11
Encoding: 3601 3601 140
Width: 1835
VWidth: 2045
Flags: W
HStem: 0 21G<641 966 1431 1651> 468 190<308.062 461.734> 834 184<317.277 457.64> 996 263<1311.26 1426.62>
VStem: 52 243<672.34 909.5> 475 187<669.544 821.129> 641 220<264 510.801> 818 215<686.51 1011.52> 1431 220<0 986.197>
LayerCount: 2
Fore
SplineSet
1033 879 m 0xed80
 1033 643 861 564 861 345 c 2
 861 264 l 17
 1209 948 1045 801 1189 1133 c 16
 1225 1216 1292 1258 1391 1259 c 1
 1547 1259 1653 1186 1651 966 c 9
 1651 0 l 1
 1431 0 l 1
 1431 936 l 2
 1431 975 1412 995 1373 996 c 0
 1336 997 1311 972 1299 921 c 1
 1266 742 1046 182 886 0 c 9
 641 0 l 25
 641 363 l 2xda80
 641 532 818 641 818 850 c 0
 818 962 785 1025 696 1076 c 1
 541 1000 l 1
 385 1073 l 1
 340 1064 318 1046 317 1018 c 1
 610 1018 662 848 662 746 c 0
 662 595 533 468 386 468 c 0
 299 468 52 546 52 857 c 0
 52 962 81 1058 157 1136 c 0
 226 1208 300 1250 378 1264 c 1
 545 1176 l 1
 706 1264 l 1
 765 1256 834 1216 912 1144 c 0
 990 1071 1033 985 1033 879 c 0xed80
386 834 m 0xec80
 336 834 295 793 295 746 c 0
 295 694 335 658 389 658 c 0
 442 658 475 701 475 746 c 0
 475 798 432 834 386 834 c 0xec80
EndSplineSet
EndChar

StartChar: uni0E12
Encoding: 3602 3602 141
Width: 1987
VWidth: 2045
Flags: W
HStem: -10 186<1067.38 1219.77> 706 193<601.239 752.916> 1254 10G<954.133 1102.5 1597 1817>
VStem: 141 220<242 966.304> 405 182<541.078 692.054> 767 186<539.782 691.245> 871 183<189.093 340.843> 1081 221<516.611 968.244> 1597 220<240 1254>
LayerCount: 2
Fore
SplineSet
1145 354 m 0xfb80
 1094 354 1054 313 1054 266 c 0
 1054 220 1090 176 1145 176 c 0
 1201 176 1234 221 1234 266 c 0
 1234 317 1192 354 1145 354 c 0xfb80
871 264 m 0
 871 410 978 507 1081 531 c 1
 1081 779 l 2
 1081 925 1036 1011 946 1036 c 1
 724 917 l 1
 506 1036 l 1
 409 1013 361 929 361 782 c 2
 361 242 l 9
 536 392 l 1
 415 460 405 586 405 632 c 0
 405 776 544 899 679 899 c 0
 819 899 953 774 953 618 c 0xfd80
 953 538 926 470 873 414 c 8
 699 233 528 95 361 0 c 17
 141 0 l 1
 141 782 l 2
 141 910 168 1021 220 1114 c 1
 274 1207 357 1265 471 1286 c 1
 734 1134 l 1
 988 1284 l 1
 1217 1203 1302 1070 1302 781 c 2
 1302 484 l 17
 1317 475 1329 466 1338 458 c 2
 1597 240 l 25
 1597 1254 l 1
 1817 1254 l 1
 1817 0 l 25
 1597 0 l 17
 1402 167 l 1
 1378 104 1299 -10 1145 -10 c 0
 990 -10 871 114 871 264 c 0
678 706 m 0
 627 706 587 665 587 618 c 0
 587 572 623 528 678 528 c 0
 734 528 767 573 767 618 c 0
 767 665 730 706 678 706 c 0
EndSplineSet
EndChar

StartChar: uni0E13
Encoding: 3603 3603 142
Width: 2038
VWidth: 2045
Flags: W
HStem: -10 186<420.26 573.776 1640.31 1795.79> 354 184<445.615 574.967> 701 220<445 556> 1062 222<511.127 856.859> 1234 20G<1562 1782.03>
VStem: 224 183<189.812 340.887> 225 220<533 701> 587 185<187.649 340.296> 1047 220<240 868.604> 1562 221<516.611 1254> 1809 184<186.649 337.735>
LayerCount: 2
Fore
SplineSet
1720 352 m 0xe1e0
 1670 352 1629 311 1629 264 c 0
 1629 216 1667 174 1720 174 c 0
 1773 174 1809 218 1809 264 c 0
 1809 309 1773 352 1720 352 c 0xe1e0
498 354 m 0
 448 354 407 313 407 266 c 0xe5e0
 407 218 445 176 498 176 c 0
 551 176 587 220 587 266 c 0
 587 318 544 354 498 354 c 0
687 1284 m 0xf3e0
 994 1284 1267 1044 1267 702 c 2
 1267 240 l 9
 1526 458 l 2
 1535 466 1547 475 1562 484 c 1
 1562 1254 l 1
 1782 1254 l 9xebe0
 1783 531 l 17
 1886 507 1993 410 1993 264 c 0
 1993 109 1869 -10 1719 -10 c 0
 1565 -10 1486 104 1462 167 c 1
 1267 0 l 9
 1047 0 l 25
 1046 700 l 18
 1046 916 872 1062 685 1062 c 0
 514 1062 423 952 400 921 c 1
 556 921 l 1
 556 701 l 1
 445 701 l 1
 445 533 l 17xf3e0
 462 536 479 538 498 538 c 0
 653 538 772 414 772 264 c 0
 772 109 648 -10 498 -10 c 0
 341 -10 224 115 224 264 c 2xf5e0
 225 701 l 1
 105 701 l 1
 105 1022 360 1284 687 1284 c 0xf3e0
1832 -392 m 0
EndSplineSet
EndChar

StartChar: uni0E14
Encoding: 3604 3604 143
Width: 1443
VWidth: 2045
Flags: W
HStem: 0 21G<141 458.5 1082 1303> 686 196<640.101 794.936> 1062 222<550.606 891.016>
VStem: 141 220<242 866.835> 445 182<521.078 673.069> 807 186<519.815 671.677> 1082 221<0 868.25>
LayerCount: 2
Fore
SplineSet
718 686 m 0
 667 686 627 645 627 598 c 0
 627 552 663 508 718 508 c 0
 774 508 807 553 807 598 c 0
 807 645 770 686 718 686 c 0
719 882 m 0
 853 882 993 756 993 598 c 0
 993 513 966 445 913 394 c 8
 740 231 556 100 361 0 c 17
 141 0 l 1
 141 702 l 2
 141 1039 414 1284 723 1284 c 0
 1031 1284 1303 1043 1303 702 c 2
 1303 0 l 1
 1082 0 l 1
 1082 700 l 2
 1082 909 916 1062 721 1062 c 0
 516 1062 361 899 361 702 c 2
 361 242 l 9
 576 372 l 1
 455 440 445 566 445 612 c 0
 445 762 594 882 719 882 c 0
EndSplineSet
EndChar

StartChar: uni0E15
Encoding: 3605 3605 144
Width: 1453
VWidth: 2045
Flags: W
HStem: 0 21G<141 458.5 1082 1303> 686 193<641.239 792.916> 1264 20G<954.133 1102>
VStem: 141 220<242 960.78> 445 182<521.078 672.054> 807 186<519.815 671.245> 1082 221<0 967.912>
LayerCount: 2
Fore
SplineSet
988 1284 m 1
 1216 1204 1303 1069 1303 782 c 2
 1303 0 l 1
 1082 0 l 1
 1082 780 l 2
 1082 925 1037 1010 946 1036 c 1
 724 917 l 1
 506 1036 l 1
 409 1013 361 929 361 782 c 2
 361 242 l 9
 576 372 l 1
 455 440 445 566 445 612 c 0
 445 756 584 879 719 879 c 0
 859 879 993 754 993 598 c 0
 993 513 966 445 913 394 c 8
 740 231 556 100 361 0 c 17
 141 0 l 1
 141 782 l 2
 141 1010 226 1241 471 1286 c 1
 734 1134 l 1
 988 1284 l 1
718 686 m 0
 667 686 627 645 627 598 c 0
 627 552 663 508 718 508 c 0
 774 508 807 553 807 598 c 0
 807 645 770 686 718 686 c 0
EndSplineSet
EndChar

StartChar: uni0E16
Encoding: 3606 3606 145
Width: 1412
VWidth: 2045
Flags: W
HStem: -10 186<458.381 611.61> 354 184<484.296 613.068> 701 220<483 591> 1062 222<505.973 850.016>
VStem: 262 183<189.458 340.887> 263 220<533 701> 625 185<187.75 340.268> 1041 221<0 868.25>
LayerCount: 2
Fore
SplineSet
536 354 m 0xfb
 485 354 445 313 445 266 c 0
 445 220 481 176 536 176 c 0
 592 176 625 221 625 266 c 0
 625 313 588 354 536 354 c 0xfb
536 -10 m 0
 381 -10 262 114 262 264 c 2xfb
 263 701 l 1
 100 701 l 1
 100 1022 355 1284 682 1284 c 0
 990 1284 1262 1043 1262 702 c 2
 1262 0 l 1
 1041 0 l 1
 1041 700 l 2
 1041 909 875 1062 680 1062 c 0
 509 1062 417 951 395 921 c 1
 591 921 l 1
 591 701 l 1
 483 701 l 1
 483 533 l 17xf7
 500 536 517 538 536 538 c 0
 691 538 810 414 810 264 c 0
 810 109 686 -10 536 -10 c 0
EndSplineSet
EndChar

StartChar: uni0E17
Encoding: 3607 3607 146
Width: 1547
VWidth: 2045
Flags: W
HStem: 0 21G<414 642.728 1171 1391> 726 186<282.613 413.199> 996 263<1050.13 1168.24> 1090 184<283.285 436.96>
VStem: 86 183<924.876 1076.6> 414 220<463 731> 449 185<923.609 1074.54> 1171 220<0 986.197>
DStem2: 634 463 634 0 0.399959 0.916533<0 679.522>
LayerCount: 2
Fore
SplineSet
360 1274 m 0xdd
 515 1274 634 1150 634 1000 c 2xdb
 634 463 l 25xdd
 929 1133 l 18
 965 1216 1032 1259 1131 1259 c 0
 1287 1259 1393 1186 1391 966 c 9
 1391 0 l 1
 1171 0 l 1
 1171 936 l 2
 1171 977 1152 996 1113 996 c 0
 1083 996 1062 980 1049 951 c 2
 634 0 l 1xeb
 414 0 l 9
 414 731 l 1
 397 728 379 726 360 726 c 0
 205 726 86 850 86 1000 c 0
 86 1155 210 1274 360 1274 c 0xdd
360 1090 m 0
 310 1090 269 1049 269 1002 c 0
 269 954 307 912 360 912 c 0
 413 912 449 956 449 1002 c 0
 449 1049 411 1090 360 1090 c 0
EndSplineSet
EndChar

StartChar: uni0E18
Encoding: 3608 3608 147
Width: 1228
VWidth: 2045
Flags: W
HStem: 0 220<191 302 522 793> 732 186<522 779.576> 1064 220<494.601 820.816>
VStem: 302 220<220 732> 793 218<213 718.542>
LayerCount: 2
Fore
SplineSet
522 732 m 25
 522 212 l 9
 793 213 l 25
 791 648 l 2
 791 704 762 732 704 732 c 2
 522 732 l 25
737 918 m 2
 892 918 1011 794 1011 644 c 10
 1011 0 l 17
 191 0 l 1
 191 220 l 1
 302 220 l 1
 302 732 l 25
 106 732 l 1
 106 1053 366 1284 658 1284 c 0
 925 1284 1118 1104 1184 902 c 9
 980 818 l 17
 955 913 851 1064 658 1064 c 0
 494 1064 407 954 384 918 c 1
 737 918 l 2
EndSplineSet
EndChar

StartChar: uni0E19
Encoding: 3609 3609 148
Width: 1603
VWidth: 2045
Flags: W
HStem: -10 184<1130.59 1282.28> 726 186<282.613 413.199> 1090 184<283.285 434.324> 1234 20G<1079.97 1300>
VStem: 86 183<924.876 1076.6> 414 220<230 731> 449 185<923.609 1073.48> 1079 221<524 1254> 1296 184<186.649 340.1>
LayerCount: 2
Fore
SplineSet
1208 352 m 0xc880
 1157 352 1116 311 1116 264 c 0
 1116 216 1154 174 1207 174 c 0
 1260 174 1296 218 1296 264 c 0
 1296 309 1260 352 1208 352 c 0xc880
1206 -10 m 0
 1130 -10 978 39 926 212 c 1
 634 0 l 1xda80
 414 0 l 9
 414 731 l 1xdc
 397 728 379 726 360 726 c 0
 205 726 86 850 86 1000 c 0
 86 1155 210 1274 360 1274 c 0
 519 1274 634 1147 634 1000 c 2xea
 634 230 l 25
 1079 524 l 17
 1080 1254 l 1
 1300 1254 l 9
 1300 531 l 17xdd
 1354 504 1480 424 1480 264 c 0
 1480 109 1356 -10 1206 -10 c 0
360 1090 m 0xea
 310 1090 269 1049 269 1002 c 0
 269 954 307 912 360 912 c 0
 413 912 449 956 449 1002 c 0
 449 1049 411 1090 360 1090 c 0xea
EndSplineSet
EndChar

StartChar: uni0E1A
Encoding: 3610 3610 149
Width: 1502
VWidth: 2045
Flags: W
HStem: 0 214<303 414 634 1114> 726 186<282.613 413.199> 1090 184<283.285 434.324> 1234 20G<1114 1333>
VStem: 86 183<924.876 1076.6> 414 220<214 731> 449 185<923.609 1073.48> 1114 219<214 1254>
LayerCount: 2
Fore
SplineSet
360 1274 m 0xed
 519 1274 634 1147 634 1000 c 2xeb
 634 214 l 25
 1114 214 l 25
 1114 1254 l 25
 1333 1254 l 25xdd
 1333 0 l 17
 303 0 l 1
 303 214 l 1
 414 214 l 9
 414 731 l 1
 397 728 379 726 360 726 c 0
 205 726 86 850 86 1000 c 0
 86 1155 210 1274 360 1274 c 0xed
360 1090 m 0
 310 1090 269 1049 269 1002 c 0
 269 954 307 912 360 912 c 0
 413 912 449 956 449 1002 c 0
 449 1049 411 1090 360 1090 c 0
EndSplineSet
EndChar

StartChar: uni0E1B
Encoding: 3611 3611 150
Width: 1508
VWidth: 2045
Flags: W
HStem: 0 214<303 414 634 1114> 726 186<282.613 413.199> 1090 184<283.285 434.324>
VStem: 86 183<924.876 1076.6> 414 220<214 731> 449 185<923.609 1073.48> 1114 219<214 1834>
AnchorPoint: "AboveBase" 993 1375 basechar 0
LayerCount: 2
Fore
SplineSet
360 1274 m 0xfa
 519 1274 634 1147 634 1000 c 2xf6
 634 214 l 25
 1114 214 l 25
 1114 1834 l 25
 1333 1834 l 25
 1333 0 l 17
 303 0 l 1
 303 214 l 1
 414 214 l 9
 414 731 l 1
 397 728 379 726 360 726 c 0
 205 726 86 850 86 1000 c 0
 86 1155 210 1274 360 1274 c 0xfa
360 1090 m 0
 310 1090 269 1049 269 1002 c 0
 269 954 307 912 360 912 c 0
 413 912 449 956 449 1002 c 0
 449 1049 411 1090 360 1090 c 0
EndSplineSet
EndChar

StartChar: uni0E1C
Encoding: 3612 3612 151
Width: 1393
VWidth: 2045
Flags: W
HStem: -0 21G<146 383.181 994.819 1232> 726 186<366.801 496.386> 1090 184<342.87 497.735> 1234 20G<1012 1232>
VStem: 146 219<284 731> 146 185<923.609 1074.19> 511 183<927.296 1075.64> 1012 220<284 1254>
DStem2: 365 284 366 0 0.650791 0.759257<0 280.708> 689 662 689 376 0.649631 -0.760249<217.431 497.205>
LayerCount: 2
Fore
SplineSet
694 1000 m 0xe7
 694 845 570 726 420 726 c 0
 401 726 383 728 366 731 c 1
 365 284 l 1
 689 662 l 1
 1012 284 l 1
 1012 1254 l 1
 1232 1254 l 1xdb
 1232 0 l 25
 1012 0 l 17
 689 376 l 1
 366 0 l 1
 146 -0 l 25
 146 1000 l 2
 146 1149 263 1274 420 1274 c 0
 575 1274 694 1150 694 1000 c 0xe7
420 912 m 0
 472 912 511 954 511 1002 c 0
 511 1053 466 1090 420 1090 c 0
 366 1090 331 1047 331 1002 c 0xe7
 331 956 367 912 420 912 c 0
EndSplineSet
EndChar

StartChar: uni0E1D
Encoding: 3613 3613 152
Width: 1393
VWidth: 2045
Flags: W
HStem: -0 21G<146 383.181 994.819 1232> 726 186<366.801 496.386> 1090 184<342.87 497.735>
VStem: 146 219<284 731> 146 185<923.609 1074.19> 511 183<927.296 1075.64> 1012 220<284 1834>
DStem2: 365 284 366 0 0.650791 0.759257<0 280.708> 689 662 689 376 0.649631 -0.760249<217.431 497.205>
AnchorPoint: "AboveBase" 903 1375 basechar 0
LayerCount: 2
Fore
SplineSet
694 1000 m 0xee
 694 845 570 726 420 726 c 0
 401 726 383 728 366 731 c 1
 365 284 l 1xf6
 689 662 l 1
 1012 284 l 1
 1012 1834 l 1
 1232 1834 l 1
 1232 0 l 25
 1012 0 l 17
 689 376 l 1
 366 0 l 1
 146 -0 l 25
 146 1000 l 2
 146 1149 263 1274 420 1274 c 0
 575 1274 694 1150 694 1000 c 0xee
420 912 m 0
 472 912 511 954 511 1002 c 0
 511 1053 466 1090 420 1090 c 0
 366 1090 331 1047 331 1002 c 0xee
 331 956 367 912 420 912 c 0
EndSplineSet
EndChar

StartChar: uni0E1E
Encoding: 3614 3614 153
Width: 1650
VWidth: 2045
Flags: W
HStem: 0 21G<414 641.331 1242.72 1470> 726 186<282.613 413.199> 1090 184<283.285 436.96> 1234 20G<877.43 1006.58 1250 1470>
VStem: 86 183<924.876 1076.6> 414 220<493 731> 449 185<923.609 1074.54> 1250 220<494 1254>
DStem2: 1000 1254 943 843 0.342191 -0.939631<366.683 799.667>
LayerCount: 2
Fore
SplineSet
360 1274 m 0xed
 515 1274 634 1150 634 1000 c 2xeb
 634 493 l 17xed
 884 1254 l 1
 1000 1254 l 1
 1250 494 l 1
 1250 1254 l 1
 1470 1254 l 1
 1470 0 l 1
 1250 0 l 1
 943 843 l 1
 634 0 l 1xdb
 414 0 l 9
 414 731 l 1
 397 728 379 726 360 726 c 0
 205 726 86 850 86 1000 c 0
 86 1155 210 1274 360 1274 c 0xed
360 1090 m 0
 310 1090 269 1049 269 1002 c 0
 269 954 307 912 360 912 c 0
 413 912 449 956 449 1002 c 0
 449 1049 411 1090 360 1090 c 0
EndSplineSet
EndChar

StartChar: uni0E1F
Encoding: 3615 3615 154
Width: 1652
VWidth: 2045
Flags: W
HStem: 0 21G<414 641.331 1242.72 1470> 726 186<282.613 413.199> 1090 184<283.285 436.96> 1234 20G<877.43 1006.58>
VStem: 86 183<924.876 1076.6> 414 220<493 731> 449 185<923.609 1074.54> 1250 220<494 1834>
DStem2: 1000 1254 943 843 0.342191 -0.939631<366.683 799.667>
AnchorPoint: "AboveBase" 1156 1375 basechar 0
LayerCount: 2
Fore
SplineSet
360 1274 m 0xed
 515 1274 634 1150 634 1000 c 2xeb
 634 493 l 17xed
 884 1254 l 1
 1000 1254 l 1
 1250 494 l 1
 1250 1834 l 1
 1470 1834 l 1
 1470 0 l 1
 1250 0 l 1
 943 843 l 1
 634 0 l 1xdb
 414 0 l 9
 414 731 l 1
 397 728 379 726 360 726 c 0
 205 726 86 850 86 1000 c 0
 86 1155 210 1274 360 1274 c 0xed
360 1090 m 0
 310 1090 269 1049 269 1002 c 0
 269 954 307 912 360 912 c 0
 413 912 449 956 449 1002 c 0
 449 1049 411 1090 360 1090 c 0
EndSplineSet
EndChar

StartChar: uni0E20
Encoding: 3616 3616 155
Width: 1501
VWidth: 2045
Flags: W
HStem: -10 186<240.506 394.503> 354 184<240.817 368.704> 701 220<590 701> 1062 222<565.973 910.016>
VStem: 43 185<188.634 341.064> 370 220<533 701> 408 183<189.458 340.887> 1101 219<0 868.25>
LayerCount: 2
Fore
SplineSet
317 176 m 0xfb
 371 176 408 219 408 266 c 0
 408 313 368 354 317 354 c 0
 270 354 228 317 228 266 c 0
 228 221 261 176 317 176 c 0xfb
742 1284 m 0
 1050 1284 1322 1043 1322 702 c 2
 1320 0 l 17
 1101 0 l 9
 1101 700 l 2
 1101 909 935 1062 740 1062 c 0
 569 1062 477 951 455 921 c 1
 701 921 l 1
 701 701 l 1
 590 701 l 1xfd
 591 264 l 2xfb
 591 114 472 -10 317 -10 c 0
 162 -10 43 114 43 264 c 0
 43 419 167 538 317 538 c 0
 336 538 353 536 370 533 c 9
 370 701 l 1xfd
 160 701 l 1
 160 1022 415 1284 742 1284 c 0
EndSplineSet
EndChar

StartChar: uni0E21
Encoding: 3617 3617 156
Width: 1422
VWidth: 2045
Flags: W
HStem: 0 186<282.381 434.795> 364 184<283.177 414.337> 726 186<282.613 413.199> 1090 184<283.285 436.96> 1234 20G<1036 1256>
VStem: 86 183<199.093 350.599 924.876 1076.6> 415 219<543 731> 449 185<923.609 1074.54> 1036 220<213 1254>
DStem2: 634 439 631 228 0.871403 -0.490568<100.896 461.172>
LayerCount: 2
Fore
SplineSet
360 1274 m 0xf680
 515 1274 634 1150 634 1000 c 2
 634 439 l 17
 1036 213 l 25
 1036 1254 l 1
 1256 1254 l 1xed80
 1256 0 l 1
 1036 0 l 1
 631 228 l 17
 612 112 510 0 360 0 c 0
 205 0 86 124 86 274 c 0
 86 429 210 548 360 548 c 0
 379 548 398 546 415 543 c 1
 414 731 l 1
 397 728 379 726 360 726 c 0
 205 726 86 850 86 1000 c 0
 86 1155 210 1274 360 1274 c 0xf680
360 364 m 0
 309 364 269 323 269 276 c 0
 269 230 305 186 360 186 c 0
 416 186 449 231 449 276 c 0
 449 323 412 364 360 364 c 0
360 1090 m 0xf580
 310 1090 269 1049 269 1002 c 0
 269 954 307 912 360 912 c 0
 413 912 449 956 449 1002 c 0
 449 1049 411 1090 360 1090 c 0xf580
EndSplineSet
EndChar

StartChar: uni0E22
Encoding: 3618 3618 157
Width: 1331
VWidth: 2045
Flags: W
HStem: 0 218<448 937> 420 218<463.298 722> 716 186<444.891 599.434> 1080 184<448.695 598.914>
VStem: 228 220<218 404.611> 612 186<913.922 1067.65> 937 220<218 1254>
LayerCount: 2
Fore
SplineSet
798 990 m 0
 798 838 675 716 524 716 c 0
 449 716 394 733 358 767 c 1
 358 756 368 638 519 638 c 2
 722 638 l 1
 722 420 l 1
 527 420 l 2
 514 420 448 392 448 327 c 2
 448 218 l 1
 937 218 l 1
 937 1254 l 1
 1157 1254 l 1
 1157 0 l 1
 228 0 l 1
 228 365 l 2
 228 428 249 479 290 517 c 1
 129 666 124 816 124 876 c 0
 124 999 204 1264 524 1264 c 0
 672 1264 798 1146 798 990 c 0
524 1080 m 0
 478 1080 432 1043 432 992 c 0
 432 945 470 902 524 902 c 0
 580 902 612 949 612 992 c 0
 612 1042 571 1080 524 1080 c 0
EndSplineSet
EndChar

StartChar: uni0E23
Encoding: 3619 3619 158
Width: 1172
VWidth: 2045
Flags: W
HStem: -10 186<580.506 733.619> 354 184<580.817 710.102> 732 186<384 699.576> 1064 220<494.601 823.517>
VStem: 383 185<188.634 341.064> 711 220<533 724.987> 748 183<194.297 340.887>
LayerCount: 2
Fore
SplineSet
657 176 m 0xfa
 711 176 748 219 748 266 c 0
 748 313 708 354 657 354 c 0
 610 354 568 317 568 266 c 0
 568 221 601 176 657 176 c 0xfa
106 732 m 1
 106 1053 366 1284 658 1284 c 0
 878 1284 1048 1161 1136 1009 c 9
 958 875 l 17
 931 932 838 1064 658 1064 c 0
 494 1064 407 954 384 918 c 1
 657 918 l 2
 812 918 931 794 931 644 c 10xfc
 931 264 l 18xfa
 931 109 807 -10 657 -10 c 0
 502 -10 383 114 383 264 c 0
 383 419 507 538 657 538 c 0
 676 538 694 536 711 533 c 9
 711 648 l 2xfc
 711 704 682 732 624 732 c 2
 106 732 l 1
EndSplineSet
EndChar

StartChar: uni0E24
Encoding: 3620 3620 159
Width: 1435
VWidth: 2045
Flags: W
HStem: -10 186<458.381 611.61> 354 184<484.296 613.068> 701 220<483 591> 1062 222<505.973 850.016>
VStem: 262 221<533 701> 262 183<189.458 340.887> 625 185<187.75 340.268> 1041 221<-560 868.25>
LayerCount: 2
Fore
SplineSet
536 354 m 0xf7
 485 354 445 313 445 266 c 0
 445 220 481 176 536 176 c 0
 592 176 625 221 625 266 c 0
 625 313 588 354 536 354 c 0xf7
536 -10 m 0
 381 -10 262 114 262 264 c 2xf7
 262 701 l 1
 100 701 l 1
 100 1022 355 1284 682 1284 c 0
 990 1284 1262 1043 1262 702 c 2
 1262 -560 l 1
 1041 -560 l 1
 1041 700 l 2
 1041 909 875 1062 680 1062 c 0
 509 1062 417 951 395 921 c 1
 591 921 l 1
 591 701 l 1
 483 701 l 1
 483 533 l 17xfb
 500 536 517 538 536 538 c 0
 691 538 810 414 810 264 c 0
 810 109 686 -10 536 -10 c 0
EndSplineSet
EndChar

StartChar: uni0E25
Encoding: 3621 3621 160
Width: 1477
VWidth: 2045
Flags: W
HStem: -0 186<480.381 633.61> 364 184<558 634.31> 652 222<587.316 891.454> 1062 222<550.606 892.501>
VStem: 141 220<702 866.835> 284 183<199.458 350.887> 647 185<197.75 350.268> 1082 221<0 463.801>
LayerCount: 2
Fore
SplineSet
558 364 m 0xf7
 507 364 467 323 467 276 c 0
 467 230 503 186 558 186 c 0
 614 186 647 231 647 276 c 0
 647 323 610 364 558 364 c 0xf7
723 1284 m 0
 1031 1284 1303 1043 1303 702 c 2
 1303 0 l 1
 1082 0 l 9
 1082 291 l 18
 1082 510 903 651 721 652 c 0
 627 652 573 617 558 548 c 1
 713 548 832 424 832 274 c 0
 832 119 708 0 558 -0 c 0
 403 0 284 124 284 274 c 2
 284 332 l 2xf7
 284 472 308 580 354 656 c 1
 427 772 535 874 718 874 c 0
 873 874 994 820 1079 752 c 1
 1057 912 918 1062 721 1062 c 0
 516 1062 361 899 361 702 c 9
 141 702 l 17xfb
 141 1039 414 1284 723 1284 c 0
EndSplineSet
EndChar

StartChar: uni0E26
Encoding: 3622 3622 161
Width: 1504
VWidth: 2045
Flags: W
HStem: -10 186<240.506 394.503> 354 184<240.817 368.704> 701 220<590 701> 1062 222<565.973 910.016>
VStem: 43 185<188.634 341.064> 370 220<533 701> 408 183<189.458 340.887> 1101 219<-560 868.25>
LayerCount: 2
Fore
SplineSet
317 176 m 0xfb
 371 176 408 219 408 266 c 0
 408 313 368 354 317 354 c 0
 270 354 228 317 228 266 c 0
 228 221 261 176 317 176 c 0xfb
742 1284 m 0
 1050 1284 1322 1043 1322 702 c 2
 1320 -560 l 17
 1101 -560 l 9
 1101 700 l 2
 1101 909 935 1062 740 1062 c 0
 569 1062 477 951 455 921 c 1
 701 921 l 1
 701 701 l 1
 590 701 l 1xfd
 591 264 l 2xfb
 591 114 472 -10 317 -10 c 0
 162 -10 43 114 43 264 c 0
 43 419 167 538 317 538 c 0
 336 538 353 536 370 533 c 9
 370 701 l 1xfd
 160 701 l 1
 160 1022 415 1284 742 1284 c 0
EndSplineSet
EndChar

StartChar: uni0E27
Encoding: 3623 3623 162
Width: 1258
VWidth: 2045
Flags: W
HStem: -10 186<730.506 882.534> 354 184<730.817 858.704> 1064 220<436.326 734.612>
VStem: 88 220<788 937.748> 533 185<188.634 341.064> 860 221<533 929.207> 898 183<189.79 340.887>
LayerCount: 2
Fore
SplineSet
584 1064 m 0xfc
 432 1064 308 943 308 788 c 9
 88 788 l 17
 88 1068 312 1284 584 1284 c 0
 868 1284 1081 1045 1081 788 c 2xfc
 1081 264 l 2xfa
 1081 148 992 -10 807 -10 c 0
 652 -10 533 114 533 264 c 0
 533 419 657 538 807 538 c 0
 826 538 843 536 860 533 c 1
 860 788 l 2
 860 940 739 1064 584 1064 c 0xfc
807 176 m 0
 861 176 898 219 898 266 c 0xfa
 898 313 858 354 807 354 c 0
 760 354 718 317 718 266 c 0
 718 221 751 176 807 176 c 0
EndSplineSet
EndChar

StartChar: uni0E28
Encoding: 3624 3624 163
Width: 1502
VWidth: 2045
Flags: W
HStem: 0 21G<141 369.049 1082 1303> 330 186<642.066 795.61> 694 184<640.94 797.761> 1062 222<550.606 893.653>
VStem: 141 220<452 866.835> 809 185<527.75 681.939> 1082 221<0 759.51> 1160 220<1132.02 1318>
LayerCount: 2
Back
SplineSet
0 1200 m 4
 121.333 1200 225 1243 311 1329 c 4
 397 1415 440 1518.67 440 1640 c 5
 660 1640 l 5
 660 1520.67 630.5 1410.33 571.5 1309 c 4
 512.5 1207.67 432.333 1127.5 331 1068.5 c 4
 229.667 1009.5 119.333 980 0 980 c 4
EndSplineSet
Fore
SplineSet
721 1062 m 0xfc
 516 1062 361 899 361 702 c 2
 361 452 l 1
 474 726 l 2
 488 760 565 878 720 878 c 0
 815 878 900 905 974 958 c 1
 904 1027 820 1062 721 1062 c 0xfc
723 1284 m 0
 921 1284 1059 1187 1119 1129 c 1
 1146 1186 1160 1249 1160 1318 c 1
 1380 1318 l 1xfd
 1380 1182 1339 1054 1257 934 c 1
 1288 863 1303 785 1303 702 c 2
 1303 0 l 1
 1082 0 l 1
 1082 700 l 2xfe
 1082 722 1080 743 1077 763 c 1
 1058 744 1023 726 974 708 c 1
 987 676 994 641 994 604 c 0
 994 449 870 330 720 330 c 0
 645 330 580 357 526 410 c 9
 361 0 l 17
 141 0 l 1
 141 702 l 2
 141 1039 414 1284 723 1284 c 0
720 694 m 0
 669 694 629 653 629 606 c 0
 629 560 665 516 720 516 c 0
 776 516 809 561 809 606 c 0
 809 653 772 694 720 694 c 0
EndSplineSet
EndChar

StartChar: uni0E29
Encoding: 3625 3625 164
Width: 1533
VWidth: 2045
Flags: W
HStem: 0 214<303 414 634 1114> 386 163<1013 1110.89> 726 186<282.613 413.199> 756 134<770.12 922.075> 1090 184<283.285 434.324> 1234 20G<1113.97 1333>
VStem: 86 183<924.876 1076.6> 414 342<591.386 730.643> 414 220<214 591> 449 185<923.609 1073.48> 1114 219<213 402 809 1254>
LayerCount: 2
Fore
SplineSet
847 890 m 0xda60
 972 890 1079 784 1071 669 c 0
 1067 614 1048 574 1013 549 c 1
 1047 548 1080 553 1113 564 c 9
 1114 1254 l 9
 1333 1254 l 17
 1333 809 l 17
 1476 714 l 1
 1435 628 1388 560 1333 511 c 9
 1333 0 l 1
 303 0 l 1
 303 214 l 1
 414 214 l 9
 414 731 l 1
 397 728 379 726 360 726 c 0xe6a0
 205 726 86 850 86 1000 c 0
 86 1155 210 1274 360 1274 c 0
 519 1274 634 1147 634 1000 c 2
 634 735 l 17
 653 799 719 890 847 890 c 0xda60
1113 402 m 17
 1068 391 1021 386 973 386 c 0
 851 387 762 416 706 474 c 0
 671 511 647 550 634 591 c 9
 634 214 l 9
 1114 213 l 17
 1113 402 l 17
846 756 m 0xd320
 794 756 756 714 756 667 c 0
 756 620 794 578 846 578 c 0
 896 578 937 620 937 667 c 0
 937 718 892 756 846 756 c 0xd320
360 1090 m 0xea60
 310 1090 269 1049 269 1002 c 0
 269 954 307 912 360 912 c 0
 413 912 449 956 449 1002 c 0
 449 1049 411 1090 360 1090 c 0xea60
EndSplineSet
EndChar

StartChar: uni0E2A
Encoding: 3626 3626 165
Width: 1484
VWidth: 2045
Flags: W
HStem: -0 186<480.381 633.61> 364 184<558 634.31> 652 222<587.335 892.97> 1062 222<550.606 894.55>
VStem: 141 220<702 866.835> 284 183<199.458 350.887> 647 185<197.75 350.268> 1082 221<0 463.801 742 814.764> 1158 220<1132.63 1314>
LayerCount: 2
Fore
SplineSet
1001 791 m 25xf2
 1079 742 l 17
 1078 816 l 25
 1001 791 l 25xf2
558 364 m 0
 507 364 467 323 467 276 c 0xf6
 467 230 503 186 558 186 c 0
 614 186 647 231 647 276 c 0
 647 323 610 364 558 364 c 0
723 1284 m 0
 877 1284 1015 1225 1119 1130 c 1
 1145 1186 1158 1247 1158 1314 c 1
 1378 1314 l 1xfa80
 1377 1175 1337 1048 1258 933 c 1
 1288 862 1303 785 1303 702 c 2
 1303 0 l 1
 1082 0 l 9
 1082 291 l 18
 1082 510 903 651 721 652 c 0
 627 653 573 618 558 548 c 1
 713 548 832 424 832 274 c 0
 832 119 708 0 558 -0 c 0
 403 0 284 124 284 274 c 2
 284 332 l 2xf7
 284 472 308 580 354 656 c 1
 427 772 535 874 718 874 c 0
 815 874 901 902 976 957 c 1
 905 1027 820 1062 721 1062 c 0
 516 1062 361 899 361 702 c 9
 141 702 l 17xfa
 141 1039 414 1284 723 1284 c 0
718 654 m 0
EndSplineSet
EndChar

StartChar: uni0E2B
Encoding: 3627 3627 166
Width: 1581
VWidth: 2045
Flags: W
HStem: 0 21G<414 647.835 1171 1391> 726 186<282.613 413.199> 1090 184<283.285 436.96 1087.18 1241.07>
VStem: 86 183<924.876 1076.6> 414 220<343 731> 449 185<923.609 1074.54> 890 183<924.351 1076.6> 1171 220<0 613.865> 1253 185<923.814 1076.27>
DStem2: 634 343 634 0 0.56891 0.8224<0 490.553>
LayerCount: 2
Fore
SplineSet
1164 1274 m 0xfa
 1319 1274 1438 1150 1438 1000 c 0xfa80
 1438 919 1405 849 1340 790 c 1
 1375 741 1392 673 1391 586 c 9
 1391 0 l 1
 1171 0 l 1
 1171 556 l 2
 1171 597 1148 616 1103 616 c 0
 1074 616 1050 600 1029 571 c 2
 634 0 l 1xf7
 414 0 l 9
 414 731 l 1xfa
 397 728 379 726 360 726 c 0
 205 726 86 850 86 1000 c 0
 86 1155 210 1274 360 1274 c 0
 515 1274 634 1150 634 1000 c 2xf6
 634 343 l 25
 909 753 l 18
 925 777 943 798 962 815 c 1
 914 867 890 929 890 1000 c 0
 890 1155 1014 1274 1164 1274 c 0xfa
1164 1090 m 0
 1113 1090 1073 1049 1073 1002 c 0
 1073 956 1109 912 1164 912 c 0
 1220 912 1253 957 1253 1002 c 0
 1253 1049 1216 1090 1164 1090 c 0
360 1090 m 0
 310 1090 269 1049 269 1002 c 0
 269 954 307 912 360 912 c 0
 413 912 449 956 449 1002 c 0xf6
 449 1049 411 1090 360 1090 c 0
EndSplineSet
EndChar

StartChar: uni0E2C
Encoding: 3628 3628 167
Width: 1654
VWidth: 2045
Flags: W
HStem: 0 21G<414 643.611 1240.45 1470> 726 186<282.613 413.199> 978 186<1083.38 1237.88> 1090 184<283.285 436.96> 1342 184<1084.18 1238.14>
VStem: 86 183<924.876 1076.6> 414 220<433 731> 449 185<923.609 1074.54> 887 183<1177.09 1328.6> 1250 220<434 992>
DStem2: 634 433 943 643 0.433141 0.901326<0 323.119> 1000 974 943 643 0.430859 -0.902419<274.142 595.021>
AnchorPoint: "AboveBase" 869 1375 basechar 0
LayerCount: 2
Fore
SplineSet
1161 1526 m 0xeec0
 1300 1526 1371 1432 1393 1399 c 9
 1485 1492 l 1
 1641 1338 l 1
 1470 1164 l 1
 1470 0 l 1
 1250 0 l 1
 943 643 l 1
 634 0 l 1xedc0
 414 0 l 9
 414 731 l 1xeec0
 397 728 379 726 360 726 c 0
 205 726 86 850 86 1000 c 0
 86 1155 210 1274 360 1274 c 0
 515 1274 634 1150 634 1000 c 2xddc0
 634 433 l 17
 884 974 l 1
 1000 974 l 1
 1250 434 l 1
 1250 992 l 17
 1222 983 1192 978 1161 978 c 0
 1006 978 887 1102 887 1252 c 0
 887 1407 1011 1526 1161 1526 c 0xeec0
1161 1342 m 0
 1110 1342 1070 1301 1070 1254 c 0
 1070 1208 1106 1164 1161 1164 c 0
 1217 1164 1250 1209 1250 1254 c 0
 1250 1301 1213 1342 1161 1342 c 0
360 1090 m 0xddc0
 310 1090 269 1049 269 1002 c 0
 269 954 307 912 360 912 c 0
 413 912 449 956 449 1002 c 0
 449 1049 411 1090 360 1090 c 0xddc0
EndSplineSet
EndChar

StartChar: uni0E2D
Encoding: 3629 3629 168
Width: 1489
VWidth: 2045
Flags: W
HStem: -0 213<606 1082> 336 186<606.801 736.386> 700 184<582.578 737.735> 1062 222<550.606 891.016>
VStem: 141 220<702 866.835> 386 220<213 341> 386 185<533.609 684.188> 751 183<537.296 685.637> 1082 221<213 868.25>
LayerCount: 2
Fore
SplineSet
721 1062 m 0xfd80
 516 1062 361 899 361 702 c 9
 141 702 l 17
 141 1039 414 1284 723 1284 c 0
 1031 1284 1303 1043 1303 702 c 2
 1303 0 l 1
 386 -0 l 25
 386 610 l 2xfb80
 386 759 503 884 660 884 c 0
 815 884 934 760 934 610 c 0
 934 455 810 336 660 336 c 0
 641 336 623 338 606 341 c 1
 606 213 l 9
 1082 213 l 17
 1082 700 l 2
 1082 909 916 1062 721 1062 c 0xfd80
660 522 m 0
 712 522 751 564 751 612 c 0
 751 663 706 700 660 700 c 0
 608 700 571 659 571 612 c 0
 571 566 607 522 660 522 c 0
EndSplineSet
EndChar

StartChar: uni0E2E
Encoding: 3630 3630 169
Width: 1298
VWidth: 2045
Flags: W
HStem: -0 213<350 856> 236 186<350.563 478.386> 600 184<324.578 476.431> 800 179<369.12 721.702> 1090 195<379.586 692.908>
VStem: 130 181<433.609 584.188> 491 187<437.296 585.637> 856 221<213 874.428>
LayerCount: 2
Fore
SplineSet
678 510 m 0
 678 355 554 236 404 236 c 0
 385 236 367 238 350 241 c 1
 350 213 l 9
 856 213 l 17
 856 741 l 2
 856 792 848 838 831 878 c 1
 735 825 627 800 506 800 c 0
 210 800 115 933 114 1025 c 0
 113 1127 217 1285 538 1285 c 0
 720 1285 852 1202 899 1153 c 1
 938 1200 961 1241 968 1276 c 1
 1160 1184 l 1
 1129 1111 1085 1045 1028 987 c 1
 1061 913 1077 832 1077 743 c 2
 1077 0 l 1
 130 -0 l 25
 130 510 l 2
 130 659 247 784 404 784 c 0
 559 784 678 660 678 510 c 0
400 422 m 0
 452 422 491 464 491 512 c 0
 491 563 446 600 400 600 c 0
 348 600 311 559 311 512 c 0
 311 466 347 422 400 422 c 0
367 1029 m 0
 367 989 459 979 536 979 c 0
 609 979 672 993 723 1019 c 1
 682 1068 616 1092 526 1090 c 0
 420 1088 367 1068 367 1029 c 0
EndSplineSet
EndChar

StartChar: uni0E2F
Encoding: 3631 3631 170
Width: 1295
VWidth: 2045
Flags: W
HStem: 0 21G<919 1139> 637 255<277.372 432.678> 1070 184<279.177 433.068>
VStem: 82 183<907.814 1056.6> 445 185<904.053 1056.27> 919 220<0 813 1061.19 1254>
LayerCount: 2
Fore
SplineSet
356 1070 m 0
 305 1070 265 1029 265 982 c 0
 265 936 301 892 356 892 c 0
 412 892 445 937 445 982 c 0
 445 1029 408 1070 356 1070 c 0
356 1254 m 0
 511 1254 630 1130 630 980 c 0
 630 944 622 909 606 876 c 1
 678 887 748 924 816 987 c 0
 885 1050 919 1139 919 1254 c 1
 1139 1254 l 1
 1139 0 l 1
 919 0 l 1
 919 813 l 1
 787 684 651 636 444 637 c 0
 203 639 82 840 82 980 c 0
 82 1135 206 1254 356 1254 c 0
EndSplineSet
EndChar

StartChar: uni0E30
Encoding: 3632 3632 171
Width: 1158
VWidth: 2045
Flags: W
HStem: 45 163<489 644.156> 417 133<245.534 399.573> 665 163<489 644.016> 1036 133<244.426 399.813>
VStem: 99 133<252.312 402.539 870.23 1023.48> 412 135<250.64 404.251 870.266 1023.24>
LayerCount: 2
Fore
SplineSet
951 994 m 1
 880 841 750 665 448 665 c 0
 152 665 99 864 99 941 c 0
 99 1076 197 1169 322 1169 c 0
 447 1169 547 1065 547 960 c 0
 547 907 530 857 489 828 c 1
 695 828 769 991 810 1089 c 1
 951 994 l 1
322 1036 m 0
 269 1036 232 995 232 946 c 0
 232 897 270 858 322 858 c 0
 374 858 412 899 412 946 c 0
 412 993 376 1036 322 1036 c 0
951 375 m 1
 881 224 750 45 448 45 c 0
 145 45 99 252 99 322 c 0
 99 462 203 550 322 550 c 0
 447 550 547 446 547 341 c 0
 547 284 526 236 489 208 c 1
 695 208 769 372 810 470 c 1
 951 375 l 1
322 417 m 0
 273 417 232 379 232 327 c 0
 232 274 274 238 322 238 c 0
 369 238 412 274 412 327 c 0
 412 379 369 417 322 417 c 0
EndSplineSet
EndChar

StartChar: uni0E31
Encoding: 3633 3633 172
Width: 0
VWidth: 2045
Flags: W
HStem: 1414 163<-422 -220.116> 1785 133<-667.398 -514.116>
VStem: -813 133<1620.48 1772.61> -500 135<1619.04 1771.82>
AnchorPoint: "AboveMark" -346 1986 basemark 0
AnchorPoint: "AboveBase" -115 1375 mark 0
LayerCount: 2
Fore
SplineSet
-3 1838 m 1
 139 1743 l 1
 -42 1441 -307 1414 -454 1414 c 0
 -756 1414 -813 1618 -813 1690 c 0
 -813 1825 -715 1918 -590 1918 c 0
 -460 1918 -365 1810 -365 1709 c 0
 -365 1652 -386 1603 -422 1577 c 1
 -309 1577 -151 1594 -3 1838 c 1
-590 1785 m 0
 -646 1785 -680 1740 -680 1695 c 0
 -680 1648 -643 1607 -590 1607 c 0
 -538 1607 -500 1648 -500 1695 c 0
 -500 1740 -534 1785 -590 1785 c 0
EndSplineSet
EndChar

StartChar: uni0E32
Encoding: 3634 3634 173
Width: 1169
VWidth: 2045
Flags: W
HStem: 1064 220<435.193 736.071>
VStem: 88 220<788 934.777> 860 220<788 940.142>
LayerCount: 2
Fore
SplineSet
585 1064 m 0
 745 1064 860 936 860 788 c 2
 860 0 l 1
 1080 0 l 9
 1081 788 l 2
 1081 1044 868 1284 584 1284 c 0
 304 1284 88 1060 88 788 c 9
 308 788 l 17
 308 944 433 1064 585 1064 c 0
EndSplineSet
EndChar

StartChar: uni0E34
Encoding: 3636 3636 175
Width: 0
VWidth: 2045
Flags: W
HStem: 1762 174<-877.324 -540.924>
DStem2: -939 1672 -1229 1543 0.995651 -0.0931658<0 516.33>
AnchorPoint: "AboveMark" -249 2120 basemark 0
AnchorPoint: "AboveBase" -163 1375 mark 0
LayerCount: 2
Fore
SplineSet
-425 1623 m 1
 -447 1652 -536 1756 -709 1762 c 1
 -745 1762 -900 1730 -939 1672 c 9
 -425 1623 l 1
-1229 1543 m 17
 -1143 1843 -881 1936 -709 1936 c 0
 -477 1936 -208 1778 -171 1444 c 1
 -1229 1543 l 17
EndSplineSet
EndChar

StartChar: uni0E35
Encoding: 3637 3637 176
Width: 0
VWidth: 2045
Flags: W
HStem: 1759 174<-877.324 -535.752>
VStem: -328 157<1777 2076>
DStem2: -939 1669 -1229 1540 0.995651 -0.0931658<0 516.33>
AnchorPoint: "AboveBase" -159 1375 mark 0
AnchorPoint: "AboveMark" -249 2120 basemark 0
LayerCount: 2
Fore
SplineSet
-1229 1540 m 1
 -1143 1840 -881 1933 -709 1933 c 0
 -576 1933 -449 1879 -328 1777 c 9
 -328 2076 l 1
 -171 2076 l 5
 -171 1441 l 1
 -1229 1540 l 1
-425 1620 m 1
 -447 1649 -536 1759 -709 1759 c 0
 -745 1759 -900 1727 -939 1669 c 9
 -425 1620 l 1
EndSplineSet
EndChar

StartChar: uni0E36
Encoding: 3638 3638 177
Width: 0
VWidth: 2045
Flags: W
HStem: 1757 174<-876.884 -586.254> 2007 133<-438.944 -287.157>
VStem: -588 135<1917 1992.81> -273 136<1841.36 1993.98>
DStem2: -939 1667 -1229 1538 0.995651 -0.0931658<0 516.33>
AnchorPoint: "AboveBase" -174 1375 mark 0
AnchorPoint: "AboveMark" -356 2120 basemark 0
LayerCount: 2
Fore
SplineSet
-137 1918 m 0
 -137 1795 -231 1731 -273 1713 c 1
 -217 1637 -183 1546 -171 1439 c 1
 -1229 1538 l 1
 -1143 1838 -879 1931 -709 1931 c 0
 -669 1931 -629 1926 -588 1917 c 1
 -588 2038 -493 2140 -363 2140 c 0
 -235 2140 -137 2039 -137 1918 c 0
-363 2007 m 0
 -415 2007 -453 1964 -453 1917 c 0
 -453 1864 -407 1829 -363 1829 c 0
 -314 1829 -273 1868 -273 1917 c 0
 -273 1963 -309 2007 -363 2007 c 0
-425 1618 m 1
 -447 1647 -536 1751 -709 1757 c 1
 -745 1757 -900 1725 -939 1667 c 9
 -425 1618 l 1
EndSplineSet
EndChar

StartChar: uni0E37
Encoding: 3639 3639 178
Width: 0
VWidth: 2045
Flags: W
HStem: 1764 174<-877.324 -565.766>
VStem: -564 157<1915 2081> -328 157<1782 2081>
DStem2: -939 1674 -1229 1545 0.995651 -0.0931658<0 516.33>
AnchorPoint: "AboveMark" -367 2120 basemark 0
AnchorPoint: "AboveBase" -175 1375 mark 0
LayerCount: 2
Fore
SplineSet
-1229 1545 m 1
 -1143 1845 -881 1938 -709 1938 c 0
 -662 1938 -613 1930 -564 1915 c 1
 -564 2081 l 1
 -407 2081 l 1
 -407 1842 l 17
 -377 1821 -351 1801 -328 1782 c 1
 -328 2081 l 1
 -171 2081 l 1
 -171 1446 l 1
 -1229 1545 l 1
-425 1625 m 1
 -447 1654 -536 1758 -709 1764 c 1
 -745 1764 -900 1732 -939 1674 c 9
 -425 1625 l 1
EndSplineSet
EndChar

StartChar: uni0E38
Encoding: 3640 3640 179
Width: 0
VWidth: 2045
Flags: W
HStem: -532 133<-458.914 -338.863> -221 134<-460.23 -307.081>
VStem: -610 136<-384.115 -233.507> -338 180<-755 -529> -294 136<-386.272 -235.239>
AnchorPoint: "BelowBase" -159 -88 mark 0
LayerCount: 2
Fore
SplineSet
-384 -87 m 0xf0
 -252 -87 -158 -194 -158 -308 c 2xe8
 -158 -755 l 1
 -338 -755 l 9
 -338 -529 l 1
 -354 -531 -369 -532 -384 -532 c 0
 -509 -532 -610 -434 -610 -310 c 0
 -610 -188 -514 -87 -384 -87 c 0xf0
-384 -221 m 0
 -438 -221 -474 -263 -474 -309 c 0
 -474 -356 -435 -399 -384 -399 c 0
 -338 -399 -294 -360 -294 -309 c 0
 -294 -261 -332 -221 -384 -221 c 0
EndSplineSet
Substitution2: "Thai Sara U Mai Ek Reordering" uni0E48.low
Substitution2: "Thai Sara U Mai Tho Reordering" uni0E49.low
Substitution2: "Thai Sara U Mai Tri Reordering" uni0E4A.low
Substitution2: "Thai Sara U Mai Chattawa Reordering" uni0E4B.low
Substitution2: "Thai Sara U Thanthakhat Reordering" uni0E4C.low
Substitution2: "Thai Sara U Nikhahit Reordering" uni0E4D
EndChar

StartChar: uni0E39
Encoding: 3641 3641 180
Width: 0
VWidth: 2045
Flags: W
HStem: -775 156<-494 -331> -532 133<-795.028 -674.618> -221 134<-796.398 -642.67>
VStem: -945 136<-386.112 -233.654> -674 180<-619 -529> -630 136<-386.504 -234.438> -331 180<-619 -85>
AnchorPoint: "BelowBase" -112 -85 mark 0
LayerCount: 2
Fore
SplineSet
-720 -87 m 0xfa
 -587 -87 -494 -192 -494 -308 c 2xf6
 -494 -619 l 1
 -331 -619 l 1
 -331 -85 l 1
 -151 -85 l 1
 -151 -775 l 1
 -674 -775 l 25
 -674 -529 l 1
 -689 -531 -704 -532 -720 -532 c 0
 -846 -532 -945 -432 -945 -310 c 0
 -945 -190 -851 -87 -720 -87 c 0xfa
-720 -221 m 0
 -768 -221 -809 -256 -809 -309 c 0
 -809 -364 -764 -399 -720 -399 c 0
 -673 -399 -630 -361 -630 -309 c 0
 -630 -261 -666 -221 -720 -221 c 0
EndSplineSet
Substitution2: "Thai Sara UU Mai Ek Reordering" uni0E48.low
Substitution2: "Thai Sara UU Mai Tho Reordering" uni0E49.low
Substitution2: "Thai Sara UU Mai Tri Reordering" uni0E4A.low
Substitution2: "Thai Sara UU Mai Chattawa Reordering" uni0E4B.low
Substitution2: "Thai Sara UU Thanthakhat Reordering" uni0E4C.low
Substitution2: "Thai Sara UU Nikhahit Reordering" uni0E4D
EndChar

StartChar: uni0E3A
Encoding: 3642 3642 181
Width: 0
VWidth: 2045
Flags: W
HStem: -438 356<-488.489 -253.23>
VStem: -552 360<-376.849 -143.31>
AnchorPoint: "BelowBase" -185 -86 mark 0
LayerCount: 2
Fore
SplineSet
-370 -438 m 0
 -469 -438 -552 -360 -552 -258 c 0
 -552 -158 -471 -82 -370 -82 c 0
 -266 -82 -192 -162 -192 -258 c 0
 -192 -360 -271 -438 -370 -438 c 0
EndSplineSet
Substitution2: "Thai Phinthu Maitaikhu Reordering" uni0E47
Substitution2: "Thai Phinthu Mai Ek Reordering" uni0E48.low
Substitution2: "Thai Phinthu Mai Tho Reordering" uni0E49.low
Substitution2: "Thai Phinthu Mai Tri Reordering" uni0E4A.low
Substitution2: "Thai Phinthu Mai Chattawa Reordering" uni0E4B.low
Substitution2: "Thai Phinthu Thanthakhat Reordering" uni0E4C.low
Substitution2: "Thai Phinthu Nikhahit Reordering" uni0E4D
EndChar

StartChar: uni0E3F
Encoding: 3647 3647 182
Width: 1364
VWidth: 2045
Flags: W
HStem: 0 172<345 550 707 945.044> 669 174<345 550 707 908.803> 1278 172<345 550 707 895.146>
VStem: 165 180<172 669 843 1278> 550 157<-131 0 172 669 843 1276 1450 1598> 994 191<922.828 1195.24> 1055 201<274.158 566.426>
LayerCount: 2
Fore
SplineSet
980 772 m 1xfc
 1139 728 1256 605 1256 420 c 0xfa
 1256 252 1180 0 707 0 c 9
 707 -131 l 1
 550 -131 l 1
 550 0 l 1
 165 0 l 1
 165 1450 l 1
 550 1450 l 1
 550 1598 l 1
 707 1598 l 1
 707 1450 l 1
 1133 1448 1185 1191 1185 1080 c 0
 1185 1004 1152 856 980 772 c 1xfc
707 843 m 17
 807 846 994 853 994 1056 c 0xfc
 994 1265 816 1271 707 1276 c 1
 707 843 l 17
707 172 m 17
 861 172 1055 194 1055 420 c 0xfa
 1055 619 900 664 707 669 c 1
 707 172 l 17
550 172 m 25
 550 669 l 1
 345 669 l 1
 345 172 l 1
 550 172 l 25
550 841 m 25
 550 1278 l 1
 345 1278 l 1
 345 843 l 1
 550 841 l 25
EndSplineSet
EndChar

StartChar: uni0E40
Encoding: 3648 3648 183
Width: 760
VWidth: 2045
Flags: W
HStem: -10 186<343.381 496.61> 354 184<369.296 498.068> 1234 20G<147.98 368>
VStem: 147 221<533 1254> 147 183<189.458 340.887> 510 185<187.75 340.268>
LayerCount: 2
Fore
SplineSet
421 354 m 0xec
 370 354 330 313 330 266 c 0
 330 220 366 176 421 176 c 0
 477 176 510 221 510 266 c 0
 510 313 473 354 421 354 c 0xec
421 -10 m 0
 266 -10 147 114 147 264 c 2xec
 148 1254 l 1
 368 1254 l 1
 368 533 l 1xf4
 385 536 402 538 421 538 c 0
 576 538 695 414 695 264 c 0
 695 109 571 -10 421 -10 c 0
EndSplineSet
EndChar

StartChar: uni0E41
Encoding: 3649 3649 184
Width: 1400
VWidth: 2045
Flags: W
HStem: -10 186<343.381 496.61 973.381 1126.61> 354 184<369.296 498.068 999.296 1128.07> 1234 20G<147.98 368 777.98 998>
VStem: 147 221<533 1254> 147 183<189.458 340.887> 510 185<187.75 340.268> 777 221<533 1254> 777 183<189.458 340.887> 1140 185<187.75 340.18>
LayerCount: 2
Fore
SplineSet
1051 354 m 0xe580
 1000 354 960 313 960 266 c 0
 960 220 996 176 1051 176 c 0
 1107 176 1140 221 1140 266 c 0
 1140 317 1098 354 1051 354 c 0xe580
1051 -10 m 0
 896 -10 777 114 777 264 c 2xe580
 778 1254 l 1
 998 1254 l 1
 998 533 l 1xe680
 1015 536 1032 538 1051 538 c 0
 1206 538 1325 414 1325 264 c 0
 1325 109 1201 -10 1051 -10 c 0
421 354 m 0
 370 354 330 313 330 266 c 0xec80
 330 220 366 176 421 176 c 0
 477 176 510 221 510 266 c 0
 510 313 473 354 421 354 c 0
421 -10 m 0
 266 -10 147 114 147 264 c 2xec80
 148 1254 l 1
 368 1254 l 1
 368 533 l 1xf480
 385 536 402 538 421 538 c 0
 576 538 695 414 695 264 c 0
 695 109 571 -10 421 -10 c 0
EndSplineSet
EndChar

StartChar: uni0E42
Encoding: 3650 3650 185
Width: 852
VWidth: 2045
Flags: W
HStem: -10 186<424.881 574.856> 354 184<451.71 576.265> 1522 186<-16 219.576> 1854 220<94.6012 423.517>
VStem: 230 221<533 1514.99> 230 180<189.458 340.887> 590 188<187.75 340.268>
LayerCount: 2
Fore
SplineSet
501 354 m 0xf6
 450 354 410 313 410 266 c 0
 410 220 446 176 501 176 c 0
 557 176 590 221 590 266 c 0
 590 313 553 354 501 354 c 0xf6
504 -10 m 0
 349 -10 230 114 230 264 c 2xf6
 231 1438 l 2
 231 1494 202 1522 144 1522 c 2
 -294 1522 l 1
 -294 1843 -34 2074 258 2074 c 0
 478 2074 648 1951 736 1799 c 9
 558 1665 l 17
 531 1722 438 1854 258 1854 c 0
 94 1854 7 1744 -16 1708 c 1
 177 1708 l 2
 332 1708 451 1584 451 1434 c 2
 451 533 l 1xfa
 468 536 485 538 504 538 c 0
 659 538 778 414 778 264 c 0
 778 109 654 -10 504 -10 c 0
EndSplineSet
EndChar

StartChar: uni0E43
Encoding: 3651 3651 186
Width: 963
VWidth: 2045
Flags: W
HStem: -10 186<522.542 674.856> 354 184<551.71 676.265> 1334 186<-138.652 15.6101> 1872 210<19.4805 231.361>
VStem: -344 193<1532.9 1680.36> 29 185<1531.75 1683.76> 330 221<533 1767.15> 330 180<194.297 340.887> 690 188<187.75 340.268>
LayerCount: 2
Fore
SplineSet
604 -10 m 0xfe80
 454 -10 330 109 330 264 c 2xfd80
 330 1597 l 2
 330 1764 242 1869 90 1872 c 0
 51 1873 27 1869 18 1860 c 1
 96 1860 214 1760 214 1608 c 0
 214 1453 90 1334 -60 1334 c 0
 -184 1334 -344 1431 -344 1638 c 0
 -344 1912 -128 2082 106 2082 c 0
 333 2082 551 1911 551 1598 c 2
 551 533 l 1
 568 536 585 538 604 538 c 0
 759 538 878 414 878 264 c 0
 878 109 754 -10 604 -10 c 0xfe80
-60 1698 m 0
 -111 1698 -151 1657 -151 1610 c 0
 -151 1564 -115 1520 -60 1520 c 0
 -4 1520 29 1565 29 1610 c 0
 29 1657 -8 1698 -60 1698 c 0
601 354 m 0
 550 354 510 313 510 266 c 0
 510 220 546 176 601 176 c 0
 657 176 690 221 690 266 c 0
 690 313 653 354 601 354 c 0
EndSplineSet
EndChar

StartChar: uni0E44
Encoding: 3652 3652 187
Width: 963
VWidth: 2045
Flags: W
HStem: -10 186<522.542 674.856> 354 184<551.71 676.265> 1481 21G<-172 54.7719>
VStem: -172 197<1745 2119.08> 330 221<533 1766> 330 180<194.297 340.887> 690 188<187.75 340.268>
LayerCount: 2
Fore
SplineSet
604 -10 m 0xfa
 454 -10 330 109 330 264 c 2xf6
 330 1766 l 25xfa
 34 1481 l 1
 -172 1481 l 1
 -172 1997 l 2
 -172 2050 -192 2097 -231 2136 c 1
 -99 2268 l 1
 -16 2207 25 2116 25 1997 c 2
 25 1745 l 1
 330 2074 l 1xf6
 551 2074 l 25
 551 533 l 1
 568 536 585 538 604 538 c 0
 759 538 878 414 878 264 c 0
 878 109 754 -10 604 -10 c 0xfa
601 354 m 0
 550 354 510 313 510 266 c 0
 510 220 546 176 601 176 c 0
 657 176 690 221 690 266 c 0
 690 313 653 354 601 354 c 0
EndSplineSet
EndChar

StartChar: uni0E45
Encoding: 3653 3653 188
Width: 1126
VWidth: 2045
Flags: W
HStem: 1064 220<245.936 546.256>
VStem: -102 220<788 936.634> 670 220<788 940.142>
LayerCount: 2
Fore
SplineSet
395 1064 m 0
 555 1064 670 936 670 788 c 2
 670 -550 l 1
 890 -550 l 9
 891 788 l 2
 891 1044 679 1284 394 1284 c 0
 118 1284 -102 1065 -102 788 c 9
 118 788 l 17
 118 944 243 1064 395 1064 c 0
EndSplineSet
EndChar

StartChar: uni0E46
Encoding: 3654 3654 189
Width: 1648
VWidth: 2045
Flags: W
HStem: 408 190<441.863 597.38> 774 191<443.504 598.757> 1244 20G<513 590.482 906.63 968>
VStem: 175 256<611.218 982> 611 187<609.19 760.042> 1052 217<-560 993.861>
LayerCount: 2
Fore
SplineSet
522 774 m 0
 472 774 431 733 431 686 c 0
 431 634 471 598 525 598 c 0
 578 598 611 641 611 686 c 0
 611 738 568 774 522 774 c 0
798 686 m 0
 798 533 667 408 522 408 c 0
 428 408 175 459 175 794 c 0
 175 1170 472 1249 554 1264 c 1
 751 1156 l 1
 942 1264 l 1
 994 1257 1267 1149 1267 861 c 10
 1269 -560 l 17
 1052 -560 l 1
 1054 850 l 2
 1054 984 988 1018 932 1036 c 1
 747 940 l 1
 561 1033 l 1
 510 1024 470 994 443 942 c 1
 462 957 489 965 526 965 c 0
 652 965 798 847 798 686 c 0
EndSplineSet
EndChar

StartChar: uni0E47
Encoding: 3655 3655 190
Width: 0
VWidth: 2045
Flags: W
HStem: 1403 112<-496.358 -372.775> 1512 131<-832.509 -702.738> 1648 112<-495.703 -372.183> 1805 119<-924.901 -322.393>
VStem: -1095 131<1557.35 1766.14> -614 113<1548.43 1642.92> -367 113<1519.66 1643.93>
AnchorPoint: "AboveMark" -659 2120 basemark 0
AnchorPoint: "AboveBase" -272 1375 mark 0
LayerCount: 2
Fore
SplineSet
-768 1805 m 0xbe
 -943 1805 -964 1733 -964 1655 c 0
 -964 1593 -942 1557 -899 1548 c 1
 -899 1617 -855 1643 -815 1643 c 0x7e
 -722 1643 -682 1562 -611 1548 c 1
 -613 1559 -614 1570 -614 1581 c 0
 -614 1688 -529 1760 -434 1760 c 0
 -337 1760 -254 1683 -254 1581 c 0
 -254 1504 -306 1403 -453 1403 c 0xbe
 -642 1403 -698 1512 -785 1512 c 0x7e
 -830 1512 -834 1488 -834 1440 c 0
 -834 1427 -833 1415 -832 1403 c 1
 -1065 1432 -1095 1566 -1095 1660 c 0
 -1095 1872 -915 1924 -776 1924 c 0
 -711 1924 -656 1912 -558 1912 c 0
 -392 1912 -297 1953 -273 2037 c 1
 -171 1977 l 1
 -206 1856 -325 1795 -529 1794 c 0
 -648 1794 -696 1805 -768 1805 c 0xbe
-434 1648 m 0
 -469 1648 -501 1621 -501 1581 c 0
 -501 1545 -474 1515 -434 1515 c 0xbe
 -394 1515 -367 1546 -367 1581 c 0
 -367 1619 -399 1648 -434 1648 c 0
EndSplineSet
Substitution2: "Thai Mark High Variant" uni0E47.high
Substitution2: "Thai Phinthu Maitaikhu Reordering" uni0E3A
EndChar

StartChar: uni0E48
Encoding: 3656 3656 191
Width: 0
VWidth: 2045
Flags: W
HStem: 2178 330<-339 -159>
VStem: -339 180<2178 2508>
AnchorPoint: "AboveMark" -249 2625 basemark 0
AnchorPoint: "AboveMark" -249 2120 mark 0
LayerCount: 2
Fore
SplineSet
-339 2178 m 17
 -339 2508 l 1
 -159 2508 l 1
 -159 2178 l 1
 -339 2178 l 17
EndSplineSet
MultipleSubs2: "Thai Tone Nikhahit Attachment" uni0E4D uni0E48
Substitution2: "Thai Tone Low Variant" uni0E48.low
Substitution2: "Thai Sara U Mai Ek Reordering" uni0E38
Substitution2: "Thai Sara UU Mai Ek Reordering" uni0E39
Substitution2: "Thai Phinthu Mai Ek Reordering" uni0E3A
EndChar

StartChar: uni0E49
Encoding: 3657 3657 192
Width: 0
VWidth: 2045
Flags: W
HStem: 2487 90<-442.813 -338.591>
VStem: -535 91<2381.7 2484.99> -337 90<2382.64 2485.93> -88 125<2402.93 2567>
AnchorPoint: "AboveMark" -249 2625 basemark 0
AnchorPoint: "AboveMark" -249 2120 mark 0
LayerCount: 2
Back
SplineSet
-527 2687 m 0
 -421 2687 -347 2605 -347 2509 c 0
 -347 2451 -367 2403 -406 2365 c 2
 -473 2293 l 1
 -391 2308 -316 2346 -249 2409 c 0
 -182 2472 -149 2560 -149 2675 c 1
 8 2675 l 1
 14 2359 -251 2137 -529 2137 c 2
 -678 2137 l 1
 -678 2291 l 1
 -576 2347 l 1
 -701 2371 -707 2483 -707 2510 c 0
 -707 2607 -632 2687 -527 2687 c 0
-527 2575 m 0
 -570 2575 -594 2542 -594 2509 c 0
 -594 2469 -562 2442 -527 2442 c 0
 -489 2442 -460 2474 -460 2509 c 0
 -460 2538 -484 2575 -527 2575 c 0
EndSplineSet
Fore
SplineSet
-391 2577 m 0
 -306 2577 -247 2511 -247 2434 c 0
 -247 2388 -263 2349 -294 2319 c 1
 -348 2261 l 1
 -282 2273 -222 2304 -168 2354 c 1
 -115 2405 -88 2475 -88 2567 c 1
 37 2567 l 1
 37 2314 -170 2137 -392 2137 c 2
 -512 2137 l 1
 -512 2260 l 1
 -430 2305 l 1
 -530 2324 -535 2413 -535 2435 c 0
 -535 2513 -475 2577 -391 2577 c 0
-391 2487 m 0
 -425 2487 -444 2461 -444 2434 c 0
 -444 2402 -419 2381 -391 2381 c 0
 -360 2381 -337 2406 -337 2434 c 0
 -337 2457 -356 2487 -391 2487 c 0
EndSplineSet
MultipleSubs2: "Thai Tone Nikhahit Attachment" uni0E4D uni0E49
Substitution2: "Thai Tone Low Variant" uni0E49.low
Substitution2: "Thai Sara U Mai Tho Reordering" uni0E38
Substitution2: "Thai Sara UU Mai Tho Reordering" uni0E39
Substitution2: "Thai Phinthu Mai Tho Reordering" uni0E3A
EndChar

StartChar: uni0E4A
Encoding: 3658 3658 193
Width: 0
VWidth: 2045
Flags: W
HStem: 2150 90<-499.896 -395.767> 2346 90<-491.338 -395.681> 2479 102<-486.781 -324.807 -231.954 -75.2085>
VStem: -617 116<2242.69 2405.52> -394 90<2240.92 2345.13> -57 102<2314.74 2461.81> 152 102<2388.58 2542>
AnchorPoint: "AboveMark" -249 2625 basemark 0
AnchorPoint: "AboveMark" -249 2120 mark 0
LayerCount: 2
Back
SplineSet
-127 2354 m 1
 -60 2405 14 2503 14 2640 c 1
 142 2640 l 17
 142 2339 -120 2150 -329 2150 c 1
 -329 2277 l 1
 -329 2277 -247 2328 -247 2419 c 0
 -247 2519 -318 2561 -360 2561 c 0
 -414 2561 -451 2539 -471 2496 c 1
 -572 2496 l 1
 -613 2539 -649 2561 -678 2561 c 0
 -728 2560 -768 2528 -790 2499 c 1
 -771 2504 -752 2507 -735 2507 c 0
 -630 2507 -555 2426 -555 2328 c 0
 -555 2231 -630 2150 -735 2150 c 0
 -832 2150 -947 2222 -947 2398 c 0
 -947 2609 -772 2688 -678 2688 c 0
 -609 2688 -556 2667 -520 2624 c 1
 -484 2667 -431 2688 -360 2688 c 0
 -258 2688 -119 2589 -119 2419 c 0
 -119 2394 -122 2373 -127 2354 c 1
-735 2395 m 0
 -773 2395 -802 2363 -802 2328 c 0
 -802 2295 -774 2262 -735 2262 c 0
 -698 2262 -668 2293 -668 2328 c 0
 -668 2367 -701 2395 -735 2395 c 0
EndSplineSet
Fore
SplineSet
39 2314 m 1
 92 2354 152 2433 152 2542 c 1
 254 2542 l 17
 254 2302 44 2150 -123 2150 c 1
 -123 2252 l 1
 -123 2252 -57 2293 -57 2366 c 0
 -57 2446 -114 2479 -148 2479 c 0
 -191 2479 -220 2462 -236 2427 c 1
 -317 2427 l 1
 -350 2462 -379 2479 -402 2479 c 0
 -442 2478 -474 2453 -492 2430 c 1
 -476 2434 -461 2436 -448 2436 c 0
 -364 2436 -304 2371 -304 2293 c 0
 -304 2215 -364 2150 -448 2150 c 0
 -525 2150 -617 2208 -617 2349 c 0
 -617 2518 -477 2581 -402 2581 c 0
 -347 2581 -304 2564 -276 2530 c 1
 -247 2564 -204 2581 -148 2581 c 0
 -66 2581 45 2502 45 2366 c 0
 45 2346 43 2329 39 2314 c 1
-448 2346 m 0
 -478 2346 -501 2321 -501 2293 c 0
 -501 2266 -479 2240 -448 2240 c 0
 -418 2240 -394 2265 -394 2293 c 0
 -394 2324 -420 2346 -448 2346 c 0
EndSplineSet
MultipleSubs2: "Thai Tone Nikhahit Attachment" uni0E4D uni0E4A
Substitution2: "Thai Tone Low Variant" uni0E4A.low
Substitution2: "Thai Sara U Mai Tri Reordering" uni0E38
Substitution2: "Thai Sara UU Mai Tri Reordering" uni0E39
Substitution2: "Thai Phinthu Mai Tri Reordering" uni0E3A
EndChar

StartChar: uni0E4B
Encoding: 3659 3659 194
Width: 0
VWidth: 2045
Flags: W
HStem: 2297 144<-439 -319 -174 -54>
VStem: -319 145<2177 2297 2441 2560>
AnchorPoint: "AboveMark" -249 2625 basemark 0
AnchorPoint: "AboveMark" -249 2120 mark 0
LayerCount: 2
Back
SplineSet
-117 2327 m 1
 -267 2327 l 1
 -267 2177 l 1
 -448 2177 l 1
 -448 2327 l 1
 -598 2327 l 1
 -598 2507 l 1
 -448 2507 l 1
 -448 2656 l 1
 -267 2656 l 1
 -267 2507 l 1
 -117 2507 l 1
 -117 2327 l 1
EndSplineSet
Fore
SplineSet
-54 2297 m 1
 -174 2297 l 1
 -174 2177 l 1
 -319 2177 l 1
 -319 2297 l 1
 -439 2297 l 1
 -439 2441 l 1
 -319 2441 l 1
 -319 2560 l 1
 -174 2560 l 1
 -174 2441 l 1
 -54 2441 l 1
 -54 2297 l 1
EndSplineSet
MultipleSubs2: "Thai Tone Nikhahit Attachment" uni0E4D uni0E4B
Substitution2: "Thai Tone Low Variant" uni0E4B.low
Substitution2: "Thai Sara U Mai Chattawa Reordering" uni0E38
Substitution2: "Thai Sara UU Mai Chattawa Reordering" uni0E39
Substitution2: "Thai Phinthu Mai Chattawa Reordering" uni0E3A
EndChar

StartChar: uni0E4C
Encoding: 3660 3660 195
Width: 0
VWidth: 2045
Flags: W
HStem: 2188 106<-439.345 -309.76> 2421 124<-202 112.912> 2437 108<-438.595 -307.343>
VStem: -554 108<2300.56 2430.74> -302 108<2300.94 2420.56>
AnchorPoint: "AboveMark" -249 2625 basemark 0
AnchorPoint: "AboveMark" -249 2120 mark 0
LayerCount: 2
Back
SplineSet
-611 2500 m 0xb8
 -658 2500 -701 2464 -701 2411 c 0
 -701 2359 -658 2321 -611 2321 c 0
 -564 2321 -521 2359 -521 2411 c 0
 -521 2464 -564 2500 -611 2500 c 0xb8
-835 2410 m 0
 -835 2542 -731 2634 -610 2634 c 2xb8
 -140 2632 l 2
 -76 2632 -29 2651 0 2690 c 1
 110 2581 l 1
 43 2512 -41 2478 -140 2478 c 2
 -396 2480 l 1xd8
 -389 2457 -385 2434 -385 2412 c 0
 -385 2289 -484 2188 -611 2188 c 0
 -730 2188 -835 2280 -835 2410 c 0
EndSplineSet
Fore
SplineSet
-374 2437 m 0xb8
 -412 2437 -446 2409 -446 2366 c 0
 -446 2325 -412 2294 -374 2294 c 0
 -337 2294 -302 2325 -302 2366 c 0
 -302 2409 -337 2437 -374 2437 c 0xb8
-554 2365 m 0
 -554 2471 -470 2545 -374 2545 c 2xb8
 2 2543 l 2
 54 2543 91 2558 114 2589 c 1
 202 2502 l 1
 149 2447 82 2420 2 2420 c 2
 -202 2421 l 1xd8
 -197 2403 -194 2385 -194 2367 c 0
 -194 2269 -273 2188 -374 2188 c 0
 -470 2188 -554 2261 -554 2365 c 0
EndSplineSet
MultipleSubs2: "Thai Tone Nikhahit Attachment" uni0E4D uni0E4C
Substitution2: "Thai Tone Low Variant" uni0E4C.low
Substitution2: "Thai Sara U Thanthakhat Reordering" uni0E38
Substitution2: "Thai Sara UU Thanthakhat Reordering" uni0E39
Substitution2: "Thai Phinthu Thanthakhat Reordering" uni0E3A
EndChar

StartChar: uni0E4D
Encoding: 3661 3661 196
Width: 0
VWidth: 2045
Flags: W
HStem: 1419 186<-481.619 -328.39> 1783 184<-480.823 -326.932>
VStem: -678 183<1618.09 1769.6> -315 185<1616.75 1769.27>
AnchorPoint: "AboveMark" -400 2120 basemark 0
AnchorPoint: "AboveBase" -202 1375 mark 0
LayerCount: 2
Fore
SplineSet
-404 1419 m 0
 -559 1419 -678 1543 -678 1693 c 0
 -678 1848 -554 1967 -404 1967 c 0
 -249 1967 -130 1843 -130 1693 c 0
 -130 1538 -254 1419 -404 1419 c 0
-404 1783 m 0
 -455 1783 -495 1742 -495 1695 c 0
 -495 1649 -459 1605 -404 1605 c 0
 -348 1605 -315 1650 -315 1695 c 0
 -315 1742 -352 1783 -404 1783 c 0
EndSplineSet
Substitution2: "Thai Mark High Variant" uni0E4D.high
Substitution2: "Thai Sara U Nikhahit Reordering" uni0E38
Substitution2: "Thai Sara UU Nikhahit Reordering" uni0E39
Substitution2: "Thai Phinthu Nikhahit Reordering" uni0E3A
EndChar

StartChar: uni0E4E
Encoding: 3662 3662 197
Width: 0
VWidth: 2045
Flags: W
HStem: 1417 156<-561.206 -473> 1795 157<-558.885 -473> 2064 156<-290.796 -116.634>
VStem: -744 159<1596.54 1772.68> -473 157<1952 2040.62> -91 158<1952 2040.91>
AnchorPoint: "AboveMark" -339 2264 basemark 0
AnchorPoint: "AboveBase" -140 1375 mark 0
LayerCount: 2
Fore
SplineSet
-585 1684 m 0
 -585 1617 -533 1573 -473 1573 c 1
 -473 1417 l 17
 -626 1417 -744 1536 -744 1684 c 0
 -744 1838 -620 1952 -473 1952 c 1
 -473 2108 -348 2220 -204 2220 c 0
 -60 2220 67 2110 67 1952 c 1
 -91 1952 l 1
 -91 2011 -138 2064 -204 2064 c 0
 -269 2064 -316 2010 -316 1952 c 0
 -316 1923 -305 1896 -284 1873 c 1
 -284 1762 l 1
 -393 1762 l 1
 -416 1784 -443 1795 -473 1795 c 0
 -532 1795 -585 1751 -585 1684 c 0
EndSplineSet
Substitution2: "Thai Mark High Variant" uni0E4E.high
EndChar

StartChar: uni0E4F
Encoding: 3663 3663 198
Width: 1571
VWidth: 2045
Flags: W
HStem: -23 133<599.306 967.265> 245 177<706.714 857.894> 600 179<707.687 861.795> 914 133<599.966 967.245>
VStem: 244 134<333.968 686.318> 514 179<436.721 586.97> 873 181<434.591 588.125> 1189 134<337.295 686.729>
LayerCount: 2
Fore
SplineSet
784 600 m 0
 733 600 693 559 693 512 c 0
 693 466 729 422 784 422 c 0
 840 422 873 467 873 512 c 0
 873 559 836 600 784 600 c 0
784 -23 m 0
 485 -23 244 215 244 512 c 0
 244 809 485 1047 784 1047 c 0
 1081 1047 1323 810 1323 512 c 0
 1323 213 1080 -23 784 -23 c 0
784 914 m 0
 566 914 378 739 378 512 c 0
 378 288 563 110 784 110 c 0
 1002 110 1189 285 1189 512 c 0
 1189 740 1001 914 784 914 c 0
784 245 m 0
 630 245 514 364 514 512 c 0
 514 665 636 779 784 779 c 0
 944 779 1054 651 1054 512 c 0
 1054 372 944 245 784 245 c 0
EndSplineSet
EndChar

StartChar: uni0E50
Encoding: 3664 3664 199
Width: 1326
VWidth: 2045
Flags: W
HStem: 0 197<492.275 847.748> 697 197<492.244 831.999>
VStem: 123 220<327.68 567.316> 983 220<317.726 568.489>
LayerCount: 2
Fore
SplineSet
663 697 m 0
 495 697 343 583 343 447 c 0
 343 289 528 197 663 197 c 0
 835 197 983 293 983 447 c 0
 983 597 810 697 663 697 c 0
663 0 m 0
 345 0 123 218 123 447 c 0
 123 679 349 894 663 894 c 0
 975 894 1203 683 1203 447 c 0
 1203 216 979 0 663 0 c 0
EndSplineSet
EndChar

StartChar: uni0E51
Encoding: 3665 3665 200
Width: 1388
VWidth: 2045
Flags: W
HStem: 0 226<386 755.248> 404 184<602.177 756.068> 679 215<511.939 857.498>
VStem: 127 230<242.293 540.312> 405 183<238.733 390.599> 768 185<240.409 390.268> 1024 220<162.331 522.296>
LayerCount: 2
Fore
SplineSet
679 404 m 0
 628 404 588 363 588 316 c 0
 588 270 624 226 679 226 c 0
 735 226 768 271 768 316 c 0
 768 363 731 404 679 404 c 0
699 679 m 0
 479 679 357 540 357 409 c 0
 357 300 368 268 432 208 c 1
 414 237 405 273 405 314 c 0
 405 469 529 588 679 588 c 0
 834 588 953 464 953 314 c 0
 953 163 828 0 566 0 c 0
 206 0 127 269 127 414 c 0
 127 606 265 894 698 894 c 0
 986 894 1244 697 1244 364 c 0
 1244 231 1220 -1 952 -162 c 1
 816 -5 l 1
 980 113 1024 195 1024 364 c 0
 1024 539 876 679 699 679 c 0
EndSplineSet
EndChar

StartChar: uni0E52
Encoding: 3666 3666 201
Width: 1604
VWidth: 2045
Flags: W
HStem: 0 217<292 1236.18> 268 186<558.381 711.61> 632 265<557.44 829.715> 679 215<1156.49 1260.51>
VStem: 74 218<217 1161.64> 362 183<467.093 618.791> 725 185<465.75 619.433> 1294 231<278.24 656.319>
LayerCount: 2
Fore
SplineSet
636 632 m 0xef
 585 632 545 591 545 544 c 0
 545 498 581 454 636 454 c 0
 692 454 725 499 725 544 c 0
 725 591 688 632 636 632 c 0xef
1085 217 m 2
 1222 217 1294 265 1294 449 c 0
 1294 602 1263 679 1201 679 c 0xdf
 1170 679 1147 633 1130 542 c 1
 944 542 l 1
 923 630 889 676 840 680 c 1
 887 627 910 581 910 542 c 0
 910 387 786 268 636 268 c 0
 481 268 362 392 362 542 c 0
 362 756 515 897 732 897 c 0xef
 872 897 974 859 1037 784 c 1
 1080 857 1133 894 1198 894 c 0xdf
 1416 894 1525 747 1525 453 c 0
 1525 70 1286 0 1137 0 c 2
 74 0 l 1
 74 1094 l 2
 74 1137 43 1169 2 1165 c 1
 2 1384 l 1
 244 1384 292 1190 292 1094 c 2
 292 217 l 1
 1085 217 l 2
EndSplineSet
EndChar

StartChar: uni0E53
Encoding: 3667 3667 202
Width: 1476
VWidth: 2045
Flags: W
HStem: 0 186<335.626 487.61> 364 184<334.587 489.068> 679 215<392.807 636.353 906.849 1075.81>
VStem: 103 218<202.612 522.731> 501 185<197.75 350.268> 666 220<458 646.825> 1093 220<0 653.929>
LayerCount: 2
Fore
SplineSet
686 274 m 0xfa
 686 119 562 0 412 0 c 0
 290 0 103 75 103 440 c 0
 103 641 237 894 517 894 c 0
 624 894 709 864 772 804 c 1
 832 864 905 894 992 894 c 0
 1178 894 1313 765 1313 566 c 2
 1313 0 l 1
 1093 0 l 1
 1093 574 l 2
 1093 627 1061 677 987 677 c 0
 964 677 886 655 886 569 c 2
 886 458 l 1
 666 458 l 1
 666 566 l 2xf6
 666 611 625 679 516 679 c 0
 481 679 372 678 334 537 c 1
 359 544 385 548 412 548 c 0
 567 548 686 424 686 274 c 0xfa
412 364 m 0
 361 364 321 323 321 276 c 0
 321 230 357 186 412 186 c 0
 468 186 501 231 501 276 c 0xfa
 501 323 464 364 412 364 c 0
EndSplineSet
EndChar

StartChar: uni0E54
Encoding: 3668 3668 203
Width: 1498
VWidth: 2045
Flags: W
HStem: 0 218<421.346 645 825 1294> 218 135<825 882.272> 532 134<727.302 880.905> 677 217<422.517 1247.82> 1054 20G<1311 1531>
VStem: 110 220<308.228 585.913> 555 160<365.966 517.446> 895 136<367.172 518.46> 1311 220<959.75 1074>
LayerCount: 2
Fore
SplineSet
805 532 m 0x7f80
 755 532 715 492 715 443 c 0
 715 394 756 353 805 353 c 0
 851 353 895 392 895 443 c 0
 895 493 853 532 805 532 c 0x7f80
1531 1074 m 1
 1531 839 1373 677 1131 677 c 2
 563 677 l 2
 463 677 331 609 330 452 c 1
 327 314 429 218 561 218 c 2
 645 218 l 17
 585 277 555 349 555 435 c 0
 555 541 642 666 805 666 c 0
 934 666 1031 561 1031 443 c 0
 1031 313 918 218 825 218 c 10
 1294 218 l 1
 1294 0 l 1
 561 0 l 2xbf80
 297 0 110 208 110 447 c 0
 110 710 320 894 564 894 c 2
 1131 896 l 2
 1228 896 1311 972 1311 1074 c 1
 1531 1074 l 1
EndSplineSet
EndChar

StartChar: uni0E55
Encoding: 3669 3669 204
Width: 1489
VWidth: 2045
Flags: W
HStem: 0 218<421.346 645 825 1294> 218 135<825 882.272> 532 134<727.302 880.905> 677 249<591.071 746.678> 677 219<917 1247.96> 1054 20G<1311 1531> 1104 184<593.177 747.068>
VStem: 110 220<308.228 584.631> 396 183<938.913 1090.6> 555 160<365.966 517.446> 759 185<937.814 1090.27> 895 136<367.172 518.46> 1311 220<959.75 1074>
LayerCount: 2
Fore
SplineSet
670 1288 m 0xaf98
 825 1288 944 1164 944 1014 c 0
 944 971 935 932 917 896 c 9
 1131 896 l 2
 1228 896 1311 972 1311 1074 c 1
 1531 1074 l 1
 1531 839 1373 677 1131 677 c 2
 563 677 l 2
 463 677 331 609 330 452 c 1
 327 314 429 218 561 218 c 2
 645 218 l 17
 585 277 555 349 555 435 c 0xaf68
 555 541 642 666 805 666 c 0
 934 666 1031 561 1031 443 c 0
 1031 313 918 218 825 218 c 10
 1294 218 l 1
 1294 0 l 1
 561 0 l 2
 297 0 110 208 110 447 c 0
 110 673 264 827 433 876 c 1
 408 917 396 963 396 1014 c 0
 396 1169 520 1288 670 1288 c 0xaf98
670 1104 m 0
 619 1104 579 1063 579 1016 c 0
 579 970 615 926 670 926 c 0x37a8
 726 926 759 971 759 1016 c 0
 759 1063 722 1104 670 1104 c 0
805 532 m 0
 755 532 715 492 715 443 c 0
 715 394 756 353 805 353 c 0
 851 353 895 392 895 443 c 0x6758
 895 493 853 532 805 532 c 0
EndSplineSet
EndChar

StartChar: uni0E56
Encoding: 3670 3670 205
Width: 1448
VWidth: 2045
Flags: W
HStem: 0 206<385.862 707.083> 384 184<387.177 541.068> 679 215<472.015 934.994> 1279 219<76 165.073>
VStem: 189 220<822 1254.39> 190 183<220.889 370.599> 553 185<228.528 370.268> 1049 220<379.167 582.983>
LayerCount: 2
Fore
SplineSet
464 568 m 0xf7
 619 568 738 444 738 294 c 0
 738 271 736 249 731 228 c 1
 820 243 1055 328 1049 504 c 0
 1047 552 985 679 710 679 c 0
 367 679 192 537 189 531 c 1
 189 1168 l 2
 189 1230 143 1279 76 1279 c 1
 76 1498 l 1
 254 1498 409 1362 409 1168 c 2
 409 822 l 1xfb
 500 870 612 894 744 894 c 0
 1024 894 1269 718 1269 474 c 0
 1269 311 1088 0 616 0 c 0
 255 0 190 176 190 294 c 0
 190 449 314 568 464 568 c 0xf7
464 384 m 0
 413 384 373 343 373 296 c 0xf7
 373 250 409 206 464 206 c 0
 520 206 553 251 553 296 c 0
 553 343 516 384 464 384 c 0
EndSplineSet
EndChar

StartChar: uni0E57
Encoding: 3671 3671 206
Width: 1768
VWidth: 2045
Flags: W
HStem: 0 186<335.255 487.61> 364 184<334.587 489.068> 679 215<392.807 636.353 898.76 1041.15> 1264 20G<1453 1505.87>
VStem: 103 218<201.537 522.731> 501 185<197.75 350.268> 666 220<458 647.573> 1053 220<218 665.265> 1387 220<242.855 1129.01>
LayerCount: 2
Fore
SplineSet
970 677 m 0xfd80
 936 677 886 662 886 569 c 2
 886 458 l 1
 666 458 l 1
 666 566 l 2xfb80
 666 611 625 679 516 679 c 0
 481 679 372 678 334 537 c 1
 359 544 385 548 412 548 c 0
 567 548 686 424 686 274 c 0
 686 119 562 0 412 0 c 0
 288 0 103 70 103 440 c 0
 103 641 237 894 517 894 c 0
 624 894 709 864 772 804 c 1
 832 864 899 894 972 894 c 0
 1119 894 1273 828 1273 566 c 2
 1273 218 l 17
 1335 218 1387 266 1387 328 c 2
 1387 1051 l 2
 1387 1156 1420 1234 1486 1284 c 1
 1639 1130 l 1
 1618 1109 1607 1082 1607 1051 c 2
 1607 333 l 2
 1607 173 1485 0 1274 0 c 10
 1053 0 l 17
 1053 574 l 2
 1053 649 1018 677 970 677 c 0xfd80
412 364 m 0
 361 364 321 323 321 276 c 0
 321 230 357 186 412 186 c 0
 468 186 501 231 501 276 c 0xfd80
 501 323 464 364 412 364 c 0
EndSplineSet
EndChar

StartChar: uni0E58
Encoding: 3672 3672 207
Width: 1548
VWidth: 2045
Flags: W
HStem: 0 186<937.991 1090.61> 228 286<467.931 617.316> 364 184<936.174 1092.07> 677 218<364.899 1244.43> 1054 20G<1311 1531>
VStem: 38 230<332.746 586.872> 1104 185<197.75 350.18> 1311 220<962.724 1074>
LayerCount: 2
Fore
SplineSet
1289 274 m 0xbf
 1289 119 1165 0 1015 0 c 0
 896 0 798 38 720 114 c 0
 642 190 583 228 542 228 c 0
 486 228 455 201 455 94 c 0
 455 68 457 37 461 0 c 1
 165 0 37 251 38 486 c 1
 40 656 158 895 494 895 c 2
 1131 895 l 2
 1232 895 1311 974 1311 1074 c 1
 1531 1074 l 1
 1531 873 1363 677 1131 677 c 2
 494 677 l 2
 337 677 268 542 268 492 c 0
 268 421 282 368 311 331 c 1
 338 454 401 514 499 514 c 0xdf
 570 514 640 468 707 377 c 1
 747 334 l 17
 769 435 865 548 1015 548 c 0
 1170 548 1289 424 1289 274 c 0xbf
1015 364 m 0xbf
 964 364 924 323 924 276 c 0
 924 230 960 186 1015 186 c 0
 1071 186 1104 231 1104 276 c 0
 1104 327 1062 364 1015 364 c 0xbf
EndSplineSet
EndChar

StartChar: uni0E59
Encoding: 3673 3673 208
Width: 1611
VWidth: 2045
Flags: W
HStem: -10 196<464.553 618.423> 364 184<465.172 617.62> 676 218<442.158 779.429 1063.41 1235.92>
VStem: 116 220<449 580.718> 632 185<198.242 350.621> 910 200<0 554.271> 1290 220<853 1245.01>
LayerCount: 2
Fore
SplineSet
1290 566 m 1
 1282 588 1216 676 1125 676 c 8
 1098 676 1078 666 1063 645 c 1
 1094 600 1110 519 1110 402 c 2
 1110 0 l 1
 910 0 l 1
 910 408 l 2
 910 515 839 673 605 676 c 0
 449 679 336 594 336 449 c 1
 392 515 459 548 535 548 c 0
 697 548 817 426 817 274 c 0
 817 124 680 -10 513 -10 c 24
 249 -10 116 187 116 447 c 0
 116 644 253 894 605 894 c 0
 723 894 792 886 902 802 c 1
 962 863 1035 894 1122 894 c 0
 1201 894 1257 880 1290 853 c 1
 1290 1168 l 2
 1290 1250 1316 1318 1369 1373 c 1
 1543 1246 l 1
 1521 1225 1510 1199 1510 1168 c 2
 1510 665 l 1
 1290 566 l 1
543 364 m 0
 492 364 452 323 452 276 c 0
 452 230 488 186 543 186 c 0
 599 186 632 231 632 276 c 0
 632 323 595 364 543 364 c 0
EndSplineSet
EndChar

StartChar: uni0E5A
Encoding: 3674 3674 209
Width: 1695
VWidth: 2045
Flags: W
HStem: 0 21G<919 1139 1255 1475> 637 255<277.372 432.678> 1070 184<279.177 433.068>
VStem: 82 183<907.814 1056.6> 445 185<904.053 1056.27> 919 220<0 813 1068.66 1254> 1255 220<0 1254>
LayerCount: 2
Fore
SplineSet
356 1070 m 0
 305 1070 265 1029 265 982 c 0
 265 936 301 892 356 892 c 0
 412 892 445 937 445 982 c 0
 445 1029 408 1070 356 1070 c 0
356 1254 m 0
 511 1254 630 1130 630 980 c 0
 630 944 622 909 606 876 c 1
 656 884 919 952 919 1254 c 1
 1139 1254 l 1
 1139 0 l 1
 919 0 l 1
 919 813 l 1
 787 684 651 636 444 637 c 0
 203 639 82 840 82 980 c 0
 82 1135 206 1254 356 1254 c 0
1255 1254 m 1
 1475 1254 l 1
 1475 0 l 1
 1255 0 l 1
 1255 1254 l 1
EndSplineSet
EndChar

StartChar: uni0E5B
Encoding: 3675 3675 210
Width: 2515
VWidth: 2045
Flags: W
HStem: 0 218<457.582 784.265> 292 186<562.381 716.768> 397 212<2219.89 2395> 849 209<436.434 616.358>
VStem: 82 217<380.897 687.682> 366 183<491.093 640.157> 729 233<491.733 641.057>
LayerCount: 2
Fore
SplineSet
366 566 m 0xde
 366 726 498 841 622 838 c 1
 591 845 564 849 541 849 c 0
 436 849 299 690 299 535 c 0
 299 381 426 218 602 218 c 0
 747 218 922 309 992 444 c 2
 1156 757 l 1
 1262 757 l 1
 1387 548 l 1
 1512 757 l 1
 1619 757 l 1
 1744 548 l 1
 1868 757 l 1
 1974 757 l 1
 2099 528 l 1
 2125 582 2184 609 2275 609 c 2
 2395 609 l 1
 2395 397 l 1
 2282 397 l 2xbe
 2240 397 2197 338 2153 219 c 1
 2046 219 l 1
 1921 428 l 1
 1796 219 l 1
 1689 219 l 1
 1564 428 l 1
 1441 219 l 1
 1334 219 l 1
 1209 428 l 1
 1134 306 l 1
 965 35 745 0 617 0 c 0
 256 0 82 291 82 532 c 0
 82 850 338 1058 562 1058 c 0
 779 1058 962 915 962 610 c 8
 962 435 807 292 640 292 c 0
 485 292 366 416 366 566 c 0xde
640 656 m 0
 589 656 549 615 549 568 c 0
 549 522 585 478 640 478 c 0xde
 696 478 729 523 729 568 c 0
 729 615 692 656 640 656 c 0
EndSplineSet
EndChar

StartChar: zerowidthjoiner
Encoding: 8205 8205 212
Width: 0
Flags: W
LayerCount: 2
Back
SplineSet
36 -275 m 1
 -36 -275 l 1
 -36 1114 l 1
 -170 978 l 1
 -219 1027 l 1
 -48 1196 l 1
 -219 1364 l 1
 -170 1413 l 1
 0 1242 l 1
 170 1413 l 1
 219 1364 l 1
 48 1196 l 1
 219 1027 l 1
 170 978 l 1
 36 1114 l 1
 36 -275 l 1
EndSplineSet
EndChar

StartChar: afii299
Encoding: 8206 8206 213
Width: 0
Flags: W
LayerCount: 2
Back
SplineSet
430 1198 m 1
 213 984 l 1
 164 1033 l 1
 301 1163 l 1
 35 1163 l 1
 35 -275 l 1
 -36 -275 l 1
 -36 1234 l 1
 301 1234 l 1
 164 1364 l 1
 213 1413 l 1
 430 1198 l 1
EndSplineSet
EndChar

StartChar: afii300
Encoding: 8207 8207 214
Width: 0
Flags: W
LayerCount: 2
Back
SplineSet
35 -275 m 1
 -36 -275 l 1
 -36 1163 l 1
 -302 1163 l 1
 -165 1033 l 1
 -214 984 l 1
 -431 1198 l 1
 -214 1413 l 1
 -165 1364 l 1
 -302 1234 l 1
 35 1234 l 1
 35 -275 l 1
EndSplineSet
EndChar

StartChar: uni2010
Encoding: 8208 8208 215
Width: 973
Flags: W
HStem: 548 220<190 815>
VStem: 190 625<548 768>
LayerCount: 2
Fore
SplineSet
190 768 m 1
 815 768 l 1
 815 548 l 1
 190 548 l 1
 190 768 l 1
EndSplineSet
EndChar

StartChar: endash
Encoding: 8211 8211 216
Width: 1125
Flags: W
HStem: 530 220<0 1126>
LayerCount: 2
Fore
SplineSet
1126 530 m 1
 0 530 l 1
 0 750 l 1
 1126 750 l 1
 1126 530 l 1
EndSplineSet
EndChar

StartChar: emdash
Encoding: 8212 8212 217
Width: 1886
Flags: W
HStem: 530 220<0 1870>
LayerCount: 2
Fore
SplineSet
1870 530 m 1
 0 530 l 1
 0 750 l 1
 1870 750 l 1
 1870 530 l 1
EndSplineSet
EndChar

StartChar: horizontalbar
Encoding: 8213 8213 218
Width: 1862
Flags: W
HStem: 577 220<110 1752>
LayerCount: 2
Fore
SplineSet
1752 577 m 1
 110 577 l 1
 110 797 l 1
 1752 797 l 1
 1752 577 l 1
EndSplineSet
EndChar

StartChar: underscoredbl
Encoding: 8215 8215 219
Width: 1118
Flags: W
HStem: -423 130<-16 1134> -212 130<-16 1134>
LayerCount: 2
Fore
SplineSet
1134 -212 m 1
 -16 -212 l 1
 -16 -82 l 1
 1134 -82 l 1
 1134 -212 l 1
1134 -423 m 1
 -16 -423 l 1
 -16 -293 l 1
 1134 -293 l 1
 1134 -423 l 1
EndSplineSet
EndChar

StartChar: quoteleft
Encoding: 8216 8216 220
Width: 450
Flags: W
HStem: 997 559<197 222>
VStem: -64 443
LayerCount: 2
Fore
SplineSet
379 997 m 1
 197 997 l 1
 -64 1556 l 1
 222 1556 l 1
 379 997 l 1
EndSplineSet
EndChar

StartChar: quoteright
Encoding: 8217 8217 221
Width: 580
Flags: W
HStem: 997 559<209 235>
VStem: 52 444
LayerCount: 2
Fore
SplineSet
496 1556 m 1
 235 997 l 1
 52 997 l 1
 209 1556 l 1
 496 1556 l 1
EndSplineSet
EndChar

StartChar: quotesinglbase
Encoding: 8218 8218 222
Width: 432
Flags: W
HStem: -276 559
VStem: -13 399
LayerCount: 2
Fore
SplineSet
386 283 m 1
 125 -276 l 1
 -13 -276 l 1
 144 283 l 1
 386 283 l 1
EndSplineSet
EndChar

StartChar: quotereversed
Encoding: 8219 8219 223
Width: 432
Flags: W
HStem: 997 559
VStem: -64 399
LayerCount: 2
Fore
SplineSet
335 1556 m 1
 178 997 l 1
 -64 997 l 1
 197 1556 l 1
 335 1556 l 1
EndSplineSet
EndChar

StartChar: quotedblleft
Encoding: 8220 8220 224
Width: 850
Flags: W
HStem: 997 559<263 285 612 634>
LayerCount: 2
Fore
SplineSet
725 997 m 1
 546 997 l 1
 285 1556 l 1
 568 1556 l 1
 725 997 l 1
376 997 m 1
 197 997 l 1
 -64 1556 l 1
 219 1556 l 1
 376 997 l 1
EndSplineSet
EndChar

StartChar: quotedblright
Encoding: 8221 8221 225
Width: 1000
Flags: W
HStem: 997 559<264 286 613 635>
LayerCount: 2
Fore
SplineSet
896 1556 m 1
 635 997 l 1
 456 997 l 1
 613 1556 l 1
 896 1556 l 1
547 1556 m 1
 286 997 l 1
 107 997 l 1
 264 1556 l 1
 547 1556 l 1
EndSplineSet
EndChar

StartChar: quotedblbase
Encoding: 8222 8222 226
Width: 814
Flags: W
HStem: -276 559
LayerCount: 2
Fore
SplineSet
781 283 m 1
 520 -276 l 1
 386 -276 l 1
 543 283 l 1
 781 283 l 1
387 283 m 1
 126 -276 l 1
 -8 -276 l 1
 149 283 l 1
 387 283 l 1
EndSplineSet
EndChar

StartChar: dagger
Encoding: 8224 8224 227
Width: 1118
Flags: W
HStem: 998 200<119 454 664 999>
VStem: 449 220<119 1003 1193 1572>
LayerCount: 2
Fore
SplineSet
999 998 m 1
 664 1003 l 1
 669 119 l 1
 449 119 l 1
 454 1003 l 1
 119 998 l 1
 119 1198 l 1
 454 1193 l 1
 449 1572 l 1
 669 1572 l 1
 664 1193 l 1
 999 1198 l 1
 999 998 l 1
EndSplineSet
EndChar

StartChar: daggerdbl
Encoding: 8225 8225 228
Width: 1118
Flags: W
HStem: 471 200<119 449 669 999> 1008 200<119 449 669 999>
VStem: 449 220<108 476 666 1008 1208 1572>
LayerCount: 2
Fore
SplineSet
999 471 m 1
 669 476 l 1
 674 108 l 1
 444 108 l 1
 449 476 l 1
 119 471 l 1
 119 671 l 1
 449 666 l 1
 449 1008 l 1
 119 1003 l 1
 119 1213 l 1
 449 1208 l 1
 444 1572 l 1
 674 1572 l 1
 669 1208 l 1
 999 1213 l 1
 999 1003 l 1
 669 1008 l 1
 669 666 l 1
 999 671 l 1
 999 471 l 1
EndSplineSet
EndChar

StartChar: bullet
Encoding: 8226 8226 229
Width: 950
Flags: W
HStem: 311 702<299.399 634.377>
VStem: 114 703<496.399 829.373>
LayerCount: 2
Fore
SplineSet
465 1013 m 0
 663 1013 817 856 817 662 c 0
 817 473 667 311 465 311 c 0
 265 311 114 472 114 662 c 0
 114 862 275 1013 465 1013 c 0
EndSplineSet
EndChar

StartChar: ellipsis
Encoding: 8230 8230 230
Width: 1650
Flags: W
HStem: 0 223<177 381 735 939 1293 1497>
VStem: 177 204<0 223> 735 204<0 223> 1293 204<0 223>
CounterMasks: 1 70
LayerCount: 2
Fore
SplineSet
1497 0 m 1
 1293 0 l 1
 1293 223 l 1
 1497 223 l 1
 1497 0 l 1
939 0 m 1
 735 0 l 1
 735 223 l 1
 939 223 l 1
 939 0 l 1
381 0 m 1
 177 0 l 1
 177 223 l 1
 381 223 l 1
 381 0 l 1
EndSplineSet
EndChar

StartChar: perthousand
Encoding: 8240 8240 231
Width: 2848
Flags: W
HStem: -29 200<1444.48 1645.08 2288.48 2489.08> 0 21G<510 721.477> 602 200<354.482 555.08> 686 200<1444.48 1645.08 2288.48 2489.08> 1317 200<354.482 555.08>
VStem: 86 220<849.219 1269.32> 603 220<849.891 1269.99> 1176 220<218.219 638.32> 1693 220<218.891 638.992> 2020 220<218.219 638.32> 2537 220<218.891 638.992>
DStem2: 510 0 711 0 0.464029 0.88582<93.2699 1680.93>
LayerCount: 2
Back
SplineSet
455 1517 m 0x2fe0
 666 1517 807 1396 807 1076 c 0
 807 756 666 634 455 634 c 0
 243 634 102 758 102 1075 c 0
 102 1393 243 1517 455 1517 c 0x2fe0
1473 1489 m 1
 693 0 l 1
 528 0 l 1x4fe0
 1308 1489 l 1
 1473 1489 l 1
1545 854 m 0x9fe0
 1756 854 1897 733 1897 413 c 0
 1897 94 1756 -29 1545 -29 c 0
 1333 -29 1192 93 1192 412 c 0
 1192 730 1333 854 1545 854 c 0x9fe0
455 767 m 0x2fe0
 559 767 629 821 629 1076 c 0
 629 1333 559 1384 455 1384 c 0
 350 1384 280 1328 280 1075 c 0
 280 814 350 767 455 767 c 0x2fe0
1545 104 m 0x9fe0
 1649 104 1719 158 1719 413 c 0
 1719 670 1649 721 1545 721 c 0
 1440 721 1370 665 1370 412 c 0
 1370 151 1440 104 1545 104 c 0x9fe0
2389 854 m 0
 2600 854 2741 733 2741 413 c 0
 2741 94 2600 -29 2389 -29 c 0
 2177 -29 2036 93 2036 412 c 0
 2036 730 2177 854 2389 854 c 0
2389 104 m 0
 2493 104 2563 158 2563 413 c 0
 2563 670 2493 721 2389 721 c 0
 2284 721 2214 665 2214 412 c 0
 2214 151 2284 104 2389 104 c 0
EndSplineSet
Fore
SplineSet
2389 886 m 3x9fe0
 2609 886 2757 756 2757 429 c 3
 2757 103 2609 -29 2389 -29 c 3
 2168 -29 2020 102 2020 428 c 3
 2020 755 2168 886 2389 886 c 3x9fe0
2389 171 m 3
 2472 171 2537 210 2537 429 c 3
 2537 648 2472 686 2389 686 c 3
 2306 686 2240 647 2240 428 c 3
 2240 209 2306 171 2389 171 c 3
1545 886 m 3
 1765 886 1913 756 1913 429 c 3
 1913 103 1765 -29 1545 -29 c 3
 1324 -29 1176 102 1176 428 c 3
 1176 755 1324 886 1545 886 c 3
1545 171 m 3
 1628 171 1693 210 1693 429 c 3
 1693 648 1628 686 1545 686 c 3
 1462 686 1396 647 1396 428 c 3
 1396 209 1462 171 1545 171 c 3
455 1517 m 3
 675 1517 823 1387 823 1060 c 3
 823 734 675 602 455 602 c 3x2fe0
 234 602 86 733 86 1059 c 3
 86 1386 234 1517 455 1517 c 3
1491 1489 m 1
 711 0 l 1
 510 0 l 1x4fe0
 1290 1489 l 1
 1491 1489 l 1
455 802 m 3x2fe0
 538 802 603 841 603 1060 c 3
 603 1279 538 1317 455 1317 c 3
 372 1317 306 1278 306 1059 c 3
 306 840 372 802 455 802 c 3x2fe0
EndSplineSet
EndChar

StartChar: minute
Encoding: 8242 8242 232
Width: 602
Flags: W
HStem: 870 619
VStem: 137 434
LayerCount: 2
Fore
SplineSet
571 1489 m 1
 273 870 l 1
 137 870 l 1
 331 1489 l 1
 571 1489 l 1
EndSplineSet
EndChar

StartChar: second
Encoding: 8243 8243 233
Width: 972
Flags: W
HStem: 870 619
LayerCount: 2
Fore
SplineSet
567 1489 m 1
 269 870 l 1
 137 870 l 1
 331 1489 l 1
 567 1489 l 1
961 1489 m 1
 663 870 l 1
 531 870 l 1
 725 1489 l 1
 961 1489 l 1
EndSplineSet
EndChar

StartChar: guilsinglleft
Encoding: 8249 8249 234
Width: 784
Flags: W
VStem: 123 510
DStem2: 123 697 302 652 0.760834 0.648947<106.987 541.177> 302 652 123 608 0.760098 -0.649809<0 434.189>
LayerCount: 2
Fore
SplineSet
633 172 m 1
 123 608 l 1
 123 697 l 1
 633 1132 l 1
 633 933 l 1
 302 652 l 1
 633 371 l 1
 633 172 l 1
EndSplineSet
EndChar

StartChar: guilsinglright
Encoding: 8250 8250 235
Width: 784
Flags: W
VStem: 151 510
DStem2: 151 1132 151 933 0.760834 -0.648947<129.14 563.33> 151 371 151 172 0.760098 0.649809<0 434.189>
LayerCount: 2
Fore
SplineSet
661 608 m 1
 151 172 l 1
 151 371 l 1
 482 652 l 1
 151 933 l 1
 151 1132 l 1
 661 697 l 1
 661 608 l 1
EndSplineSet
EndChar

StartChar: uni203E
Encoding: 8254 8254 237
Width: 1118
Flags: W
HStem: 1658 131<-48 1118>
LayerCount: 2
Fore
SplineSet
1118 1658 m 1
 -48 1658 l 1
 -48 1789 l 1
 1118 1789 l 1
 1118 1658 l 1
EndSplineSet
EndChar

StartChar: fraction
Encoding: 8260 8260 238
Width: 886
Flags: W
HStem: 0 21G<-29 146.477>
DStem2: -29 0 136 0 0.464029 0.88582<76.5648 1680.93>
LayerCount: 2
Fore
SplineSet
916 1489 m 1
 136 0 l 1
 -29 0 l 1
 751 1489 l 1
 916 1489 l 1
EndSplineSet
EndChar

StartChar: uni207F
Encoding: 8319 8319 239
Width: 1010
Flags: W
HStem: 1319 200<419.604 653.01>
VStem: 109 220<566 1248.92 1406 1488> 686 220<566 1291.11>
LayerCount: 2
Fore
SplineSet
586 1519 m 3
 700 1519 906 1472 906 1147 c 2
 906 566 l 1
 686 566 l 1
 686 1072 l 2
 686 1243 678 1319 541 1319 c 3
 496 1319 433 1310 329 1213 c 1
 329 566 l 1
 109 566 l 1
 109 1488 l 1
 329 1488 l 1
 329 1406 l 1
 447 1514 529 1519 586 1519 c 3
EndSplineSet
EndChar

StartChar: dottedcircle
Encoding: 9676 9676 240
Width: 1247
Flags: W
HStem: 7 121<553.139 669.635> 68 121<847.139 963.782> 98 121<288.139 404.913> 234 121<1013.14 1129.78> 249 121<145.139 261.635> 445 121<24.2128 141.099 1090.45 1202.81> 679 121<39.1394 155.635 1074.21 1191.1> 868 121<145.139 261.782> 891 121<967.139 1083.64> 1011 121<334.213 451.099> 1034 121<779.213 895.782> 1079 121<560.213 677.099>
VStem: 22 121<447.213 563.782> 37 121<681.213 797.635> 143 121<251.213 367.635 870.213 987.099> 286 121<100.213 216.709> 332 121<1013.14 1129.78> 551 121<9.21281 125.635 1082.93 1195.67> 777 121<1036.21 1153.1> 845 121<70.2128 187.099> 965 121<893.213 1009.64> 1011 121<236.213 353.099> 1086 121<440.213 556.975 686.328 792.637>
LayerCount: 2
Fore
SplineSet
203 868 m 0x070240
 168 868 143 894 143 928 c 0
 143 962 167 989 203 989 c 0
 240 989 264 962 264 928 c 0
 264 894 238 868 203 868 c 0x070240
392 1011 m 0x0640c0
 358 1011 332 1036 332 1071 c 0
 332 1106 358 1132 392 1132 c 0
 426 1132 453 1108 453 1071 c 0
 453 1035 426 1011 392 1011 c 0x0640c0
618 1079 m 0x061040
 584 1079 558 1104 558 1139 c 0
 558 1174 584 1200 618 1200 c 0
 652 1200 679 1176 679 1139 c 0
 679 1103 652 1079 618 1079 c 0x061040
82 445 m 0
 47 445 22 471 22 505 c 0
 22 540 48 566 82 566 c 0
 116 566 143 542 143 505 c 0x060840
 143 469 116 445 82 445 c 0
203 249 m 0x0e0240
 168 249 143 275 143 309 c 0
 143 342 167 370 203 370 c 0
 238 370 264 343 264 309 c 0
 264 273 236 249 203 249 c 0x0e0240
346 98 m 0x260140
 311 98 286 124 286 158 c 0
 286 192 310 219 346 219 c 0
 377 219 407 197 407 158 c 0
 407 122 380 98 346 98 c 0x260140
611 7 m 0x860040
 576 7 551 33 551 67 c 0
 551 100 575 128 611 128 c 0
 646 128 672 101 672 67 c 0
 672 31 644 7 611 7 c 0x860040
905 68 m 0x460050
 870 68 845 94 845 128 c 0x860050
 845 162 869 189 905 189 c 0x460050
 942 189 966 162 966 128 c 0x860050
 966 94 940 68 905 68 c 0x460050
1071 234 m 0x160044
 1036 234 1011 260 1011 294 c 0
 1011 328 1035 355 1071 355 c 0
 1108 355 1132 328 1132 294 c 0
 1132 260 1106 234 1071 234 c 0x160044
1146 438 m 0
 1111 438 1086 464 1086 498 c 0
 1086 532 1110 559 1146 559 c 0
 1185 559 1207 530 1207 498 c 0x060042
 1207 462 1180 438 1146 438 c 0
1132 679 m 0x060044
 1097 679 1072 705 1072 739 c 0
 1072 774 1098 800 1132 800 c 0
 1166 800 1193 776 1193 739 c 0
 1193 703 1166 679 1132 679 c 0x060044
1025 891 m 0x068048
 990 891 965 917 965 951 c 0
 965 984 989 1012 1025 1012 c 0
 1060 1012 1086 985 1086 951 c 0
 1086 915 1058 891 1025 891 c 0x068048
837 1034 m 0x062060
 803 1034 777 1059 777 1094 c 0
 777 1128 801 1155 837 1155 c 0
 874 1155 898 1128 898 1094 c 0
 898 1060 872 1034 837 1034 c 0x062060
97 679 m 0
 62 679 37 705 37 739 c 0
 37 772 61 800 97 800 c 0
 132 800 158 773 158 739 c 0x060440
 158 703 130 679 97 679 c 0
EndSplineSet
EndChar

StartChar: uni0E10.descless
Encoding: 63232 63232 241
Width: 1245
VWidth: 2045
Flags: W
HStem: 0 21G<691.958 920.888> 132 186<404.116 555.706> 496 184<403.177 555.554> 732 186<384 772.629> 1064 220<494.601 820.816>
VStem: 206 183<330.739 482.599> 795 216<544.727 717.719>
LayerCount: 2
Fore
SplineSet
106 732 m 1
 106 1053 366 1284 658 1284 c 0
 925 1284 1118 1104 1184 902 c 9
 980 818 l 17
 955 913 851 1064 658 1064 c 0
 494 1064 407 954 384 918 c 1
 737 918 l 2
 892 918 1011 794 1011 644 c 1
 918 0 l 1
 698 0 l 1
 640 192 l 17
 600 145 531 132 472 132 c 0
 330 132 206 254 206 406 c 0
 206 561 330 680 480 680 c 0
 649 680 736 540 759 458 c 10
 776 400 l 1
 793 601 l 18
 794 619 795 631 795 637 c 0
 795 641 784 732 704 732 c 2
 106 732 l 1
480 496 m 0
 429 496 389 455 389 408 c 0
 389 362 425 318 480 318 c 0
 536 318 569 363 569 408 c 0
 569 455 532 496 480 496 c 0
EndSplineSet
EndChar

StartChar: uni0E34.left
Encoding: 63233 63233 242
Width: 0
VWidth: 2045
Flags: W
HStem: 1762 174<-1229.32 -892.924>
DStem2: -1291 1672 -1581 1543 0.995651 -0.0931658<0 516.33>
LayerCount: 2
Back
SplineSet
-1396 1593 m 13
 -883 1544 l 1
 -910.333 1582.67 -949.333 1615 -1000 1641 c 0
 -1050 1667 -1105.33 1681 -1166 1683 c 0
 -1194 1683 -1235 1674 -1289 1656 c 0
 -1343.67 1638.67 -1379.33 1617.67 -1396 1593 c 13
-1686 1464 m 21
 -1650 1594 -1581.33 1692 -1480 1758 c 0
 -1380 1825.33 -1275.33 1858.33 -1166 1857 c 0
 -1032 1855 -913 1810 -809 1722 c 0
 -705 1633.33 -644.667 1514.33 -628 1365 c 1
 -1686 1464 l 21
EndSplineSet
Fore
Refer: 175 3636 N 1 0 0 1 -352 0 2
EndChar

StartChar: uni0E35.left
Encoding: 63234 63234 243
Width: 0
VWidth: 2045
Flags: W
HStem: 1759 174<-1229.32 -887.752>
VStem: -680 157<1777 2076>
DStem2: -1291 1669 -1581 1540 0.995651 -0.0931658<0 516.33>
LayerCount: 2
Back
SplineSet
-785 1701 m 13
 -785 2000 l 1
 -628 2000 l 1
 -628 1365 l 1
 -1686 1464 l 1
 -1650 1594 -1581.33 1692 -1480 1758 c 0
 -1380 1825.33 -1275.33 1858.33 -1166 1857 c 0
 -1033.33 1855 -906.333 1803 -785 1701 c 13
-1396 1593 m 13
 -883 1544 l 1
 -910.333 1582.67 -949.333 1615 -1000 1641 c 0
 -1050 1667 -1105.33 1681 -1166 1683 c 0
 -1194 1683 -1235 1674 -1289 1656 c 0
 -1343.67 1638.67 -1379.33 1617.67 -1396 1593 c 13
EndSplineSet
Fore
Refer: 176 3637 N 1 0 0 1 -352 0 2
EndChar

StartChar: uni0E36.left
Encoding: 63235 63235 244
Width: 0
VWidth: 2045
Flags: W
HStem: 1757 174<-1228.88 -938.254> 2007 133<-790.944 -639.157>
VStem: -940 135<1917 1992.81> -625 136<1841.36 1993.98>
DStem2: -1291 1667 -1581 1538 0.995651 -0.0931658<0 516.33>
LayerCount: 2
Back
SplineSet
-761 1639 m 5
 -705 1563 -671 1471.67 -659 1365 c 1
 -1717 1464 l 1
 -1679.67 1594 -1611 1692 -1511 1758 c 0
 -1410.33 1824.67 -1305.67 1857.67 -1197 1857 c 0
 -1157 1856.33 -1116.67 1851.67 -1076 1843 c 1
 -1076 1905 -1054 1957.67 -1010 2001 c 0
 -966.667 2044.33 -913.667 2066 -851 2066 c 128
 -788.333 2066 -735 2044.33 -691 2001 c 128
 -647 1957.67 -625 1905.33 -625 1844 c 128
 -625 1782.67 -647.333 1730 -692 1686 c 0
 -710.667 1666 -733.667 1650.33 -761 1639 c 5
-941 1843 m 132
 -941 1818.33 -932 1797.67 -914 1781 c 0
 -895.333 1763.67 -874.333 1755 -851 1755 c 0
 -827 1755 -805.667 1763.67 -787 1781 c 0
 -769.667 1798.33 -761 1819 -761 1843 c 128
 -761 1867 -769.667 1888.33 -787 1907 c 0
 -804.333 1924.33 -825.667 1933 -851 1933 c 0
 -875.667 1933 -896.667 1924.33 -914 1907 c 0
 -932 1889 -941 1867.67 -941 1843 c 132
-1427 1593 m 13
 -913 1544 l 1
 -941.667 1582.67 -981 1615 -1031 1641 c 0
 -1079.67 1667 -1135 1681 -1197 1683 c 0
 -1224.33 1683 -1265.33 1674 -1320 1656 c 0
 -1374.67 1638.67 -1410.33 1617.67 -1427 1593 c 13
EndSplineSet
Fore
Refer: 177 3638 N 1 0 0 1 -352 0 2
EndChar

StartChar: uni0E37.left
Encoding: 63236 63236 245
Width: 0
VWidth: 2045
Flags: W
HStem: 1764 174<-1229.32 -917.766>
VStem: -916 157<1915 2081> -680 157<1782 2081>
DStem2: -1291 1674 -1581 1545 0.995651 -0.0931658<0 516.33>
LayerCount: 2
Back
SplineSet
-864 1761 m 21
 -840 1744.33 -813.667 1724.33 -785 1701 c 1
 -785 2000 l 1
 -628 2000 l 1
 -628 1365 l 1
 -1686 1464 l 1
 -1650 1594 -1581.33 1692 -1480 1758 c 0
 -1380 1825.33 -1275.33 1858.33 -1166 1857 c 0
 -1118.67 1856.33 -1070.33 1848.67 -1021 1834 c 1
 -1021 2000 l 1
 -864 2000 l 1
 -864 1761 l 21
-1396 1593 m 13
 -883 1544 l 1
 -910.333 1582.67 -949.333 1615 -1000 1641 c 0
 -1050 1667 -1105.33 1681 -1166 1683 c 0
 -1194 1683 -1235 1674 -1289 1656 c 0
 -1343.67 1638.67 -1379.33 1617.67 -1396 1593 c 13
EndSplineSet
Fore
Refer: 178 3639 N 1 0 0 1 -352 0 2
EndChar

StartChar: uni0E48.low_left
Encoding: 63237 63237 246
Width: 0
VWidth: 2045
Flags: W
HStem: 1451 464<-695 -515>
VStem: -695 180<1451 1915>
LayerCount: 2
Back
SplineSet
-820 1298 m 17
 -820 1628 l 1
 -640 1628 l 1
 -640 1298 l 1
 -820 1298 l 17
EndSplineSet
Fore
Refer: 251 63242 N 1 0 0 1 -326 0 2
EndChar

StartChar: uni0E49.low_left
Encoding: 63238 63238 247
Width: 0
VWidth: 2045
Flags: W
HStem: 1846 112<-1023.5 -900.383>
VStem: -1142 113<1716.99 1841.62> -895 113<1716.94 1840.36> -584 157<1765.25 1945>
LayerCount: 2
Back
SplineSet
-808 1897 m 0
 -702 1897 -628 1815 -628 1719 c 0
 -628 1661 -648 1613 -687 1575 c 2
 -754 1503 l 1
 -672 1518 -597 1556 -530 1619 c 0
 -463 1682 -430 1770 -430 1885 c 1
 -273 1885 l 1
 -267 1569 -532 1347 -810 1347 c 2
 -959 1347 l 1
 -959 1501 l 1
 -857 1557 l 1
 -982 1581 -988 1693 -988 1720 c 0
 -988 1817 -913 1897 -808 1897 c 0
-808 1785 m 0
 -851 1785 -875 1752 -875 1719 c 0
 -875 1679 -843 1652 -808 1652 c 0
 -770 1652 -741 1684 -741 1719 c 0
 -741 1748 -765 1785 -808 1785 c 0
EndSplineSet
Fore
Refer: 252 63243 N 1 0 0 1 -435 0 2
EndChar

StartChar: uni0E4A.low_left
Encoding: 63239 63239 248
Width: 0
VWidth: 2045
Flags: W
HStem: 1413 112<-1147.36 -1023.68> 1657 112<-1140.39 -1023.68> 1823 127<-1124.39 -943.116 -809.595 -630.912>
VStem: -1298 145<1528.71 1766> -1019 113<1530.29 1651.71> -598 128<1617.81 1792.52> -337 128<1736.29 1902>
LayerCount: 2
Back
SplineSet
-313 1551 m 1x8f
 -246 1602 -172 1700 -172 1837 c 1
 -44 1837 l 17
 -44 1536 -306 1347 -515 1347 c 1x8f
 -515 1474 l 1
 -515 1474 -433 1525 -433 1616 c 0
 -433 1716 -504 1758 -546 1758 c 0
 -600 1758 -637 1736 -657 1693 c 1
 -758 1693 l 1
 -799 1736 -835 1758 -864 1758 c 0
 -914 1757 -954 1725 -976 1696 c 1
 -957 1701 -938 1704 -921 1704 c 0x3f
 -816 1704 -741 1623 -741 1525 c 0
 -741 1428 -816 1347 -921 1347 c 0
 -1018 1347 -1133 1419 -1133 1595 c 0
 -1133 1806 -958 1885 -864 1885 c 0
 -795 1885 -742 1864 -706 1821 c 1
 -670 1864 -617 1885 -546 1885 c 0
 -444 1885 -305 1786 -305 1616 c 0
 -305 1591 -308 1570 -313 1551 c 1x8f
-921 1592 m 0x6f
 -959 1592 -988 1560 -988 1525 c 0
 -988 1492 -960 1459 -921 1459 c 0
 -884 1459 -854 1490 -854 1525 c 0
 -854 1564 -887 1592 -921 1592 c 0x6f
EndSplineSet
Fore
Refer: 253 63244 N 1 0 0 1 -351 0 2
EndChar

StartChar: uni0E4B.low_left
Encoding: 63240 63240 249
Width: 0
VWidth: 2045
Flags: W
HStem: 1574 178<-996 -846 -665 -515>
VStem: -846 181<1423 1574 1752 1903>
LayerCount: 2
Back
SplineSet
-340 1521 m 1
 -490 1521 l 1
 -490 1371 l 1
 -671 1371 l 1
 -671 1521 l 1
 -821 1521 l 1
 -821 1701 l 1
 -671 1701 l 1
 -671 1850 l 1
 -490 1850 l 1
 -490 1701 l 1
 -340 1701 l 1
 -340 1521 l 1
EndSplineSet
Fore
Refer: 254 63245 N 1 0 0 1 -398 0 2
EndChar

StartChar: uni0E4C.low_left
Encoding: 63241 63241 250
Width: 0
VWidth: 2045
Flags: W
HStem: 1442 134<-836.463 -682.652> 1734 154<-544 -158.875> 1755 133<-834.456 -681.511>
VStem: -983 134<1590.05 1740.9> -669 136<1589.15 1733.35>
LayerCount: 2
Back
SplineSet
-779 1680 m 0xb8
 -826 1680 -869 1644 -869 1591 c 0
 -869 1539 -826 1501 -779 1501 c 0
 -732 1501 -689 1539 -689 1591 c 0
 -689 1644 -732 1680 -779 1680 c 0xb8
-1003 1590 m 0
 -1003 1722 -899 1814 -778 1814 c 2xb8
 -308 1812 l 2
 -244 1812 -197 1831 -168 1870 c 1
 -58 1761 l 1
 -125 1692 -209 1658 -308 1658 c 2
 -564 1660 l 1xd8
 -557 1637 -553 1614 -553 1592 c 0
 -553 1469 -652 1368 -779 1368 c 0
 -898 1368 -1003 1460 -1003 1590 c 0
EndSplineSet
Fore
Refer: 255 63246 N 1 0 0 1 -148 0 2
EndChar

StartChar: uni0E48.low
Encoding: 63242 63242 251
Width: 0
VWidth: 2045
Flags: W
HStem: 1451 464<-369 -189>
VStem: -369 180<1451 1915>
AnchorPoint: "AboveMark" -279 2120 basemark 0
AnchorPoint: "AboveBase" -189 1375 mark 0
LayerCount: 2
Fore
SplineSet
-369 1451 m 17
 -369 1915 l 1
 -189 1915 l 1
 -189 1451 l 1
 -369 1451 l 17
EndSplineSet
EndChar

StartChar: uni0E49.low
Encoding: 63243 63243 252
Width: 0
VWidth: 2045
Flags: W
HStem: 1846 112<-588.502 -465.383>
VStem: -707 113<1716.99 1841.62> -460 113<1716.94 1840.36> -149 157<1765.25 1945>
AnchorPoint: "AboveMark" -404 2120 basemark 0
AnchorPoint: "AboveBase" -80 1375 mark 0
LayerCount: 2
Fore
SplineSet
-527 1958 m 0
 -431 1958 -347 1884 -347 1779 c 0
 -347 1722 -369 1676 -406 1636 c 2
 -473 1563 l 1
 -416 1574 -149 1639 -149 1945 c 1
 8 1945 l 1
 8 1629 -249 1408 -529 1408 c 2
 -678 1408 l 1
 -678 1562 l 1
 -576 1618 l 1
 -702 1643 -707 1753 -707 1781 c 0
 -707 1887 -621 1958 -527 1958 c 0
-527 1846 m 0
 -562 1846 -594 1819 -594 1779 c 0
 -594 1743 -567 1713 -527 1713 c 0
 -480 1713 -460 1754 -460 1779 c 0
 -460 1816 -492 1846 -527 1846 c 0
EndSplineSet
EndChar

StartChar: uni0E4A.low
Encoding: 63244 63244 253
Width: 0
VWidth: 2045
Flags: W
HStem: 1413 112<-796.36 -672.684> 1657 112<-789.386 -672.684> 1823 127<-773.389 -592.116 -458.595 -279.912>
VStem: -947 145<1528.71 1766> -668 113<1530.29 1651.71> -247 128<1617.81 1792.52> 14 128<1736.29 1902>
AnchorPoint: "AboveMark" -520 2120 basemark 0
AnchorPoint: "AboveBase" -164 1375 mark 0
LayerCount: 2
Fore
SplineSet
-127 1617 m 1
 -51 1675 14 1774 14 1902 c 1
 142 1902 l 17
 142 1609 -112 1413 -329 1413 c 1
 -329 1540 l 1
 -329 1540 -247 1590 -247 1682 c 0
 -247 1784 -322 1823 -355 1823 c 0
 -383 1823 -443 1818 -471 1759 c 1
 -572 1759 l 1
 -613 1802 -648 1823 -678 1823 c 0
 -742 1821 -784 1771 -790 1762 c 1
 -773 1767 -755 1769 -735 1769 c 0
 -627 1769 -555 1685 -555 1591 c 0
 -555 1497 -627 1413 -735 1413 c 0
 -830 1413 -947 1481 -947 1660 c 0
 -947 1872 -773 1950 -678 1950 c 0
 -609 1950 -556 1929 -520 1887 c 1
 -484 1930 -431 1950 -360 1950 c 0
 -251 1950 -119 1844 -119 1682 c 0
 -119 1657 -122 1636 -127 1617 c 1
-735 1657 m 0
 -775 1657 -802 1626 -802 1591 c 0
 -802 1556 -775 1525 -735 1525 c 0
 -697 1525 -668 1555 -668 1591 c 0
 -668 1627 -697 1657 -735 1657 c 0
EndSplineSet
EndChar

StartChar: uni0E4B.low
Encoding: 63245 63245 254
Width: 0
VWidth: 2045
Flags: W
HStem: 1574 178<-598 -448 -267 -117>
VStem: -448 181<1423 1574 1752 1903>
AnchorPoint: "AboveMark" -358 2120 basemark 0
AnchorPoint: "AboveBase" -117 1375 mark 0
LayerCount: 2
Fore
SplineSet
-117 1574 m 1
 -267 1574 l 1
 -267 1423 l 1
 -448 1423 l 1
 -448 1574 l 1
 -598 1574 l 1
 -598 1752 l 1
 -448 1752 l 1
 -448 1903 l 1
 -267 1903 l 1
 -267 1752 l 1
 -117 1752 l 1
 -117 1574 l 1
EndSplineSet
EndChar

StartChar: uni0E4C.low
Encoding: 63246 63246 255
Width: 0
VWidth: 2045
Flags: W
HStem: 1442 134<-688.463 -534.652> 1734 154<-396 -10.8749> 1755 133<-686.456 -533.511>
VStem: -835 134<1590.05 1740.9> -521 136<1589.15 1733.35>
AnchorPoint: "AboveMark" -367 2120 basemark 0
AnchorPoint: "AboveBase" -367 1375 mark 0
LayerCount: 2
Fore
SplineSet
-611 1755 m 0xb8
 -658 1755 -701 1717 -701 1665 c 0
 -701 1612 -658 1576 -611 1576 c 0
 -564 1576 -521 1612 -521 1665 c 0
 -521 1717 -564 1755 -611 1755 c 0xb8
-835 1666 m 0
 -835 1794 -732 1888 -610 1888 c 2xb8
 -140 1888 l 1
 -76 1887 -29 1906 0 1945 c 1
 110 1836 l 1
 43 1768 -41 1734 -140 1734 c 2
 -396 1734 l 1xd8
 -389 1710 -385 1687 -385 1664 c 0
 -385 1548 -482 1442 -611 1442 c 0
 -733 1442 -835 1537 -835 1666 c 0
EndSplineSet
EndChar

StartChar: uni0E0D.descless
Encoding: 63247 63247 256
Width: 1940
VWidth: 2045
Flags: W
HStem: -10 186<410.027 563.61> 0 220<1258 1552> 354 184<436.296 565.068> 701 220<435 546> 1062 222<501.127 847.251> 1234 20G<1552 1772>
VStem: 214 183<189.812 340.887> 215 220<533 701> 577 185<187.75 340.268> 1038 220<220 864.928> 1552 220<220 1254>
LayerCount: 2
Fore
SplineSet
677 1284 m 0xb9e0
 996 1284 1256 1032 1258 703 c 1
 1258 220 l 17
 1552 220 l 9
 1552 1254 l 1
 1772 1254 l 1x75e0
 1772 0 l 25
 1038 0 l 25
 1038 700 l 2
 1038 911 870 1062 675 1062 c 0
 504 1062 413 952 390 921 c 1
 546 921 l 1
 546 701 l 1
 435 701 l 1
 435 533 l 17x79e0
 452 536 469 538 488 538 c 0
 643 538 762 414 762 264 c 0
 762 109 638 -10 488 -10 c 0
 331 -10 214 115 214 264 c 2xbae0
 215 701 l 1
 95 701 l 1
 95 1022 350 1284 677 1284 c 0xb9e0
488 354 m 0
 437 354 397 313 397 266 c 0
 397 220 433 176 488 176 c 0xb2e0
 544 176 577 221 577 266 c 0
 577 313 540 354 488 354 c 0
EndSplineSet
EndChar

StartChar: uni0E38.low
Encoding: 63256 63256 265
Width: 0
VWidth: 2045
Flags: W
HStem: -1105 133<-616.914 -496.863> -794 134<-618.23 -465.081>
VStem: -768 136<-957.115 -806.506> -496 180<-1328 -1102> -452 136<-959.271 -808.239>
LayerCount: 2
Back
SplineSet
-478 -657 m 0
 -414 -657 -317 -685 -317 -872 c 2
 -317 -1108 l 1
 -448 -1108 l 1
 -448 -932 l 1
 -458 -943 -469 -948 -480 -948 c 0
 -576 -948 -631 -911 -631 -818 c 0
 -631 -738 -600 -657 -478 -657 c 0
-439 -810 m 0
 -439 -748 -469 -736 -489 -736 c 0
 -533 -736 -555 -760 -555 -809 c 0
 -555 -858 -533 -882 -489 -882 c 0
 -456 -882 -439 -858 -439 -810 c 0
EndSplineSet
Fore
Refer: 179 3640 N 1 0 0 1 -158 -573 2
EndChar

StartChar: uni0E39.low
Encoding: 63257 63257 266
Width: 0
VWidth: 2045
Flags: W
HStem: -1351 156<-699 -536> -1108 133<-1000.03 -879.618> -797 134<-1001.4 -847.67>
VStem: -1150 136<-962.112 -809.654> -879 180<-1195 -1105> -835 136<-962.504 -810.438> -536 180<-1195 -661>
LayerCount: 2
Back
SplineSet
-756 -657 m 0
 -659 -657 -594 -708 -594 -872 c 2
 -594 -1008 l 1
 -451 -1008 l 1
 -451 -670 l 1
 -317 -670 l 1
 -317 -1108 l 1
 -725 -1108 l 1
 -725 -932 l 1
 -738 -949 -760 -949 -792 -949 c 0
 -857 -949 -908 -893 -908 -818 c 0
 -908 -719 -840 -657 -756 -657 c 0
-718 -806 m 0
 -718 -770 -728 -736 -768 -736 c 0
 -804 -736 -832 -765 -832 -809 c 0
 -832 -857 -814 -881 -777 -881 c 0
 -730 -881 -718 -842 -718 -806 c 0
EndSplineSet
Fore
Refer: 180 3641 N 1 0 0 1 -205 -576 2
EndChar

StartChar: uni0E3A.low
Encoding: 63258 63258 267
Width: 0
VWidth: 2045
Flags: W
HStem: -1013 356<-620.489 -385.23>
VStem: -684 360<-951.849 -718.31>
LayerCount: 2
Back
SplineSet
-542 -768 m 0
 -542 -684 -472 -633 -408 -633 c 0
 -324 -633 -274 -709 -274 -768 c 0
 -274 -855 -352 -902 -408 -902 c 0
 -477 -902 -542 -848 -542 -768 c 0
EndSplineSet
Fore
Refer: 181 3642 N 1 0 0 1 -132 -575 2
EndChar

StartChar: uniF71B
Encoding: 63259 63259 268
Width: 998
VWidth: 2045
Flags: W
HStem: 1064 20G<215 829>
VStem: 215 614<60 1084>
LayerCount: 2
Fore
SplineSet
829 1084 m 1
 829 60 l 1
 215 60 l 1
 215 1084 l 1
 829 1084 l 1
EndSplineSet
EndChar

StartChar: uniF71C
Encoding: 63260 63260 269
Width: 698
VWidth: 2045
Flags: W
HStem: -423 269
VStem: 107 378
LayerCount: 2
Fore
SplineSet
107 -423 m 1
 244 -154 l 1
 485 -154 l 1
 244 -423 l 1
 107 -423 l 1
EndSplineSet
EndChar

StartChar: uniF71D
Encoding: 63261 63261 270
Width: 798
VWidth: 2045
Flags: W
HStem: -236 211<183 265 531 616> -127 102<265 531>
VStem: 183 82<-236 -127> 531 85<-236 -127>
LayerCount: 2
Fore
SplineSet
616 -236 m 1xb0
 531 -236 l 1xb0
 531 -127 l 1
 265 -127 l 1x70
 265 -236 l 1
 183 -236 l 1
 183 -25 l 1
 616 -25 l 1
 616 -236 l 1xb0
EndSplineSet
EndChar

StartChar: zerowidthnonjoiner
Encoding: 8204 8204 271
Width: 0
Flags: W
LayerCount: 2
Back
SplineSet
36 1289 m 1
 36 -275 l 1
 -36 -275 l 1
 -36 1289 l 1
 36 1289 l 1
EndSplineSet
EndChar

StartChar: uni0E47.high
Encoding: 63263 63263 278
Width: 0
VWidth: 2045
Flags: W
HStem: 2136 116<-527.287 -456.983> 2219 131<-800 -677.044> 2324 116<-526.407 -456.119> 2448 122<-868.044 -401.381>
VStem: -1014 131<2284.86 2433.47> -645 117<2284.22 2321.36> -455 117<2253.54 2323.16>
AnchorPoint: "AboveMark" -659 2625 basemark 0
AnchorPoint: "AboveMark" -659 2120 mark 0
LayerCount: 2
Back
SplineSet
-747.824 2459.24 m 0xbe
 -882.224 2459.24 -898.352 2403.94 -898.352 2344.04 c 0
 -898.352 2296.42 -881.456 2268.78 -848.432 2261.86 c 1
 -848.432 2314.86 -814.64 2334.82 -783.92 2334.82 c 0x7e
 -712.496 2334.82 -681.776 2272.62 -627.248 2261.86 c 1
 -628.784 2270.31 -629.552 2278.76 -629.552 2287.21 c 0
 -629.552 2369.38 -564.271 2424.68 -491.312 2424.68 c 0
 -416.816 2424.68 -353.072 2365.54 -353.072 2287.21 c 0
 -353.072 2228.07 -393.008 2150.5 -505.904 2150.5 c 0xbe
 -651.056 2150.5 -694.064 2234.22 -760.88 2234.22 c 0x7e
 -795.44 2234.22 -798.512 2215.78 -798.512 2178.92 c 0
 -798.512 2168.94 -797.744 2159.72 -796.976 2150.5 c 1
 -975.92 2172.78 -998.96 2275.69 -998.96 2347.88 c 0
 -998.96 2510.7 -860.72 2550.63 -753.968 2550.63 c 0
 -704.048 2550.63 -661.808 2541.42 -586.544 2541.42 c 0
 -459.056 2541.42 -386.096 2572.9 -367.664 2637.42 c 1
 -289.328 2591.34 l 1
 -316.208 2498.41 -407.6 2451.56 -564.271 2450.79 c 0
 -655.664 2450.79 -692.528 2459.24 -747.824 2459.24 c 0xbe
-491.312 2338.66 m 0
 -518.192 2338.66 -542.768 2317.93 -542.768 2287.21 c 0
 -542.768 2259.56 -522.032 2236.52 -491.312 2236.52 c 0xbe
 -460.592 2236.52 -439.856 2260.33 -439.856 2287.21 c 0
 -439.856 2316.39 -464.432 2338.66 -491.312 2338.66 c 0
EndSplineSet
Fore
SplineSet
-272 2602 m 1x5e
 -304 2491 -396 2441 -564 2440 c 0x3e
 -656 2440 -695 2448 -748 2448 c 0
 -875 2448 -883 2398 -883 2344 c 0
 -883 2310 -874 2292 -862 2283 c 1
 -853 2331 -816 2350 -784 2350 c 0x5e
 -716 2350 -679 2301 -645 2284 c 1
 -645 2377 -573 2440 -491 2440 c 0
 -409 2440 -338 2374 -338 2287 c 0
 -338 2221 -384 2136 -506 2136 c 0xbe
 -657 2136 -708 2219 -761 2219 c 0
 -784 2219 -784 2216 -784 2179 c 0
 -784 2164 -781 2148 -780 2133 c 1
 -964 2150 -1014 2255 -1014 2348 c 0
 -1014 2523 -863 2570 -754 2570 c 0
 -702 2570 -661 2560 -587 2560 c 0
 -444 2560 -396 2594 -377 2664 c 1
 -272 2602 l 1x5e
-491 2324 m 0
 -510 2324 -528 2309 -528 2287 c 0
 -528 2267 -513 2252 -491 2252 c 0xbe
 -469 2252 -455 2268 -455 2287 c 0
 -455 2307 -472 2324 -491 2324 c 0
EndSplineSet
EndChar

StartChar: ff
Encoding: 64256 64256 279
Width: 1024
Flags: W
HStem: 0 21G<157 377 726 946> 862 200<19 157 377 726 946 1105> 1315 200<430.305 741.171 982.981 1206.41>
VStem: 157 220<0 862 1062 1257.11> 726 220<0 862 1062 1277.94>
LayerCount: 2
Back
SplineSet
1093 1315 m 3
 1007 1315 946 1271 946 1132 c 2
 946 1062 l 1
 1105 1062 l 1
 1105 862 l 1
 946 862 l 1
 946 0 l 1
 726 0 l 1
 726 862 l 1
 588 862 l 1
 588 1062 l 1
 726 1062 l 1
 726 1175 l 2
 726 1447 899 1515 1031 1515 c 3
 1098 1515 1158 1506 1209 1488 c 1
 1209 1288 l 1
 1149 1307 1128 1315 1093 1315 c 3
726 862 m 1
 377 862 l 1
 377 0 l 1
 157 0 l 1
 157 862 l 1
 19 862 l 1
 19 1062 l 1
 157 1062 l 1
 157 1175 l 2
 157 1447 330 1515 592 1515 c 3
 659 1515 837 1506 901 1443 c 1
 901 1243 l 1
 828 1307 689 1315 654 1315 c 3
 438 1315 377 1271 377 1132 c 2
 377 1062 l 1
 726 1062 l 1
 726 862 l 1
EndSplineSet
Fore
SplineSet
377 1132 m 2
 377 1062 l 1
 726 1062 l 1
 726 1175 l 2
 726 1226 732 1270 743 1307 c 1
 703 1314 669 1315 654 1315 c 3
 438 1315 377 1271 377 1132 c 2
861 1470 m 1
 915 1503 976 1515 1031 1515 c 3
 1098 1515 1158 1506 1209 1488 c 1
 1209 1288 l 1
 1149 1307 1128 1315 1093 1315 c 3
 1007 1315 946 1271 946 1132 c 2
 946 1062 l 1
 1105 1062 l 1
 1105 862 l 1
 946 862 l 1
 946 0 l 1
 726 0 l 1
 726 862 l 1
 377 862 l 1
 377 0 l 1
 157 0 l 1
 157 862 l 1
 19 862 l 1
 19 1062 l 1
 157 1062 l 1
 157 1175 l 2
 157 1447 330 1515 592 1515 c 3
 648 1515 781 1509 861 1470 c 1
EndSplineSet
LCarets2: 1 0 
Ligature2: "'liga' Standard Ligatures lookup 0" f f
EndChar

StartChar: fi
Encoding: 64257 64257 280
Width: 1024
Flags: W
HStem: 0 21G<157 377 685 905> 862 200<19 157 377 685> 1315 200<430.305 858.706>
VStem: 157 220<0 862 1062 1257.11> 685 220<0 862>
LayerCount: 2
Fore
SplineSet
654 1315 m 3
 438 1315 377 1271 377 1132 c 2
 377 1062 l 1
 905 1062 l 1
 905 0 l 1
 685 0 l 1
 685 862 l 1
 377 862 l 1
 377 0 l 1
 157 0 l 1
 157 862 l 1
 19 862 l 1
 19 1062 l 1
 157 1062 l 1
 157 1175 l 2
 157 1447 330 1515 592 1515 c 3
 659 1515 837 1506 901 1443 c 1
 901 1243 l 1
 828 1307 689 1315 654 1315 c 3
EndSplineSet
LCarets2: 1 0 
Ligature2: "'liga' Standard Ligatures lookup 0" f i
EndChar

StartChar: fl
Encoding: 64258 64258 281
Width: 1024
Flags: W
HStem: 0 21G<157 377 681 901> 862 200<19 157 377 536> 1315 200<433.693 680.125>
VStem: 157 220<0 862 1062 1257.11> 681 220<0 1314.54>
LayerCount: 2
Back
SplineSet
681 0 m 1
 681 1466 l 1
 901 1466 l 1
 901 0 l 1
 681 0 l 1
654 1315 m 3
 438 1315 377 1271 377 1132 c 2
 377 1062 l 1
 536 1062 l 1
 536 862 l 1
 377 862 l 1
 377 0 l 1
 157 0 l 1
 157 862 l 1
 19 862 l 1
 19 1062 l 1
 157 1062 l 1
 157 1175 l 2
 157 1447 330 1515 592 1515 c 3
 659 1515 837 1506 901 1466 c 1
 901 1266 l 1
 828 1307 689 1315 654 1315 c 3
EndSplineSet
Fore
SplineSet
377 1132 m 2
 377 1062 l 1
 536 1062 l 1
 536 862 l 1
 377 862 l 1
 377 0 l 1
 157 0 l 1
 157 862 l 1
 19 862 l 1
 19 1062 l 1
 157 1062 l 1
 157 1175 l 2
 157 1447 330 1515 592 1515 c 3
 659 1515 837 1506 901 1466 c 1
 901 0 l 1
 681 0 l 1
 681 1312 l 1
 655 1314 632 1315 610 1315 c 3
 441 1315 377 1254 377 1132 c 2
EndSplineSet
LCarets2: 1 0 
Ligature2: "'liga' Standard Ligatures lookup 0" f l
EndChar

StartChar: ffi
Encoding: 64259 64259 282
Width: 1593
Flags: W
HStem: 0 21G<157 377 726 946 1254 1474> 862 200<19 157 377 726 946 1254> 1315 200<430.305 740.746 996.317 1427.71>
VStem: 157 220<0 862 1062 1257.11> 726 220<0 862 1062 1264.16> 1254 220<0 862>
LayerCount: 2
Back
SplineSet
377 1132 m 2
 377 1062 l 1
 726 1062 l 1
 726 1175 l 2
 726 1447 899 1515 1161 1515 c 0
 1228 1515 1406 1506 1470 1443 c 1
 1470 1243 l 1
 1397 1307 1258 1315 1223 1315 c 0
 1007 1315 946 1271 946 1132 c 2
 946 1062 l 1
 1474 1062 l 1
 1474 0 l 1
 1254 0 l 1
 1254 862 l 1
 946 862 l 1
 946 0 l 1
 726 0 l 1
 726 862 l 1
 377 862 l 1
 377 0 l 1
 157 0 l 1
 157 862 l 1
 19 862 l 1
 19 1062 l 1
 157 1062 l 1
 157 1175 l 2
 157 1447 330 1515 592 1515 c 0
 659 1515 837 1506 901 1443 c 1
 901 1243 l 1
 828 1307 689 1315 654 1315 c 0
 438 1315 377 1271 377 1132 c 2
EndSplineSet
Fore
SplineSet
377 1132 m 2
 377 1062 l 1
 726 1062 l 1
 726 1175 l 2
 726 1226 732 1270 743 1307 c 1
 703 1314 669 1315 654 1315 c 3
 438 1315 377 1271 377 1132 c 2
873 1464 m 1
 947 1502 1045 1515 1161 1515 c 3
 1228 1515 1406 1506 1470 1443 c 1
 1470 1243 l 1
 1397 1307 1258 1315 1223 1315 c 3
 1007 1315 946 1271 946 1132 c 2
 946 1062 l 1
 1474 1062 l 1
 1474 0 l 1
 1254 0 l 1
 1254 862 l 1
 946 862 l 1
 946 0 l 1
 726 0 l 1
 726 862 l 1
 377 862 l 1
 377 0 l 1
 157 0 l 1
 157 862 l 1
 19 862 l 1
 19 1062 l 1
 157 1062 l 1
 157 1175 l 2
 157 1447 330 1515 592 1515 c 3
 651 1515 795 1509 873 1464 c 1
EndSplineSet
LCarets2: 2 0 0 
Ligature2: "'liga' Standard Ligatures lookup 0" ff i
Ligature2: "'liga' Standard Ligatures lookup 0" f f i
EndChar

StartChar: ffl
Encoding: 64260 64260 283
Width: 1593
Flags: W
HStem: 0 21G<157 377 726 946 1250 1470> 862 200<19 157 377 726 946 1105> 1315 200<430.305 740.746 1001.96 1249.12>
VStem: 157 220<0 862 1062 1257.11> 726 220<0 862 1062 1260.27> 1250 220<0 1314.54>
LayerCount: 2
Back
SplineSet
1250 0 m 1
 1250 1466 l 1
 1470 1466 l 1
 1470 0 l 1
 1250 0 l 1
1223 1315 m 3
 1007 1315 946 1271 946 1132 c 2
 946 1062 l 1
 1105 1062 l 1
 1105 862 l 1
 946 862 l 1
 946 0 l 1
 726 0 l 1
 726 862 l 1
 588 862 l 1
 588 1062 l 1
 726 1062 l 1
 726 1175 l 2
 726 1447 899 1515 1161 1515 c 3
 1228 1515 1406 1506 1470 1466 c 1
 1470 1266 l 1
 1397 1307 1258 1315 1223 1315 c 3
726 862 m 1
 377 862 l 1
 377 0 l 1
 157 0 l 1
 157 862 l 1
 19 862 l 1
 19 1062 l 1
 157 1062 l 1
 157 1175 l 2
 157 1447 330 1515 592 1515 c 3
 659 1515 837 1506 901 1443 c 1
 901 1243 l 1
 828 1307 689 1315 654 1315 c 3
 438 1315 377 1271 377 1132 c 2
 377 1062 l 1
 726 1062 l 1
 726 862 l 1
EndSplineSet
Fore
SplineSet
946 1132 m 2
 946 1062 l 1
 1105 1062 l 1
 1105 862 l 1
 946 862 l 1
 946 0 l 1
 726 0 l 1
 726 862 l 1
 377 862 l 1
 377 0 l 1
 157 0 l 1
 157 862 l 1
 19 862 l 1
 19 1062 l 1
 157 1062 l 1
 157 1175 l 2
 157 1447 330 1515 592 1515 c 3
 651 1515 795 1509 873 1464 c 1
 947 1502 1045 1515 1161 1515 c 3
 1228 1515 1406 1506 1470 1466 c 1
 1470 0 l 1
 1250 0 l 1
 1250 1312 l 1
 1224 1314 1201 1315 1179 1315 c 3
 1010 1315 946 1254 946 1132 c 2
743 1307 m 1
 703 1314 669 1315 654 1315 c 3
 438 1315 377 1271 377 1132 c 2
 377 1062 l 1
 726 1062 l 1
 726 1175 l 2
 726 1226 732 1270 743 1307 c 1
EndSplineSet
LCarets2: 2 0 0 
Ligature2: "'liga' Standard Ligatures lookup 0" ff l
Ligature2: "'liga' Standard Ligatures lookup 0" f f l
EndChar

StartChar: dotlessi
Encoding: 305 305 284
Width: 455
Flags: W
HStem: 0 21G<106 346> 1042 20G<106 346>
VStem: 106 240<0 1062>
LayerCount: 2
Fore
SplineSet
106 0 m 1
 106 1062 l 1
 346 1062 l 1
 346 0 l 1
 106 0 l 1
EndSplineSet
EndChar

StartChar: dotlessj
Encoding: 567 567 285
Width: 455
Flags: W
HStem: -428 215<-92.0349 75.2804> 1042 20G<112 340>
VStem: 112 228<-175.048 1062>
LayerCount: 2
Fore
SplineSet
340 -58 m 2
 340 -336 230 -428 65 -428 c 0
 8 -428 -45 -423 -94 -412 c 1
 -94 -205 l 1
 -59 -210 -38 -213 -29 -213 c 0
 56 -213 112 -176 112 -20 c 2
 112 1062 l 1
 340 1062 l 1
 340 -58 l 2
EndSplineSet
EndChar

StartChar: AE
Encoding: 198 198 286
Width: 1951
Flags: W
HStem: 0 220<1117 1807> 443 220<575 877> 626 220<1117 1631> 1230 220<839 877 1117 1807>
VStem: 877 240<220 443 846 1230>
DStem2: -2 0 273 0 0.415315 0.909678<114.212 602.338 842.753 1468.18>
LayerCount: 2
Fore
SplineSet
660 1450 m 1xd8
 1807 1450 l 1
 1807 1230 l 1
 1117 1230 l 1
 1117 846 l 1
 1631 846 l 1
 1631 626 l 1
 1117 626 l 1xb8
 1117 220 l 1
 1807 220 l 1
 1807 0 l 1
 877 0 l 1
 877 443 l 1
 478 443 l 1
 273 0 l 1
 -2 0 l 1
 660 1450 l 1xd8
877 1230 m 1
 839 1230 l 1
 575 663 l 1
 877 663 l 1xd8
 877 1230 l 1
EndSplineSet
EndChar

StartChar: ae
Encoding: 230 230 287
Width: 1839
Flags: W
HStem: -13 200<335.481 677.831 1125.38 1449.74> 475 200<1007 1529> 495 200<607.963 775> 895 200<405.793 715.877 1111.65 1439.84>
VStem: 74 220<226.365 390.79> 775 226<321.018 475> 1529 226<265.529 333 675 793.967>
LayerCount: 2
Back
SplineSet
995 445 m 2xbe
 995 173 762 -13 437 -13 c 3
 149 -13 74 164 74 289 c 3
 74 499 230 600 492 633 c 0
 600 646 695 666 776 695 c 1
 770 836 707 895 558 895 c 3
 422 895 342 818 318 738 c 1
 105 768 l 1
 152 991 304 1095 584 1095 c 3
 864 1095 995 1017 995 694 c 2
 995 445 l 2xbe
294 308 m 3
 294 212 412 187 487 187 c 3
 675 187 775 262 775 444 c 2
 775 495 l 1
 554 414 294 469 294 308 c 3
1282 187 m 3
 1475 187 1512 293 1520 333 c 1
 1748 333 l 1
 1706 118 1539 -13 1281 -13 c 3
 949 -13 775 188 775 525 c 3
 775 870 950 1095 1271 1095 c 3
 1576 1095 1755 878 1755 539 c 3
 1755 521 1754 493 1753 475 c 1
 1001 475 l 1xde
 1012 313 1109 187 1282 187 c 3
1529 675 m 1
 1515 818 1433 895 1272 895 c 3
 1115 895 1015 795 1007 675 c 1
 1529 675 l 1
EndSplineSet
Fore
SplineSet
1529 675 m 1xde
 1515 818 1433 895 1272 895 c 3
 1115 895 1015 795 1007 675 c 1
 1529 675 l 1xde
1282 187 m 3
 1475 187 1512 293 1520 333 c 1
 1748 333 l 1
 1706 118 1539 -13 1281 -13 c 3
 1100 -13 967 46 882 155 c 1
 783 49 625 -13 437 -13 c 3
 149 -13 74 164 74 289 c 3
 74 499 230 600 492 633 c 0
 600 646 695 666 776 695 c 1xbe
 770 836 707 895 558 895 c 3
 422 895 342 818 318 738 c 1
 105 768 l 1
 152 991 304 1095 584 1095 c 3
 754 1095 869 1067 933 972 c 1
 1015 1051 1129 1095 1271 1095 c 3
 1576 1095 1755 878 1755 539 c 3
 1755 521 1754 493 1753 475 c 1
 1001 475 l 1
 1012 313 1109 187 1282 187 c 3
294 308 m 3
 294 212 412 187 487 187 c 3
 675 187 775 262 775 444 c 2
 775 495 l 1
 554 414 294 469 294 308 c 3
EndSplineSet
EndChar

StartChar: OE
Encoding: 338 338 288
Width: 2158
Flags: W
HStem: -13 220<557.243 879.265 1324 2014> 626 220<1324 1838> 1230 220<1324 2014> 1262 220<553.078 872.143>
VStem: 104 240<463.822 997.643> 1084 240<457.977 626 846 997.726>
LayerCount: 2
Fore
SplineSet
717 1262 m 3xdc
 441 1262 344 995 344 712 c 3
 344 401 509 207 714 207 c 3
 990 207 1084 487 1084 731 c 3
 1084 1055 927 1262 717 1262 c 3xdc
714 -13 m 3
 376 -13 104 286 104 714 c 3
 104 1183 355 1482 715 1482 c 3xdc
 856 1482 983 1433 1084 1344 c 1
 1084 1450 l 1
 2014 1450 l 1
 2014 1230 l 1
 1324 1230 l 1xec
 1324 846 l 1
 1838 846 l 1
 1838 626 l 1
 1324 626 l 1
 1324 219 l 1
 2014 219 l 1
 2014 0 l 1
 1084 0 l 1
 1084 124 l 1
 983 36 857 -13 714 -13 c 3
EndSplineSet
EndChar

StartChar: oe
Encoding: 339 339 289
Width: 1890
Flags: W
HStem: -13 200<410.297 726.289 1194.06 1517.74> 475 200<1075 1597> 895 200<410.297 724.576 1179.3 1507.84>
VStem: 68 220<316.445 765.555> 843 226<321.433 475 675 723> 1597 226<265.529 333 675 793.967>
LayerCount: 2
Fore
SplineSet
566 895 m 3
 340 895 288 723 288 541 c 3
 288 359 340 187 566 187 c 3
 792 187 843 359 843 541 c 3
 843 723 792 895 566 895 c 3
566 -13 m 3
 244 -13 68 187 68 541 c 3
 68 895 244 1095 566 1095 c 3
 742 1095 874 1035 958 923 c 1
 1042 1032 1170 1095 1339 1095 c 3
 1644 1095 1823 878 1823 539 c 0
 1823 521 1822 493 1821 475 c 1
 1069 475 l 1
 1080 313 1177 187 1350 187 c 3
 1543 187 1580 293 1588 333 c 1
 1816 333 l 1
 1774 118 1607 -13 1349 -13 c 3
 1170 -13 1037 45 952 152 c 1
 868 44 738 -13 566 -13 c 3
1597 675 m 1
 1583 818 1501 895 1340 895 c 3
 1183 895 1083 795 1075 675 c 1
 1597 675 l 1
EndSplineSet
EndChar

StartChar: germandbls
Encoding: 223 223 290
Width: 1238
Flags: W
HStem: -13 220<666.847 890.993> 1262 220<447.809 695.718>
VStem: 156 240<0 1207.73> 582 240<761.018 928.027> 712 240<1018.76 1242.43> 909 240<225.252 400.591>
LayerCount: 2
Fore
SplineSet
570 1262 m 3xe8
 431 1262 396 1191 396 957 c 2
 396 0 l 1
 156 0 l 1
 156 957 l 2
 156 1300 254 1482 573 1482 c 3
 784 1482 952 1383 952 1180 c 3xe8
 952 1014 822 914 822 843 c 3
 822 733 1149 564 1149 326 c 3
 1149 123 1013 -13 818 -13 c 3
 672 -13 566 33 495 161 c 1
 690 290 l 1
 718 237 753 207 794 207 c 3
 879 207 909 251 909 314 c 3
 909 428 582 626 582 782 c 3xf4
 582 886 712 1063 712 1158 c 3
 712 1227 669 1262 570 1262 c 3xe8
EndSplineSet
EndChar

StartChar: guillemotright
Encoding: 187 187 291
Width: 1174
Flags: W
DStem2: 87 1148 87 918 0.75905 -0.651032<149.737 556.699> 87 386 87 156 0.758329 0.651872<0 406.963> 517 1177 517 939 0.753437 -0.65752<156.49 588.558> 517 365 517 127 0.752749 0.658308<0 432.072>
LayerCount: 2
Fore
SplineSet
87 156 m 1
 87 386 l 1
 395 652 l 1
 87 918 l 1
 87 1148 l 1
 607 702 l 1
 607 603 l 1
 87 156 l 1
517 127 m 1
 517 365 l 1
 840 652 l 1
 517 939 l 1
 517 1177 l 1
 1059 704 l 1
 1059 601 l 1
 517 127 l 1
EndSplineSet
EndChar

StartChar: questiondown
Encoding: 191 191 292
Width: 1139
Flags: W
HStem: 0 220<414.537 675.361> 1269 235<431 705>
VStem: 90 240<297.092 558.879> 431 274<1269 1504> 453 240<945.86 1143> 796 240<344.463 458>
LayerCount: 2
Fore
SplineSet
561 0 m 3xec
 291 0 90 164 90 420 c 3
 90 480 103 580 231 722 c 0
 327 828 453 924 453 1143 c 1
 693 1143 l 1
 693 889 592 790 496 701 c 0
 342 558 330 473 330 416 c 3
 330 261 484 220 558 220 c 3
 685 220 796 371 796 458 c 1
 1036 458 l 1
 1036 204 833 0 561 0 c 3xec
705 1504 m 1xf4
 705 1269 l 1
 431 1269 l 1
 431 1504 l 1
 705 1504 l 1xf4
EndSplineSet
EndChar

StartChar: trademark
Encoding: 8482 8482 293
Width: 1820
Flags: W
HStem: 605 845<288 508 846 1051 1459 1664> 1250 200<48 288 508 749>
VStem: 288 220<605 1250> 846 220<605 888> 1444 220<605 888>
LayerCount: 2
Fore
SplineSet
1331 605 m 1xb8
 1179 605 l 1
 1066 888 l 1
 1066 605 l 1
 846 605 l 1
 846 1450 l 1
 1051 1450 l 1
 1255 930 l 1
 1459 1450 l 1
 1664 1450 l 1
 1664 605 l 1
 1444 605 l 1
 1444 888 l 1
 1331 605 l 1xb8
288 605 m 1
 288 1250 l 1
 48 1250 l 1
 48 1450 l 1
 749 1450 l 1
 749 1250 l 1
 508 1250 l 1x78
 508 605 l 1
 288 605 l 1
EndSplineSet
EndChar

StartChar: uni00B9
Encoding: 185 185 294
Width: 1010
VWidth: 2614
Flags: W
VStem: 433 220<534 1139 1377.38 1512>
LayerCount: 2
Fore
SplineSet
253 1271 m 1
 368 1325 405 1373 440 1512 c 1
 653 1512 l 1
 653 534 l 1
 433 534 l 1
 433 1139 l 1
 352 1071 323 1066 253 1049 c 1
 253 1271 l 1
EndSplineSet
EndChar

StartChar: ordmasculine
Encoding: 186 186 295
Width: 1010
Flags: W
HStem: 735 200<414.274 592.176> 1282 200<418.158 588.637>
VStem: 160 220<966.084 1249.95> 629 220<966.653 1243.49>
LayerCount: 2
Fore
SplineSet
506 735 m 3
 279 735 160 899 160 1104 c 3
 160 1331 291 1482 506 1482 c 3
 703 1482 849 1350 849 1104 c 3
 849 935 780 735 506 735 c 3
380 1104 m 3
 380 995 424 935 503 935 c 3
 582 935 629 995 629 1104 c 3
 629 1213 582 1282 503 1282 c 3
 424 1282 380 1213 380 1104 c 3
EndSplineSet
EndChar

StartChar: onequarter
Encoding: 188 188 296
Width: 1691
VWidth: 2007
Flags: W
HStem: 130 200<1240 1361 1581 1691>
VStem: 237 220<526 1131 1369.46 1504> 1361 220<-73 130 330 520>
DStem2: 282 -85 514 -85 0.491588 0.870828<114.048 1824.7>
LayerCount: 2
Fore
SplineSet
1361 -73 m 1
 1361 130 l 1
 985 130 l 1
 985 308 l 1
 1376 905 l 1
 1581 905 l 1
 1581 330 l 1
 1691 330 l 1
 1691 130 l 1
 1581 130 l 1
 1581 -73 l 1
 1361 -73 l 1
1361 330 m 1
 1361 520 l 1
 1240 330 l 1
 1361 330 l 1
57 1263 m 1
 171 1320 209 1363 244 1504 c 1
 457 1504 l 1
 457 526 l 1
 237 526 l 1
 237 1131 l 1
 156 1063 127 1058 57 1041 c 1
 57 1263 l 1
514 -85 m 1
 282 -85 l 1
 1179 1504 l 1
 1411 1504 l 1
 514 -85 l 1
EndSplineSet
EndChar

StartChar: onehalf
Encoding: 189 189 297
Width: 1691
VWidth: 2007
Flags: W
HStem: -73 200<1305 1674> 711 200<1271.29 1440.86>
VStem: 237 220<526 1131 1369.38 1504> 1030 220<572 687.992> 1454 220<513.671 694.292>
DStem2: 249 -85 481 -85 0.491588 0.870828<114.048 1824.7>
LayerCount: 2
Fore
SplineSet
1357 911 m 3
 1544 911 1673 794 1673 626 c 3
 1673 391 1423 255 1305 127 c 1
 1674 127 l 1
 1674 -73 l 1
 1005 -73 l 1
 1018 74 1079 187 1153 261 c 0
 1294 403 1454 498 1454 629 c 3
 1454 675 1401 711 1356 711 c 3
 1276 711 1253 659 1250 572 c 1
 1030 572 l 1
 1030 778 1143 911 1357 911 c 3
57 1263 m 1
 172 1317 209 1365 244 1504 c 1
 457 1504 l 1
 457 526 l 1
 237 526 l 1
 237 1131 l 1
 156 1063 127 1058 57 1041 c 1
 57 1263 l 1
481 -85 m 1
 249 -85 l 1
 1146 1504 l 1
 1378 1504 l 1
 481 -85 l 1
EndSplineSet
EndChar

StartChar: threequarters
Encoding: 190 190 298
Width: 1691
VWidth: 2007
Flags: W
HStem: 130 200<1240 1361 1581 1691> 514 200<263.932 430.045> 932 200<234.268 396.013> 1304 200<265.421 398.274>
VStem: 12 220<742.332 849 1184 1275.59> 408 220<1147.39 1293.7> 452 220<737.392 907.44> 1361 220<-73 130 330 520>
DStem2: 281 -85 514 -85 0.491588 0.870828<114.54 1824.7>
LayerCount: 2
Fore
SplineSet
672 831 m 3xfb
 672 647 525 514 334 514 c 3
 143 514 12 645 12 849 c 1
 232 849 l 1
 244 770 280 714 334 714 c 3
 416 714 452 766 452 828 c 3xfb
 452 886 403 932 324 932 c 3
 290 932 260 922 233 914 c 1
 233 1132 l 1
 375 1132 408 1151 408 1238 c 3
 408 1266 362 1304 334 1304 c 3
 272 1304 252 1259 244 1184 c 1
 24 1184 l 1
 24 1372 138 1504 329 1504 c 3
 493 1504 628 1397 628 1235 c 3xfd
 628 1156 613 1095 570 1054 c 1
 645 1013 672 931 672 831 c 3xfb
514 -85 m 1
 281 -85 l 1
 1178 1504 l 1
 1409 1504 l 1
 514 -85 l 1
1361 -73 m 1
 1361 130 l 1
 985 130 l 1
 985 308 l 1
 1376 905 l 1
 1581 905 l 1
 1581 330 l 1
 1691 330 l 1
 1691 130 l 1
 1581 130 l 1
 1581 -73 l 1
 1361 -73 l 1
1361 330 m 1
 1361 520 l 1
 1240 330 l 1
 1361 330 l 1
EndSplineSet
EndChar

StartChar: circumflex
Encoding: 710 710 299
Width: 674
Flags: W
HStem: 1186 296<211 227 451 469>
VStem: 4 672
LayerCount: 2
Fore
SplineSet
4 1186 m 1
 211 1482 l 1
 469 1482 l 1
 676 1186 l 1
 451 1186 l 1
 337 1336 l 1
 227 1186 l 1
 4 1186 l 1
EndSplineSet
EndChar

StartChar: caron
Encoding: 711 711 300
Width: 674
Flags: W
HStem: 1186 296<211 227 451 469>
VStem: 4 672
LayerCount: 2
Fore
SplineSet
4 1482 m 1
 227 1482 l 1
 337 1332 l 1
 451 1482 l 1
 676 1482 l 1
 469 1186 l 1
 211 1186 l 1
 4 1482 l 1
EndSplineSet
EndChar

StartChar: ring
Encoding: 730 730 301
Width: 674
Flags: W
HStem: 1135 107<260.303 416.294> 1419 107<260.024 416.54>
VStem: 144 107<1249.85 1410.88> 425 107<1250.87 1411.31>
LayerCount: 2
Fore
SplineSet
338 1526 m 3
 450 1526 532 1437 532 1331 c 3
 532 1207 429 1135 338 1135 c 3
 230 1135 144 1213 144 1331 c 3
 144 1435 218 1526 338 1526 c 3
425 1331 m 3
 425 1390 397 1419 338 1419 c 3
 279 1419 251 1390 251 1331 c 3
 251 1272 279 1242 338 1242 c 3
 397 1242 425 1272 425 1331 c 3
EndSplineSet
EndChar

StartChar: tilde
Encoding: 732 732 302
Width: 674
Flags: W
HStem: 1197 165<334.251 533.399> 1283 165<120.965 324.197>
VStem: -12 128<1196 1278.67> 544 128<1370.31 1448>
LayerCount: 2
Fore
SplineSet
169 1448 m 3x70
 273 1448 374 1362 463 1362 c 3xb0
 510 1362 538 1391 544 1448 c 1
 672 1448 l 1x70
 672 1284 613 1197 497 1197 c 3xb0
 414 1197 262 1283 183 1283 c 3
 136 1283 116 1255 116 1196 c 1
 -12 1196 l 1
 -12 1356 29 1448 169 1448 c 3x70
EndSplineSet
EndChar

StartChar: Ccedilla
Encoding: 199 199 309
Width: 1479
Flags: W
HStem: -428 200<404.633 661.082> -400 206<388 552.751> -6 213<613.853 681 901 964.733> 1262 220<591.647 984.166>
VStem: 102 240<505.637 991.349> 684 220<-203.061 -6.21945> 1158 240<367.89 480>
LayerCount: 2
Back
SplineSet
788 207 m 3
 967 207 1139 328 1158 480 c 1
 1398 480 l 1
 1327 201 1144 -13 791 -13 c 3
 356 -13 102 276 102 745 c 3
 102 1182 379 1482 794 1482 c 3
 1100 1482 1303 1304 1373 1050 c 1
 1133 1050 l 1
 1091 1182 965 1262 790 1262 c 3
 507 1262 342 1051 342 746 c 3
 342 438 528 207 788 207 c 3
416 -194 m 1x60
 460 -214 507 -228 555 -228 c 3
 641 -228 684 -190 684 -96 c 3
 684 -51 682 -40 679 47 c 1
 897 47 l 1
 900 11 904 -44 904 -78 c 3
 904 -354 712 -428 581 -428 c 3xa0
 543 -428 456 -420 388 -400 c 1
 388 -194 l 1
 416 -194 l 1x60
EndSplineSet
Fore
SplineSet
416 -194 m 1x7e
 460 -214 507 -228 555 -228 c 3
 641 -228 684 -190 684 -96 c 3
 684 -62 683 -47 681 -6 c 1
 313 39 102 317 102 745 c 3
 102 1182 379 1482 794 1482 c 3
 1100 1482 1303 1304 1373 1050 c 1
 1133 1050 l 1
 1091 1182 965 1262 790 1262 c 3
 507 1262 342 1051 342 746 c 3
 342 438 528 207 788 207 c 3
 967 207 1139 328 1158 480 c 1
 1398 480 l 1
 1335 232 1183 35 901 -5 c 1
 903 -31 904 -58 904 -78 c 3
 904 -354 712 -428 581 -428 c 3xbe
 543 -428 456 -420 388 -400 c 1
 388 -194 l 1
 416 -194 l 1x7e
EndSplineSet
EndChar

StartChar: Eth
Encoding: 208 208 318
Width: 1479
Flags: W
HStem: 0 220<408 882.346> 616 220<18 168 408 718> 1230 220<408 887.357>
VStem: 168 240<220 616 836 1230> 1140 240<489.272 979.137>
LayerCount: 2
Back
SplineSet
18 616 m 25
 18 836 l 25
 718 836 l 25
 718 616 l 25
 18 616 l 25
1380 733 m 3
 1380 147 1038 0 697 0 c 2
 168 0 l 1
 168 1450 l 1
 673 1450 l 2
 1239 1450 1380 1125 1380 733 c 3
675 220 m 2
 969 220 1140 424 1140 736 c 3
 1140 1053 970 1230 670 1230 c 2
 408 1230 l 1
 408 220 l 1
 675 220 l 2
EndSplineSet
Fore
SplineSet
675 220 m 2
 969 220 1140 424 1140 736 c 3
 1140 1053 970 1230 670 1230 c 2
 408 1230 l 1
 408 836 l 1
 718 836 l 1
 718 616 l 1
 408 616 l 1
 408 220 l 1
 675 220 l 2
1380 733 m 3
 1380 147 1038 0 697 0 c 2
 168 0 l 1
 168 616 l 1
 18 616 l 1
 18 836 l 1
 168 836 l 1
 168 1450 l 1
 673 1450 l 2
 1239 1450 1380 1125 1380 733 c 3
EndSplineSet
EndChar

